/* XPM */
static char *_71b4ca947734ea6cc88dbe43cd196714BGDhmVm18ed8DNi[] = {
/* columns rows colors chars-per-pixel */
"42 42 43 1 ",
"  c #032B3E",
". c #172B3D",
"X c #182B3D",
"o c #262B3C",
"O c #312C3B",
"+ c #362C3B",
"@ c #3B2C3A",
"# c #3F2C3A",
"$ c #432C3A",
"% c #462C3A",
"& c #4B2C39",
"* c #4E2D39",
"= c #522D39",
"- c #562D39",
"; c #622D38",
": c #732D37",
"> c #7B2E36",
", c #7F2E36",
"< c #852E35",
"1 c #882E35",
"2 c #982E34",
"3 c #AF2F32",
"4 c #B22F32",
"5 c #B72F32",
"6 c #B82F32",
"7 c #C33031",
"8 c #E4312E",
"9 c #E64643",
"0 c #E64745",
"q c #E74A47",
"w c #E84F4D",
"e c #E8514E",
"r c #EC7371",
"t c #ED7674",
"y c #EE7E7C",
"u c #EF8886",
"i c #F3A4A3",
"p c #F3A7A6",
"a c #F4ACAB",
"s c #F4ADAC",
"d c #F7C2C1",
"f c #FCE8E8",
"g c white",
/* pixels */
"                                          ",
"                                          ",
"                                          ",
"                                          ",
"                                          ",
"                                          ",
"                                          ",
"                                          ",
"                                          ",
"                                          ",
"                                          ",
"                                          ",
"                                          ",
"                     +&&.                 ",
"                    58888X                ",
"                   6888888-               ",
"                  688888888o              ",
"                $88888888<;               ",
"               %888888888881   *8+        ",
"              &88888888888881 =88+        ",
"             *8tge88888888888:888         ",
"             88rgw888888888888888         ",
"            288888888dggsq8888888+        ",
"             88888888u88888p0@788+        ",
"             #888888888uafi0,  %8+        ",
"               58888diyy988>              ",
"                =88,8i8688=               ",
"                  &X8893&                 ",
"                    O8884                 ",
"                      $$                  ",
"                                          ",
"                                          ",
"                                          ",
"                                          ",
"                                          ",
"                                          ",
"                                          ",
"                                          ",
"                                          ",
"                                          ",
"                                          ",
"                                          "
};
