/* XPM */
static char *_6e1a3d09dcb416da8056667961f79624iBCfz54gvWAuPNo[] = {
/* columns rows colors chars-per-pixel */
"42 42 36 1 ",
"  c #032B3E",
". c #032C3F",
"X c #032C40",
"o c #042E41",
"O c #053146",
"+ c #063348",
"@ c #07354A",
"# c #07364C",
"$ c #08374D",
"% c #08394F",
"& c #093B52",
"* c #093C53",
"= c #0A3D55",
"- c #0B4058",
"; c #0C435B",
": c #0D445D",
"> c #0E4761",
", c #0E4862",
"< c #0F4A64",
"1 c #114F6B",
"2 c #13536F",
"3 c #135370",
"4 c #135471",
"5 c #145673",
"6 c #155775",
"7 c #155977",
"8 c #165A78",
"9 c #175C7B",
"0 c #175D7C",
"q c #185E7E",
"w c #196180",
"e c #1A6586",
"r c #1B6789",
"t c #1B6889",
"y c #1C698B",
"u c #1D6B8D",
/* pixels */
"                                          ",
"                               rX         ",
"     oowuu#                    tX         ",
"    ouuuuuuu                  ouX         ",
"   wuuuuuuuuO               Oruu+         ",
"  Ouuuuuuuw                Ouuuuu@        ",
"  uuuuuuuw                +uuuuuuu@       ",
" quuuuuuu=                uuuuuuuuu       ",
" wuuuuuuuuX              ruuuuuuuuuu      ",
" uuuuuuuuu@             euuuuuuuuuuu      ",
"$uuuuuuu2u@            %uuuuuuuuuuuu&     ",
"uuuuuuu@ u@            ruu87yuuuuuuuu     ",
"uuuuuuu@ 2       *====ru7o   uuuuuuuu     ",
" uuuuuu            5yuu;  ==uuuuuuuuu     ",
" uuuuuu              2yu:  4444yuuuuu     ",
" quuuuu                1o       yuuuu     ",
" <uuuuu                          yuuu     ",
"  uuuuu                           yu.     ",
"  quuuu                           1u.     ",
"   uuuu                            u      ",
"   quuuO                                  ",
"    euu2                                  ",
"    ;uuuO                                 ",
"     ;uu3                                 ",
"      -uu22ru2                            ",
"       wuuu,o                             ",
"      1u>;o                               ",
"       =                                  ",
"                                          ",
"           27 7777                6       ",
"           euuuuuuu9o             y8      ",
"            #uuuuuuuu0o           yuu9    ",
"             @uuuuuuuuuq0  80uuo  #uuu000 ",
"              @uuuuuuuuuuuquuu    0uuuuu  ",
"               euuuuuuuuuuuuuuo  wu@ @@   ",
"                euuuuuuuuuuuuuuuuuu       ",
"                Ouuuuuuuuuuuuuuuuu        ",
"                  euuuuuuuuuuuuuuO        ",
"                  ouuuuuuuuuuuuuo         ",
"                   .eyO....uuu.           ",
"                       O                  ",
"                                          "
};
