/* XPM */
static char *eel_w3[] = {
/* columns rows colors chars-per-pixel */
"42 42 50 1 ",
"  c black",
". c #030305",
"X c #010406",
"o c #010709",
"O c #060509",
"+ c #08070C",
"@ c #01080B",
"# c #01090D",
"$ c #0A090F",
"% c #010B10",
"& c #010D13",
"* c #010F15",
"= c #0B0A11",
"- c #0F0E17",
"; c #0F0E18",
": c #100F19",
"> c #021016",
", c #061017",
"< c #021219",
"1 c #02121A",
"2 c #061018",
"3 c #02161F",
"4 c #11101B",
"5 c #10131F",
"6 c #031621",
"7 c #021721",
"8 c #021822",
"9 c #031823",
"0 c #021924",
"q c #051824",
"w c #031E2B",
"e c #031F2C",
"r c #161421",
"t c #181725",
"y c #191827",
"u c #1C1A2B",
"i c #1F1D30",
"p c #03202D",
"a c #03202E",
"s c #032230",
"d c #032332",
"f c #032535",
"g c #032636",
"h c #032739",
"j c #032B3E",
"k c #222034",
"l c #761917",
"z c #AD2522",
"x c #B82725",
"c c #CE2C29",
/* pixels */
"jjjjjjjjjjjjjjjjjjjjjjjjjjjjjjjjjjjjjjjjjj",
"jjjjjjjjjjjjjjjjjjjjjjjjjjjjjjjjjjjjjjjjjj",
"jjjjjjjjjjjjjjjjjjjjjjjjjjjjjjjjjjjjjjjjjj",
"jjjjjjjjjjjjjjjjjjjjjjjjpp#  9esjjjjjjjjjj",
"jjjjjjjjjjjjjjjjjjjjjp#          0jjjjjjjj",
"jjjjjjjjjjjjjjjjjjse               8jjjjjj",
"jjjjjjjjjjjjjseee                   0jjjjj",
"jjjjjjjjjse#               $===      8jjjj",
"jjjjjjje                $ukkkkkkk=    djjj",
"jjjjjw                =kkr2**&*5uk-    jjj",
"jjjj#              +uky2*jjjjjjj6kk    djj",
"jjj&            +=kkr>sjjjjjjjjjj8i:   sjj",
"jjs   xl        :r2>jjjjjjjjjjjjjj%k   8jj",
"jj    cz    +yO    wjjjjjjjjjjjjjjj4    jj",
"jj;=.    +.r&*j7    3wwfjjjjjjjjjjj    djj",
"jj8>;rrrrOX=hjjjj>X >*jjjjjjjjjjjj@    djj",
"jjjjjjjjjj#kqjjjjjjjjjjjjjjjjjjjp@     fjj",
"jjjjjjjjjjjt+jjjjjjjjjjjjjjjjj0o       jjj",
"jjjjjjjjjjj7o7fjjw@   0www0w          sjjj",
"jjjjjjjjjjjjjjje                     &jjjj",
"jjjjjjjjjjjjjj#                      fjjjj",
"jjjjjjjjjjjjjp    &>                fjjjjj",
"jjjjjjjjjjjjj#   &jjj<            *hjjjjjj",
"jjjjjjjjjjjjj* *<jjjjjj<         <jjjjjjjj",
"jjjjjjjjjjjjj**jjjjjjjjjj8<   <<jjjjjjjjjj",
"jjjjjjjjjjjjj8ejjjjjjjjjjjjjjjjjjjjjjjjjjj",
"jjjjjjjjjjjjjjjjjjjjjjjjjjjjjjjjjjjjjjjjjj",
"jjjjjjjjjjjjjjjjjjjjjjjjjjjjjjjjjjjjjjjjjj",
"jjjjjjjjjjjjjjjjjjjjjjjjjjjjjjjjjjjjjjjjjj",
"jjjjjjjjjjjjjjjjjjjjjjjjjjjjjjjjjjjjjjjjjj",
"jjjjjjjjjjjjjjjjjjjjjjjjjjjjjjjjjjjjjjjjjj",
"jjjjjjjjjjjjjjjjjjjjjjjjjjjjjjjjjjjjjjjjjj",
"jjjjjjjjjjjjjjjjjjjjjjjjjjjjjjjjjjjjjjjjjj",
"jjjjjjjjjjjjjjjjjjjjjjjjjjjjjjjjjjjjjjjjjj",
"jjjjjjjjjjjjjjjjjjjjjjjjjjjjjjjjjjjjjjjjjj",
"jjjjjjjjjjjjjjjjjjjjjjjjjjjjjjjjjjjjjjjjjj",
"jjjjjjjjjjjjjjjjjjjjjjjjjjjjjjjjjjjjjjjjjj",
"jjjjjjjjjjjjjjjjjjjjjjjjjjjjjjjjjjjjjjjjjj",
"jjjjjjjjjjjjjjjjjjjjjjjjjjjjjjjjjjjjjjjjjj",
"jjjjjjjjjjjjjjjjjjjjjjjjjjjjjjjjjjjjjjjjjj",
"jjjjjjjjjjjjjjjjjjjjjjjjjjjjjjjjjjjjjjjjjj",
"jjjjjjjjjjjjjjjjjjjjjjjjjjjjjjjjjjjjjjjjjj"
};
