/* XPM */
static char *eel_w2[] = {
/* columns rows colors chars-per-pixel */
"42 42 159 2 ",
"   c black",
".  c #030305",
"X  c #050509",
"o  c #08070C",
"O  c #03080A",
"+  c #050B0D",
"@  c #060D0F",
"#  c #09080E",
"$  c #020C12",
"%  c #070E11",
"&  c #070F12",
"*  c #0B0B12",
"=  c #0F0E17",
"-  c #0F0E18",
";  c #071013",
":  c #071014",
">  c #0A1316",
",  c #0A151A",
"<  c #111A1E",
"1  c #3F0D0C",
"2  c #0F1A22",
"3  c #131722",
"4  c #161421",
"5  c #171523",
"6  c #181725",
"7  c #101E25",
"8  c #1C1A2B",
"9  c #1F1D30",
"0  c #0D212A",
"q  c #0D242F",
"w  c #11252F",
"e  c #16272E",
"r  c #1B272D",
"t  c #0D2530",
"y  c #032839",
"u  c #062838",
"i  c #032B3E",
"p  c #0F2B39",
"a  c #0D2D3D",
"s  c #102732",
"d  c #142832",
"f  c #102A36",
"g  c #1D2B33",
"h  c #1E2D35",
"j  c #112B38",
"k  c #102F3E",
"l  c #13303E",
"z  c #1D323E",
"x  c #1E343E",
"c  c #222034",
"v  c #4B100F",
"b  c #0B3143",
"n  c #0F3242",
"m  c #0E3243",
"M  c #103242",
"N  c #153342",
"B  c #123444",
"V  c #143747",
"C  c #183542",
"Z  c #183543",
"A  c #1C3541",
"S  c #193847",
"D  c #1D3947",
"F  c #113749",
"G  c #12384A",
"H  c #173949",
"J  c #163B4D",
"K  c #193948",
"L  c #1B3B4A",
"P  c #1C3B4A",
"I  c #1B3D4D",
"U  c #193E4F",
"Y  c #1E3F4F",
"T  c #223842",
"R  c #23414F",
"E  c #224251",
"W  c #244250",
"Q  c #224556",
"!  c #274655",
"~  c #2C4957",
"^  c #2A4C5C",
"/  c #334F5C",
"(  c #34515F",
")  c #36525F",
"_  c #355361",
"`  c #365665",
"'  c #3B5663",
"]  c #3C5662",
"[  c #3D5763",
"{  c #3A5664",
"}  c #3B5A69",
"|  c #435F6B",
" . c #455D68",
".. c #46606C",
"X. c #49636F",
"o. c #4B636F",
"O. c #466371",
"+. c #476472",
"@. c #486572",
"#. c #4C6470",
"$. c #4B6775",
"%. c #4E6A77",
"&. c #576D77",
"*. c #556D78",
"=. c #556D79",
"-. c #57717E",
";. c #5C707A",
":. c #5B737E",
">. c #5D747E",
",. c #96201E",
"<. c #A32320",
"1. c #E4312E",
"2. c #5C7682",
"3. c #5E7884",
"4. c #5F7884",
"5. c #647A85",
"6. c #6D8089",
"7. c #6D838D",
"8. c #6E858F",
"9. c #73858D",
"0. c #768790",
"q. c #748A95",
"w. c #798A93",
"e. c #7A8F99",
"r. c #819097",
"t. c #86949A",
"y. c #84969F",
"u. c #88979E",
"i. c #8698A0",
"p. c #8A9BA3",
"a. c #8E9CA3",
"s. c #8A9CA4",
"d. c #8C9DA5",
"f. c #8F9FA7",
"g. c #8FA0A8",
"h. c #96A2A7",
"j. c #92A2AA",
"k. c #97A4AA",
"l. c #96A6AE",
"z. c #9AA5AB",
"x. c #9AA6AC",
"c. c #9EA9AF",
"v. c #98A8B0",
"b. c #99A9B1",
"n. c #9FAEB5",
"m. c #A6B1B6",
"M. c #A4B2B9",
"N. c #A5B3BA",
"B. c #AAB5BA",
"V. c #B3BBBF",
"C. c #ACB9C0",
"Z. c #B7BFC3",
"A. c #B3BFC5",
"S. c #B9C1C5",
"D. c #B9C4CA",
"F. c #BBC6CB",
"G. c #BEC7CA",
"H. c #BEC8CD",
"J. c #C7D0D4",
/* pixels */
"i i i i i i i i i i i i i i i i i i i i i i i i i i i i i i i i i i i i i i i i i i ",
"i i i i i i i i i i i i i i i i i i i i i i i i i i i i i i i i i i i i i i i i i i ",
"i i i i i i i i i i i i i i i i i i i i i i i i i i ` O.+.+.F i i i i i i i i i i i ",
"i i i i i i i i i i i i i i i i i i i i i i @.@.m.c.Y D L T 6.c.B.O.F i i i i i i i ",
"i i i i i i i i i i i i i i i i i i i i @.n.i Z %               t P 9.5.F i i i i i ",
"i i i i i i i i i i i i i i i i i $.j.z.S %                           Z w.F i i i i ",
"i i i i i i i i i i i ` %.g.x.z.h.L p                                   s 0.F i i i ",
"i i i i i i i i %.f.z.E D p                                               d 9.F i i ",
"i i i i i i %.x.P p                                 * 8 c c c c # .         s G.i i ",
"i i i i } k.S :                               o 8 c c 4 4 4 4 6 c c -         b ` i ",
"i i i } E >                               * 8 c 5 2 g E ) _ _ b 7 9 c X       t G.i ",
"i i i { >                           X * c 6 4 r W ..C.^ i i i u.*.d c c         Z.i ",
"i i i.k       v                   c c 4 2 M ' f.^ i i i i i i i i *.d 9 X       5.G ",
"i A.N       <.1.1           *         y i H.i -.J i i i i i i i i i ! 3 o       P ` ",
"i A.r .       ,.      o . X 2 2         w ;.t.E Z.i i i i i i i i i J.<         V ` ",
"i A.x - 4 * * * * * 4   $ R X.>.x O         , B f.i i i i i i i i O.L %         V.i ",
"i i 5.' x g g g g g u 5 # >.U i N...b c M [ @.N.i i i i i i i O.s.H @           Z.i ",
"i i i i M.M.M.M.M.M.) 2 c S @.i i i e.N.N.i i i i i i i 4.2.a.H j             a j.i ",
"i i i i i i i i i i F.z < 0 &.7.i +.5.f.t.t.u.7.5.5.y.r.T Z @                 V _ i ",
"i i i i i i i i i i i 6.M c h 7.u.I C @       l A D f                       2 S.i i ",
"i i i i i i i i i i i i q.n.n.y.l                                           ) Q i i ",
"i i i i i i i i i i i i i i F.l                                           b f.i i i ",
"i i i i i i i i i i i i i i _ ;         0 O                             b p.i i i i ",
"i i i i i i i i i i i i i i ~         b u.o.x O                     2 / f.i i i i i ",
"i i i i i i i i i i i i i i ~     r M y.i i b.#.A O             , b &.Q i i i i i i ",
"i i i i i i i i i i i i i i ~   b y.v.i i i i i v.*. .T z c b X.-.v.i i i i i i i i ",
"i i i i i i i i i i i i i i _ @ m.i i i i i i i i i i l.l.l.x.i i i i i i i i i i i ",
"i i i i i i i i i i i i i i 7.:.u.i i i i i i i i i i i i i i i i i i i i i i i i i ",
"i i i i i i i i i i i i i i i i i i i i i i i i i i i i i i i i i i i i i i i i i i ",
"i i i i i i i i i i i i i i i i i i i i i i i i i i i i i i i i i i i i i i i i i i ",
"i i i i i i i i i i i i i i i i i i i i i i i i i i i i i i i i i i i i i i i i i i ",
"i i i i i i i i i i i i i i i i i i i i i i i i i i i i i i i i i i i i i i i i i i ",
"i i i i i i i i i i i i i i i i i i i i i i i i i i i i i i i i i i i i i i i i i i ",
"i i i i i i i i i i i i i i i i i i i i i i i i i i i i i i i i i i i i i i i i i i ",
"i i i i i i i i i i i i i i i i i i i i i i i i i i i i i i i i i i i i i i i i i i ",
"i i i i i i i i i i i i i i i i i i i i i i i i i i i i i i i i i i i i i i i i i i ",
"i i i i i i i i i i i i i i i i i i i i i i i i i i i i i i i i i i i i i i i i i i ",
"i i i i i i i i i i i i i i i i i i i i i i i i i i i i i i i i i i i i i i i i i i ",
"i i i i i i i i i i i i i i i i i i i i i i i i i i i i i i i i i i i i i i i i i i ",
"i i i i i i i i i i i i i i i i i i i i i i i i i i i i i i i i i i i i i i i i i i ",
"i i i i i i i i i i i i i i i i i i i i i i i i i i i i i i i i i i i i i i i i i i ",
"i i i i i i i i i i i i i i i i i i i i i i i i i i i i i i i i i i i i i i i i i i "
};
