/* XPM */
static char *fish3[] = {
/* columns rows colors chars-per-pixel */
"42 42 42 1 ",
"  c #032B3E",
". c #0A2B3E",
"X c #0F2B3E",
"o c #112B3D",
"O c #102B3E",
"+ c #162B3D",
"@ c #192B3D",
"# c #1D2B3D",
"$ c #552D39",
"% c #572D38",
"& c #5B2D38",
"* c #692D37",
"= c #632D38",
"- c #712D37",
"; c #722D37",
": c #7A2E36",
"> c #7B2E36",
", c #862E35",
"< c #BC2F31",
"1 c #BE3031",
"2 c #C03031",
"3 c #D03030",
"4 c #D13030",
"5 c #D43030",
"6 c #D53030",
"7 c #E4312E",
"8 c #E53C39",
"9 c #E6413E",
"0 c #E74D4A",
"q c #E74E4C",
"w c #EE7D7B",
"e c #EE7F7D",
"r c #EE8381",
"t c #F0908F",
"y c #F2A2A1",
"u c #F4B1B0",
"i c #FAE0DF",
"p c #FBE2E2",
"a c #FCEDED",
"s c #FCEEEE",
"d c #FDEFEF",
"f c white",
/* pixels */
"                                          ",
"                                          ",
"                                          ",
"                                          ",
"                                          ",
"                                          ",
"                                          ",
"                                          ",
"                                          ",
"                                          ",
"                                          ",
"                                          ",
"                     .+o.                 ",
"                    ,7777.                ",
"                   ,777777+               ",
"                  ,77777777&              ",
"                X77777777;@               ",
"               X77777777777;   o7=        ",
"              o7777777777777; o77=        ",
"             X78f877777777777#777         ",
"             77tfr777777777777777         ",
"            :77777777yffsw7777777&        ",
"             77777777p777770w=577=        ",
"             *7777777779qusw3  ;7=        ",
"               67777yaipe775              ",
"                17737t75772               ",
"                  <$77e:<                 ",
"                    *777>                 ",
"                      11$                 ",
"                                          ",
"                                          ",
"                                          ",
"                                          ",
"                                          ",
"                                          ",
"                                          ",
"                                          ",
"                                          ",
"                                          ",
"                                          ",
"                                          ",
"                                          "
};
