/* XPM */
static char *wave1[] = {
/* columns rows colors chars-per-pixel */
"42 42 18 1 ",
"  c black",
". c #020202",
"X c #040404",
"o c #01080B",
"O c #01090D",
"+ c #010A0E",
"@ c gray4",
"# c gray5",
"$ c #010C11",
"% c #111111",
"& c #032A3C",
"* c #032A3D",
"= c #032B3E",
"- c #D7D7D7",
"; c #E6E6E6",
": c #EAEAEA",
"> c gray98",
", c white",
/* pixels */
"                                          ",
"                                          ",
"                                          ",
"                              %:          ",
"       X>               :                 ",
"                                          ",
"                                          ",
"  ,                                       ",
"                      ;                   ",
"                    #                     ",
"                   @;                     ",
"                                          ",
"                                          ",
"                                   -      ",
"                                          ",
"                                          ",
"                                          ",
"                                          ",
"                                          ",
"                                          ",
"                                          ",
"                                          ",
"                                          ",
"                                          ",
"                                          ",
"                                          ",
"                                          ",
"              O                           ",
"              =                           ",
"             O==                          ",
"             ===o                         ",
"            =====                  O      ",
"           =======                $==     ",
"         O=========O             $====    ",
"      OO=============OO        $=======+O ",
"OOOO$===================++OO$=============",
"==========================================",
"==========================================",
"==========================================",
"==========================================",
"==========================================",
"=========================================="
};
