/* XPM */
static char *alive3[] = {
/* columns rows colors chars-per-pixel */
"42 42 59 1 ",
"  c black",
". c #032B3E",
"X c #032C3F",
"o c #042C40",
"O c #042D41",
"+ c #053044",
"@ c #08354A",
"# c #0A384E",
"$ c #10445C",
"% c #195570",
"& c #1E5E7B",
"* c #1E5F7D",
"= c #23576D",
"- c #255C74",
"; c #1F607D",
": c #206280",
"> c #216482",
", c #226785",
"< c #236887",
"1 c #246A89",
"2 c #266E8E",
"3 c #277090",
"4 c #287292",
"5 c #287293",
"6 c #2D7C9E",
"7 c #358AAF",
"8 c #358BB0",
"9 c #3C97BF",
"0 c #3D99C1",
"q c #3E9BC3",
"w c #3E9BC4",
"e c #419FC8",
"r c #40A0C9",
"t c #41A2CB",
"y c #43A3CD",
"u c #45A8D3",
"i c #4AAAD4",
"p c #4BABD4",
"a c #4DABD4",
"s c #4DACD5",
"d c #53AED6",
"f c gray52",
"g c #8FCBE4",
"h c #94CCE5",
"j c #9DD1E7",
"k c #9FD2E8",
"l c #A0D2E8",
"z c #A2D3E9",
"x c #A3D4E9",
"c c #ABD7EB",
"v c #ADD9EB",
"b c #AED9EC",
"n c #E7F4F9",
"m c #E9F5F9",
"M c #EEF7FB",
"N c #F6F6F6",
"B c #F3F9FC",
"V c #F6FBFD",
"C c white",
/* pixels */
"..........................................",
"..........XXuu4X..........................",
"..........&uuuuuu2.....O..................",
"...........&uuuuuuuO.OOOOOOX..............",
"............;uuuuuuuuuuuuuuuu2O...........",
".............uuuuuuuuuuuuuuuuuu2OX........",
".............;uuuuuuuuuuuuuuuuuuuO........",
".............>uuuuuuuuuuuuuuuuuuey2.......",
"............Ouuuuuuuuuuuuuuuuuu-uuuO......",
"...........OuuuuuuuuuuuuuuuuuuuiCcuu......",
"...........>uuuuuuuuuuuuuuuuuuujN uuO.....",
"..........*uuuuuuuuuuuuuuuuuuuujf uu1X....",
"..........uuuuuuuuuuuuuuiCdauuuuB=uu1.....",
".........*uuuuuuusjxuuudCCCCbauuuuuu>.....",
".........,uuuuuuzCVuuizCMMMMMMbauuuu+.....",
"........OuuuuuaCCCuuuVzutwwwwwuuuuuu1.....",
"........*uuuuaCCCzuugt0........*tuuuu.....",
"........,uuuaCCCCdur<.XX.........*uuu.....",
"........uuuuzCCCmu0...............*tu.....",
"........uuuuCCCbu<........................",
"........uuujCCne<.........................",
"........uusCCjt...........................",
".......&uuhCBt............................",
".......&uuxBu,............................",
".......&uuCk<.............................",
".......&uubu..............................",
"........uubt..............................",
"........uuk5..............................",
"........*uu3..............................",
"........;uu3..............................",
".........0u3..............................",
"........X;u6..............................",
".........%uu#.............................",
".........@2uu6#...........................",
".......X$uuuuuuu$#........................",
".......2uuuuuuuuuu6.......................",
".....@uuuuuuuuuuuuu4......................",
"....@uuuuuu;uuu78796......................",
"....uuuuu77...XX..........................",
"...&u0:O.X................................",
"...&;.....................................",
"...XX....................................."
};
