/* XPM */
static char *dead3[] = {
/* columns rows colors chars-per-pixel */
"42 42 134 2 ",
"   c black",
".  c #060606",
"X  c #030708",
"o  c #01070A",
"O  c #04090A",
"+  c #050A0C",
"@  c #070C0E",
"#  c gray4",
"$  c gray6",
"%  c #010D12",
"&  c #0D1315",
"*  c #091419",
"=  c #0C181D",
"-  c gray7",
";  c gray9",
":  c #121F25",
">  c #142025",
",  c #182429",
"<  c #1A2428",
"1  c #1A2529",
"2  c #19262B",
"3  c #1A272D",
"4  c #032231",
"5  c #042230",
"6  c #0D2631",
"7  c #032B3E",
"8  c #042B3E",
"9  c #052C3E",
"0  c #072D3F",
"q  c #0C2A38",
"w  c #0D2B3B",
"e  c #0E2B3A",
"r  c #0D2C3C",
"t  c #1E2B30",
"y  c #1F2F38",
"u  c #13313F",
"i  c #373737",
"p  c gray23",
"a  c #3E3E3E",
"s  c #062E41",
"d  c #082E40",
"f  c #0A3042",
"g  c #0C3142",
"h  c #0B3244",
"j  c #0F3344",
"k  c #0F3445",
"l  c #123241",
"z  c #113547",
"x  c #173645",
"c  c #163847",
"v  c #1B3946",
"b  c #143748",
"n  c #12384A",
"m  c #16394A",
"M  c #1A3A4A",
"N  c #1E3F4F",
"B  c #1A3E50",
"V  c #22414F",
"C  c #234150",
"Z  c #254453",
"A  c #284755",
"S  c #294755",
"D  c #2A4856",
"F  c #27495A",
"G  c #294B5B",
"H  c #2D4B58",
"J  c #2F4C5A",
"K  c #314F5D",
"L  c #34505E",
"P  c #335363",
"I  c #345463",
"U  c #355564",
"Y  c #3A5765",
"T  c #3B5866",
"R  c #3A5968",
"E  c #3E5C6B",
"W  c #3F5D6B",
"Q  c gray25",
"!  c #464646",
"~  c gray29",
"^  c gray32",
"/  c #405E6C",
"(  c #43616F",
")  c #456270",
"_  c #476472",
"`  c #5B7481",
"'  c #5C7682",
"]  c #7A8A92",
"[  c #95A4AC",
"{  c #97A6AD",
"}  c #9EA9AF",
"|  c #9DABB1",
" . c #A0A0A0",
".. c gray64",
"X. c #A7A7A7",
"o. c gray66",
"O. c #ACACAC",
"+. c #A3AEB3",
"@. c #A6B2B8",
"#. c #AAB4B9",
"$. c #AAB5BB",
"%. c #A8B5BC",
"&. c #ACB8BE",
"*. c gray69",
"=. c #B7B7B7",
"-. c gray73",
";. c gray",
":. c #B0BCC1",
">. c #B0BDC3",
",. c #B2BEC4",
"<. c #B7BFC4",
"1. c #B4C0C5",
"2. c #B7C3C8",
"3. c #B8C3C9",
"4. c #BCC6CB",
"5. c #BEC7CB",
"6. c #BEC8CD",
"7. c #C0C0C0",
"8. c #C3C3C3",
"9. c #C6C6C6",
"0. c #C0CACF",
"q. c #C1CBD0",
"w. c #E0E5E7",
"e. c gray90",
"r. c #E3E7E9",
"t. c #E5E9EB",
"y. c gray91",
"u. c #EFEFEF",
"i. c #F1F1F1",
"p. c #F2F3F4",
"a. c gray96",
"s. c #F7F7F8",
"d. c gray98",
"f. c gray99",
/* pixels */
"7 7 7 7 7 7 7 7 7 1.f.Y 7 7 s f.f.7 7 7 7 7 7 7 7 7 7 7 7 7 7 7 7 7 7 7 7 7 7 7 7 7 ",
"7 7 7 7 7 7 7 7 0 R             q 7 d.7 7 8 7 7 7 7 7 7 7 7 7 7 7 7 7 7 7 7 7 7 7 7 ",
"7 7 7 7 7 7 7 7 7 1.0               q $.4.s.s.d.s.s.s.d./ s 7 7 7 7 7 7 7 7 7 7 7 7 ",
"7 7 7 7 7 7 7 7 7 7 ,.8               q 8               8 s :.E 7 7 7 7 7 7 7 7 7 7 ",
"7 7 7 7 7 7 7 7 7 7 7 3.3                                     0 :./ 7 7 7 7 7 7 7 7 ",
"7 7 7 7 7 7 7 7 7 7 7 7 H                 .                       d p.7 7 7 7 7 7 7 ",
"7 7 7 7 7 7 7 7 7 7 7 7 1.=         !       a             # #       q &.7 7 7 7 7 7 ",
"7 7 7 7 7 7 7 7 7 7 7 h D             !     =.        # 9.f.f.f.Q     x W 7 7 7 7 7 ",
"7 7 7 7 7 7 7 7 7 7 h K =     ~         a   $ ! $ i.i.i.f.f.f.f.f.f..   0 U 7 7 7 7 ",
"7 7 7 7 7 7 7 7 7 7 :.,         ~     # 8.u.  =.      8.f.f.f.f.f.      l / 7 7 7 7 ",
"7 7 7 7 7 7 7 7 7 3.0             ~ -.p   ~     ~     8.f.f.f.f.i         <.7 7 7 7 ",
"7 7 7 7 7 7 7 7 7 Y *     y..     *.~     O..   *.    8.f.f.f.f.p         <.7 7 7 7 ",
"7 7 7 7 7 7 7 7 2.0         O.. =.    Q     a           f.f.f.f.f..   .   <.7 7 7 7 ",
"7 7 7 7 7 7 7 7 &.>   $       *..     ;.    8.            =.f.f.f.f.f.p 4 6.7 7 7 7 ",
"7 7 7 7 7 7 7 n S       y.. *.  ;.                              d.f.f.f.  <.7 7 7 7 ",
"7 7 7 7 7 7 7 2.t         -..     Q           @ r j k k k j > +   =.f.f.i 0 U 7 7 7 ",
"7 7 7 7 7 7 7 %.>       - a o..   p     X r k $.t.7 7 7 7 7 t.R 0 +   e.  x U 0 7 7 ",
"7 7 7 7 7 7 7 L     X.^ !     Q       r m r.7 7 7 7 7 7 7 7 7 0 :.U :     x U 7 7 7 ",
"7 7 7 7 7 7 7 J       -.^         O g @.7 7 7 7 7 7 7 7 7 7 7 7 7 7 T 7 & M U 7 7 7 ",
"7 7 7 7 7 7 7 J       ! ..      5 z R 7 7 7 7 7 7 7 7 7 7 7 7 7 7 7 7 :.w.w.7 7 7 7 ",
"7 7 7 7 7 7 7 J     ; p       O z R 7 7 7 7 7 7 7 7 7 7 7 7 7 7 7 7 7 7 7 7 7 7 7 7 ",
"7 7 7 7 7 7 B C   ..a.#     + z R 7 7 7 7 7 7 7 7 7 7 7 7 7 7 7 7 7 7 7 7 7 7 7 7 7 ",
"7 7 7 7 7 7 2.t     ! ..  O z R 0 7 7 7 7 7 7 7 7 7 7 7 7 7 7 7 7 7 7 7 7 7 7 7 7 7 ",
"7 7 7 7 7 0 1.,   -.      M ) 7 7 7 7 7 7 7 7 7 7 7 7 7 7 7 7 7 7 7 7 7 7 7 7 7 7 7 ",
"7 7 7 7 7 7 2.,   o.    r | 7 7 7 7 7 7 7 7 7 7 7 7 7 7 7 7 7 7 7 7 7 7 7 7 7 7 7 7 ",
"7 7 7 7 7 7 1.3   !   @ +.7 7 7 7 7 7 7 7 7 7 7 7 7 7 7 7 7 7 7 7 7 7 7 7 7 7 7 7 7 ",
"7 7 7 7 7 7 2.3   !   b R 7 7 7 7 7 7 7 7 7 7 7 7 7 7 7 7 7 7 7 7 7 7 7 7 7 7 7 7 7 ",
"7 7 7 7 7 7 1.,   ! q | s 8 7 7 7 7 7 7 7 7 7 7 7 7 7 7 7 7 7 7 7 7 7 7 7 7 7 7 7 7 ",
"7 7 7 7 7 7 3.,   ! v _ 7 7 7 7 7 7 7 7 7 7 7 7 7 7 7 7 7 7 7 7 7 7 7 7 7 7 7 7 7 7 ",
"7 7 7 7 7 7 3.y   ! m R 7 7 7 7 7 7 7 7 7 7 7 7 7 7 7 7 7 7 7 7 7 7 7 7 7 7 7 7 7 7 ",
"7 7 7 7 7 7 7 D   ! } 7 7 7 7 7 7 7 7 7 7 7 7 7 7 7 7 7 7 7 7 7 7 7 7 7 7 7 7 7 7 7 ",
"7 7 7 7 7 7 7 J   ! 7 ` 7 7 7 7 7 7 7 7 7 7 7 7 7 7 7 7 7 7 7 7 7 7 7 7 7 7 7 7 7 7 ",
"7 7 7 7 7 7 F D % !   d 4.I k 7 0 7 7 7 7 7 7 7 7 7 7 7 7 7 7 7 7 7 7 7 7 7 7 7 7 7 ",
"7 7 7 7 7 } D *   !     6 v ] 4.I 7 7 7 7 7 7 7 7 7 7 7 7 7 7 7 7 7 7 7 7 7 7 7 7 7 ",
"7 7 7 F { g       i           6 d ' 7 7 7 7 7 7 7 7 7 7 7 7 7 7 7 7 7 7 7 7 7 7 7 7 ",
"7 7 F J r                         h ( 8 7 7 7 7 7 7 7 7 7 7 7 7 7 7 7 7 7 7 7 7 7 7 ",
"7 G D *           X               u ' 8 7 7 7 7 7 7 7 7 7 7 7 7 7 7 7 7 7 7 7 7 7 7 ",
"7 T *             8 , > , c Z V y , :.0 7 7 7 7 7 7 7 7 7 7 7 7 7 7 7 7 7 7 7 7 7 7 ",
"1.h     & > , c D { q.q.q.I 0 0 0.0.P 7 7 7 7 7 7 7 7 7 7 7 7 7 7 7 7 7 7 7 7 7 7 7 ",
":.3 & r J q.q.T 7 7 7 7 0 7 7 7 7 7 7 7 7 7 7 7 7 7 7 7 7 7 7 7 7 7 7 7 7 7 7 7 7 7 ",
"<.V B 4.7 7 7 7 7 7 7 7 7 7 7 7 7 7 7 7 7 7 7 7 7 7 7 7 7 7 8 8 7 7 7 7 7 7 7 7 7 7 ",
"0 0.R 7 7 7 7 7 7 7 7 7 7 7 7 7 7 7 7 7 7 7 7 7 7 7 7 7 7 7 7 8 7 7 7 7 7 7 7 7 7 7 "
};
