/* XPM */
static char *eel_e3[] = {
/* columns rows colors chars-per-pixel */
"42 42 46 1 ",
"  c black",
". c #030305",
"X c #010709",
"o c #01070A",
"O c #06060A",
"+ c #07070B",
"@ c #07070C",
"# c #010A0E",
"$ c #08080D",
"% c #010B10",
"& c #010E13",
"* c #020F15",
"= c #020F16",
"- c #0A0A10",
"; c #0B0A11",
": c #0F0E17",
"> c #021119",
", c #02131B",
"< c #02151D",
"1 c #081019",
"2 c #0D121C",
"3 c #12111C",
"4 c #021924",
"5 c #021C28",
"6 c #031D2A",
"7 c #031E2C",
"8 c #161522",
"9 c #171523",
"0 c #171624",
"q c #191726",
"w c #1B1929",
"e c #1B192A",
"r c #1E1C2E",
"t c #03202E",
"y c #032332",
"u c #032333",
"i c #032434",
"p c #032637",
"a c #032738",
"s c #032739",
"d c #032B3E",
"f c #222034",
"g c #7A1A18",
"h c #B02523",
"j c #B32624",
"k c #CC2B29",
/* pixels */
"dddddddddddddddddddddddddddddddddddddddddd",
"dddddddddddddddddddddddddddddddddddddddddd",
"dddddddddddddddddddddddddddddddddddddddddd",
"dddddddddddddddddddddddddddddddddddddddddd",
"dddddddddddddddddddddddddddddddddddddddddd",
"dddddddddddddddddddddddddddddddddddddddddd",
"dddddddddddddddddddddddddddddddddddddddddd",
"dddddddddddddddddddddddddddddddddddddddddd",
"dddddddddddddddddddddddddddddddddddddddddd",
"dddddddddddddddddddddddddddddddddddddddddd",
"dddddddddddddddddddddddddddddddddddddddddd",
"dddddddddddddddddddddddddddddddddddddddddd",
"dddddddddddddddddddddddddddddddddddddddddd",
"dddddddddddddddddddddddddddddddddddddddddd",
"dddddddddddddddddddddddddddddddddddddddddd",
"ddddddddddddddddddddddddddd*yddddddddddddd",
"dddddddddd>>   >yddddddddddo5ddddddddddddd",
"dddddddd>         >dddddd>o 5ddddddddddddd",
"dddddd5o            >dddo   7ddddddddddddd",
"ddddd4                >o    pddddddddddddd",
"dddd5                      >dddddddddddddd",
"ddddo                     5ddddddddddddddd",
"ddd>          555555   >5ddu#%uddddddddddd",
"ddd       ,5ddddddddddddddddd8;ddddddddddd",
"dd5     >yddddddddddddddddddd1f5dddddddddd",
"dd>    >dddddddddddd** %*ddddu;#:8888O*udd",
"dd>    ddddddddddd457%    ud*o8$.    @-Odd",
"dd    $ddddddddddddddd5    :-.    kj    dd",
"dd&   f5dddddddddddddd*29+        jg   add",
"dd>   wwydddddddddd4*9ff-.            7ddd",
"dd>   Ofwyddddddd*2rf3.              <dddd",
"ddd    qfw1&&**2qff-                tddddd",
"ddd>    $fffffff3-                7ddddddd",
"dddd%     O-$--               <taddddddddd",
"ddddd&                   77taddddddddddddd",
"dddddd&               tadddddddddddddddddd",
"dddddddi&          <7ddddddddddddddddddddd",
"ddddddddddtt&  <ttdddddddddddddddddddddddd",
"dddddddddddddddddddddddddddddddddddddddddd",
"dddddddddddddddddddddddddddddddddddddddddd",
"dddddddddddddddddddddddddddddddddddddddddd",
"dddddddddddddddddddddddddddddddddddddddddd"
};
