/* XPM */
static char *eel_w1[] = {
/* columns rows colors chars-per-pixel */
"42 42 49 1 ",
"  c black",
". c #020203",
"X c #020204",
"o c #010507",
"O c #040407",
"+ c #01070A",
"@ c #060509",
"# c #07070B",
"$ c #08070C",
"% c #01080B",
"& c #01090D",
"* c #09080E",
"= c #140404",
"- c #010B10",
"; c #010D13",
": c #020F16",
"> c #0B0A11",
", c #0E0D16",
"< c #0F0E17",
"1 c #100F19",
"2 c #021016",
"3 c #021119",
"4 c #061018",
"5 c #02161F",
"6 c #11101B",
"7 c #10131F",
"8 c #2A0908",
"9 c #340B0A",
"0 c #021721",
"q c #021822",
"w c #041823",
"e c #021C28",
"r c #021D29",
"t c #031F2D",
"y c #161522",
"u c #181725",
"i c #191827",
"p c #1C1A2A",
"a c #03202D",
"s c #032231",
"d c #032332",
"f c #032535",
"g c #032739",
"h c #032839",
"j c #03293B",
"k c #032B3E",
"l c #222034",
"z c #6D1716",
"x c #E4312E",
/* pixels */
"kkkkkkkkkkkkkkkkkkkkkkkkkkkkkkkkkkkkkkkkkk",
"kkkkkkkkkkkkkkkkkkkkkkkkkkkkkkkkkkkkkkkkkk",
"kkkkkkkkkkkkkkkkkkkkkkkksaa   sakkkkkkkkkk",
"kkkkkkkkkkkkkkkkkkkkksa           akkkkkkk",
"kkkkkkkkkkkkkkkkkkka&               hkkkkk",
"kkkkkkkkkkkkkkttt&                   hkkkk",
"kkkkkkkkkktt               @>*>*      kkkk",
"kkkkkkks&               #>lllllll<X    kkk",
"kkkkks&               *iliy:;:;:ull    skk",
"kkkks               >lly:fkkkkkkk7l,    kk",
"kkkk             >pli42kkkkkkkkkkk7lX   kk",
"kkk&  9x=        yy2fkkkkkkkkkkkkkki*   kk",
"kk;   zx8    Xi    kkkkkkkkkkkkkkkk;O   sk",
"kk;,>     >1@:fko   kkkkkkkkkkkkkkk&    kk",
"kkk:oyyyyy-$wkkkk0o 5rrskkkkkkkkkka     kk",
"kkkkkkkkkkku6hkkkk0222kkkkkkkkkkkr     :kk",
"kkkkkkkkkkku$kkkkkkkkkkkkkkkkkar       skk",
"kkkkkkkkkkkw+5hkkkkrrrgkkkkka+         kkk",
"kkkkkkkkkkkkkkka%                     fkkk",
"kkkkkkkkkkkkkka                      ;kkkk",
"kkkkkkkkkkkkkk%                     ;kkkkk",
"kkkkkkkkkkkkkk    fkqo             3kkkkkk",
"kkkkkkkkkkkkkk  3fkkkkqo         :fkkkkkkk",
"kkkkkkkkkkkkkk fkkkkkkkkq3    :3fkkkkkkkkk",
"kkkkkkkkkkkkkk+kkkkkkkkkkkkq3fkkkkkkkkkkkk",
"kkkkkkkkkkkkkkkkkkkkkkkkkkkkkkkkkkkkkkkkkk",
"kkkkkkkkkkkkkkkkkkkkkkkkkkkkkkkkkkkkkkkkkk",
"kkkkkkkkkkkkkkkkkkkkkkkkkkkkkkkkkkkkkkkkkk",
"kkkkkkkkkkkkkkkkkkkkkkkkkkkkkkkkkkkkkkkkkk",
"kkkkkkkkkkkkkkkkkkkkkkkkkkkkkkkkkkkkkkkkkk",
"kkkkkkkkkkkkkkkkkkkkkkkkkkkkkkkkkkkkkkkkkk",
"kkkkkkkkkkkkkkkkkkkkkkkkkkkkkkkkkkkkkkkkkk",
"kkkkkkkkkkkkkkkkkkkkkkkkkkkkkkkkkkkkkkkkkk",
"kkkkkkkkkkkkkkkkkkkkkkkkkkkkkkkkkkkkkkkkkk",
"kkkkkkkkkkkkkkkkkkkkkkkkkkkkkkkkkkkkkkkkkk",
"kkkkkkkkkkkkkkkkkkkkkkkkkkkkkkkkkkkkkkkkkk",
"kkkkkkkkkkkkkkkkkkkkkkkkkkkkkkkkkkkkkkkkkk",
"kkkkkkkkkkkkkkkkkkkkkkkkkkkkkkkkkkkkkkkkkk",
"kkkkkkkkkkkkkkkkkkkkkkkkkkkkkkkkkkkkkkkkkk",
"kkkkkkkkkkkkkkkkkkkkkkkkkkkkkkkkkkkkkkkkkk",
"kkkkkkkkkkkkkkkkkkkkkkkkkkkkkkkkkkkkkkkkkk",
"kkkkkkkkkkkkkkkkkkkkkkkkkkkkkkkkkkkkkkkkkk"
};
