/* XPM */
static char *eel_n2[] = {
/* columns rows colors chars-per-pixel */
"42 42 94 2 ",
"   c #000000",
".  c #07070B",
"X  c #08070C",
"o  c #030A0D",
"O  c #010D12",
"+  c #0C0C14",
"@  c #0F0E18",
"#  c #071013",
"$  c #091317",
"%  c #0C151C",
"&  c #0E191E",
"*  c #13121D",
"=  c #0E1C22",
"-  c #141723",
";  c #131E22",
":  c #191827",
">  c #1B1929",
",  c #1F1D30",
"<  c #0E232C",
"1  c #162125",
"2  c #182227",
"3  c #10242D",
"4  c #1B262B",
"5  c #032230",
"6  c #0E2630",
"7  c #032B3E",
"8  c #0E2D3D",
"9  c #122933",
"0  c #122E3D",
"q  c #1E2F38",
"w  c #11303E",
"e  c #1A323E",
"r  c #222034",
"t  c #23333C",
"y  c #0A2F41",
"u  c #0D3142",
"i  c #143545",
"p  c #193746",
"a  c #193847",
"s  c #103648",
"d  c #16394A",
"f  c #1C3B4A",
"g  c #25414F",
"h  c #244454",
"j  c #294756",
"k  c #2A4957",
"l  c #27495A",
"z  c #2C4B5A",
"x  c #324F5C",
"c  c #35515F",
"v  c #365564",
"b  c #385766",
"n  c #395867",
"m  c #3D5C6A",
"M  c #415E6C",
"N  c #43606E",
"B  c #4B646F",
"V  c #466371",
"C  c #526B77",
"Z  c #516C79",
"A  c #5E727C",
"S  c #831C1A",
"D  c #941F1D",
"F  c #C62A28",
"G  c #CB2B29",
"H  c #5C7581",
"J  c #617680",
"K  c #637A84",
"L  c #667F8A",
"P  c #6C828D",
"I  c #71858E",
"U  c #6F8691",
"Y  c #778A93",
"T  c #7A8C94",
"R  c #798E98",
"E  c #7D919A",
"W  c #83959D",
"Q  c #8697A0",
"!  c #8699A1",
"~  c #8B9CA4",
"^  c #8FA0A8",
"/  c #94A4AC",
"(  c #98A7AE",
")  c #A3AEB3",
"_  c #A8B2B7",
"`  c #ACB6BA",
"'  c #AFB8BC",
"]  c #B1BABE",
"[  c #B5BDC1",
"{  c #BAC2C6",
"}  c #BCC6CB",
"|  c #BEC9CE",
" . c #C3CDD2",
".. c #DBE1E3",
/* pixels */
"7 7 7 7 7 7 7 7 7 7 7 7 7 7 7 7 7 7 7 7 7 7 7 7 7 7 7 7 7 7 7 7 7 7 7 7 7 7 7 7 7 7 ",
"7 7 7 7 7 7 7 7 7 7 7 7 7 7 7 7 7 7 7 7 7 7 7 7 7 I A J E 7 7 7 7 7 7 7 7 7 7 7 7 7 ",
"7 7 7 7 7 7 7 7 7 7 7 7 7 7 7 7 7 7 7 7 7 7 7 7  .e +   u E h 7 7 7 7 7 7 7 7 7 7 7 ",
"7 7 7 7 7 7 7 7 7 7 7 7 7 7 7 7 7 7 7 7 7 7 7 7 P & .     q M h 7 7 7 7 7 7 7 7 7 7 ",
"7 7 7 7 7 7 7 7 7 7 7 7 7 7 7 7 7 7 7 7 7 7 7 7 k +         = B h 7 7 7 7 7 7 7 7 7 ",
"7 7 7 7 7 7 7 7 7 7 7 7 7 7 7 7 7 7 7 7 7 7 7 7 j >           w W 7 7 7 7 7 7 7 7 7 ",
"7 7 7 7 7 7 7 7 7 7 7 7 7 7 7 7 7 7 7 7 7 7 7 7 j :   G D       M j 7 7 7 7 7 7 7 7 ",
"7 7 7 7 7 7 7 7 7 7 7 7 7 7 7 7 7 7 7 7 7 7 7 7 j :   F S       w W 7 7 7 7 7 7 7 7 ",
"7 7 7 7 7 7 7 7 7 7 7 7 7 7 7 7 7 7 7 7 7 7 7 7 h :               ] 7 7 7 7 7 7 7 7 ",
"7 7 7 7 7 7 7 7 7 7 7 7 7 7 7 7 7 7 7 7 7 7 7 P h + .             s b 7 7 7 7 7 7 7 ",
"7 7 7 7 7 7 7 7 7 7 7 7 7 7 7 7 7 7 7 7 7 7 P i 3   .             i n 7 7 7 7 7 7 7 ",
"7 7 7 7 7 7 7 7 7 7 7 7 7 7 7 7 7 7 7 7 7  .e * r . :             & { 7 7 7 7 7 7 7 ",
"7 7 7 7 7 7 7 7 7 7 7 7 7 7 7 7 7 7 7 7 7 x o + 3 8 O               ' 7 7 7 7 7 7 7 ",
"7 7 7 7 7 7 7 7 7 7 7 7 7 7 U / / / ( k 7 j < B W ..2 -             s b 7 7 7 7 7 7 ",
"7 7 7 7 7 7 7 7 7 7 7 7 7 U s t q q t x Q d i M 7 Z i X             i b 7 7 7 7 7 7 ",
"7 7 7 7 7 7 7 7 7 7 7 7 7 } g 9         u Q L 7 7 L 9               a n 7 7 7 7 7 7 ",
"7 7 7 7 7 7 7 7 7 7 7 7 7 7 K W 0         i M 7 Y u     @ .         8 ~ 7 7 7 7 7 7 ",
"7 7 7 7 7 7 7 7 7 7 7 7 7 7 7 7 z         % ' y | 1     : .           ] 7 7 7 7 7 7 ",
"7 7 7 7 7 7 7 7 7 7 7 7 7 7 7 7 W 0         v k x o     O r           i b 7 7 7 7 7 ",
"7 7 7 7 7 7 7 7 7 7 7 7 7 7 7 7 7 W 0       a m l     5 o r .         8 ~ 7 7 7 7 7 ",
"7 7 7 7 7 7 7 7 7 7 7 7 7 7 7 7 7 R y       a M W & 3 A d > :           v h 7 7 7 7 ",
"7 7 7 7 7 7 7 7 7 7 7 7 7 7 7 7 7 K &       p M  .2 p M ! & r           w / 7 7 7 7 ",
"7 7 7 7 7 7 7 7 7 7 7 7 7 7 7 7 R u         u M V a 0 ~  .i > X         O { 7 7 7 7 ",
"7 7 7 7 7 7 7 7 7 7 7 7 7 7 7 7 K &         _ 7 y ! h [ 7 z & r           c l 7 7 7 ",
"7 7 7 7 7 7 7 7 7 7 7 7 7 7 7 E u           _ 7 7 7 H d y | 2 , .         a v 7 7 7 ",
"7 7 7 7 7 7 7 7 7 7 7 7 7 7 7 } 4           ) 7 7 7 7 7 7 V s > :         i v 7 7 7 ",
"7 7 7 7 7 7 7 7 7 7 7 7 7 7 7 H &           i M 7 7 7 7 7 7 z & r         % { 7 7 7 ",
"7 7 7 7 7 7 7 7 7 7 7 7 7 7 7 z             8 / 7 7 7 7 7 y  .; r .         [ 7 7 7 ",
"7 7 7 7 7 7 7 7 7 7 7 7 7 7 7 k               _ 7 7 7 7 7 7  .; r .         [ 7 7 7 ",
"7 7 7 7 7 7 7 7 7 7 7 7 7 7 7 x               z l 7 7 7 7 7  .; r X       < } 7 7 7 ",
"7 7 7 7 7 7 7 7 7 7 7 7 7 7 7 ~ ;             i m y 7 7 7 7  .; r X       i v 7 7 7 ",
"7 7 7 7 7 7 7 7 7 7 7 7 7 7 7 } 4             $ ` 7 7 7 7 y j > r         f b 7 7 7 ",
"7 7 7 7 7 7 7 7 7 7 7 7 7 7 7 n f               i m 7 7 y C 9 > r         I s 7 7 7 ",
"7 7 7 7 7 7 7 7 7 7 7 7 7 7 7 7 ^ ;             $ j z ~ C 9 r r X       < } 7 7 7 7 ",
"7 7 7 7 7 7 7 7 7 7 7 7 7 7 7 7 b g #             % f u ; > r +         y b 7 7 7 7 ",
"7 7 7 7 7 7 7 7 7 7 7 7 7 7 7 7 7 } i                 * r *           9 { 7 7 7 7 7 ",
"7 7 7 7 7 7 7 7 7 7 7 7 7 7 7 7 7 7 ~ 8                             9 T s 7 7 7 7 7 ",
"7 7 7 7 7 7 7 7 7 7 7 7 7 7 7 7 7 7 7 / a #                       9 T s 7 7 7 7 7 7 ",
"7 7 7 7 7 7 7 7 7 7 7 7 7 7 7 7 7 7 7 7 V h 8                   i T s 7 7 7 7 7 7 7 ",
"7 7 7 7 7 7 7 7 7 7 7 7 7 7 7 7 7 7 7 7 7 v / ) a a 8   6 p f Y H s 7 7 7 7 7 7 7 7 ",
"7 7 7 7 7 7 7 7 7 7 7 7 7 7 7 7 7 7 7 7 7 7 7 7 N N / _ [ N N s 7 7 7 7 7 7 7 7 7 7 ",
"7 7 7 7 7 7 7 7 7 7 7 7 7 7 7 7 7 7 7 7 7 7 7 7 7 7 7 7 7 7 7 7 7 7 7 7 7 7 7 7 7 7 "
};
