/* XPM */
static char *eel_e1[] = {
/* columns rows colors chars-per-pixel */
"42 42 48 1 ",
"  c black",
". c #030305",
"X c #010507",
"o c #010709",
"O c #07060B",
"+ c #010A0E",
"@ c #09090E",
"# c #160404",
"$ c #010B10",
"% c #010C11",
"& c #020F15",
"* c #0A0910",
"= c #0B0A11",
"- c #0D0C13",
"; c #0E0D15",
": c #0F0E17",
"> c #021119",
", c #02131B",
"< c #061018",
"1 c #02151E",
"2 c #091119",
"3 c #09111A",
"4 c #0E131D",
"5 c #12111C",
"6 c #14131F",
"7 c #310A09",
"8 c #031924",
"9 c #021A25",
"0 c #021B27",
"q c #021C29",
"w c #021D2A",
"e c #161522",
"r c #171624",
"t c #181726",
"y c #1A1928",
"u c #1E1C2E",
"i c #03202D",
"p c #03202E",
"a c #032231",
"s c #032232",
"d c #032636",
"f c #032637",
"g c #032739",
"h c #032839",
"j c #032B3E",
"k c #222034",
"l c #681615",
"z c #E4312E",
/* pixels */
"jjjjjjjjjjjjjjjjjjjjjjjjjjjjjjjjjjjjjjjjjj",
"jjjjjjjjjjjjjjjjjjjjjjjjjjjjjjjjjjjjjjjjjj",
"jjjjjjjjjjjjjjjjjjjjjjjjjjjjjjjjjjjjjjjjjj",
"jjjjjjjjjjjjjjjjjjjjjjjjjjjjjjjjjjjjjjjjjj",
"jjjjjjjjjjjjjjjjjjjjjjjjjjjjjjjjjjjjjjjjjj",
"jjjjjjjjjjjjjjjjjjjjjjjjjjjjjjjjjjjjjjjjjj",
"jjjjjjjjjjjjjjjjjjjjjjjjjjjjjjjjjjjjjjjjjj",
"jjjjjjjjjjjjjjjjjjjjjjjjjjjjjjjjjjjjjjjjjj",
"jjjjjjjjjjjjjjjjjjjjjjjjjjjjjjjjjjjjjjjjjj",
"jjjjjjjjjjjjjjjjjjjjjjjjjjjjjjjjjjjjjjjjjj",
"jjjjjjjjjjjjjjjjjjjjjjjjjjjjjjjjjjjjjjjjjj",
"jjjjjjjjjjjjjjjjjjjjjjjjjjjjjjjjjjjjjjjjjj",
"jjjjjjjjjjjjjjjjjjjjjjjjjjjjjjjjjjjjjjjjjj",
"jjjjjjjjjjjjjjjjjjjjjjjjjjjjjjjjjjjjjjjjjj",
"jjjjjjjjjjjjjjjjjjjjjjjjjjjjjjjjjjjjjjjjjj",
"jjjjjjjjjjjjjjjjjjjjjjjjjjjjjjjjjjjjjjjjjj",
"jjjjjjjjjjjjq>ajjjjjjjjjjjj%jjjjjjjjjjjjjj",
"jjjjjjjjj9>o    >ajjjjjjjj9 jjjjjjjjjjjjjj",
"jjjjjjjqo         $ajjjj9>  jjjjjjjjjjjjjj",
"jjjjjj>             $aj9    jjjjjjjjjjjjjj",
"jjjjjo                     >jjjjjjjjjjjjjj",
"jjjjo                      djjjjjjjjjjjjjj",
"jjj9                     ,djjjjjjjjjjjjjjj",
"jjj         >djjjjjaqqqjjjja+%ajjjjjjjjjjj",
"jj>       qdjjjjjjjjjjjjjjjjjr=jjjjjjjjjjj",
"jjo     qjjjjjjjjjjj&&&ajjjjay=jjjjjjjjjjj",
"jj     gjjjjjjjjjj9qq$ +ajjjj&.oeeeee$&jjj",
"jj    qjjjjjjjjjjjjjjj   +j9&:O=     =5qjj",
"j>   :qjjjjjjjjjjjjjjjj    uO    lz7   pjj",
"ja   6-jjjjjjjjjjjjjj8&tr        7z#  ,jjj",
"jj   Ok2jjjjjjjjjjj&4uk5=             jjjj",
"jj    rk2jjjjjjj9&rkk=               hjjjj",
"jj>   Okke&%&$&ruk5.               8hjjjjj",
"jjj    Otkkkkkkk=.               ,gjjjjjjj",
"jjjd      @@@@.               aqjjjjjjjjjj",
"jjjjd                   ,pppjjjjjjjjjjjjjj",
"jjjjjd               ,pjjjjjjjjjjjjjjjjjjj",
"jjjjjjjp           phjjjjjjjjjjjjjjjjjjjjj",
"jjjjjjjjjdaq   pagjjjjjjjjjjjjjjjjjjjjjjjj",
"jjjjjjjjjjjjjjjjjjjjjjjjjjjjjjjjjjjjjjjjjj",
"jjjjjjjjjjjjjjjjjjjjjjjjjjjjjjjjjjjjjjjjjj",
"jjjjjjjjjjjjjjjjjjjjjjjjjjjjjjjjjjjjjjjjjj"
};
