/* XPM */
static char *eel_s1[] = {
/* columns rows colors chars-per-pixel */
"42 42 50 1 ",
"  c black",
". c #010709",
"X c #050508",
"o c #01080B",
"O c #01080C",
"+ c #01090D",
"@ c #09090E",
"# c #010C11",
"$ c #010C12",
"% c #010E14",
"& c #0B0A10",
"* c #0C0B13",
"= c #0C0C13",
"- c #0D0C14",
"; c #100F19",
": c #021017",
"> c #021119",
", c #02131B",
"< c #02131C",
"1 c #02151D",
"2 c #06151F",
"3 c #081019",
"4 c #11101A",
"5 c #14121E",
"6 c #260807",
"7 c #2D0909",
"8 c #051620",
"9 c #021823",
"0 c #021A26",
"q c #031C28",
"w c #031E2A",
"e c #141320",
"r c #151420",
"t c #151421",
"y c #191726",
"u c #1B1929",
"i c #1D1B2C",
"p c #03202E",
"a c #03202F",
"s c #032333",
"d c #032433",
"f c #032434",
"g c #032535",
"h c #032738",
"j c #032739",
"k c #032B3E",
"l c #222034",
"z c #410D0D",
"x c #4D100F",
"c c #E4312E",
/* pixels */
"kkkkkkkkkkkkkkkkkkkkkkkkkkkkkkkkkkkkkkkkkk",
"kkkkkkkkkfaa 1aakkkkkkkkkkkkkkkkkkkkkkkkkk",
"kkkkkkkf$        1hkkkkkkkkkkkkkkkkkkkkkkk",
"kkkkkkf            akkkkkkkkkkkkkkkkkkkkkk",
"kkkkkf              1kkkkkkkkkkkkkkkkkkkkk",
"kkkkf     @lu        1kkkkkkkkkkkkkkkkkkkk",
"kkkk$   Xll3sk9       hkkkkkkkkkkkkkkkkkkk",
"kkkd    ll3kkkk0       kkkkkkkkkkkkkkkkkkk",
"kkk>   rl3kkkkkk.      qkkkkkkkkkkkkkkkkkk",
"kkk    yuakkkkkk9       kkkkkkkkkkkkkkkkkk",
"kkk    l=kkkkkkkk       kkkkkkkkkkkkkkkkkk",
"kks    l=kkkkkkkk:      qkkkkkkkkkkkkkkkkk",
"kk>    l=kkkkkkkkk       kkkkkkkkkkkkkkkkk",
"kk>    l=kkkkkkkkk:      kkkkkkkkkkkkkkkkk",
"kk0    r5fkkkkkkkk:     qkkkkkkkkkkkkkkkkk",
"kkk    -lqkkkkkkkk:     fkkkkkkkkkkkkkkkkk",
"kkk     l=kkkkkkkk:     kkkkkkkkkkkkkkkkkk",
"kkk>    erhkkkkkkk:    akkkkkkkkkkkkkkkkkk",
"kkkq     l8kkk0fkk:    kkkkkkkkkkkkkkkkkkk",
"kkkk     e-kkkk1kk    qkkkkkkkkkkkkkkkkkkk",
"kkkk>    -lqkkk kk    kkkkkkkkkkkkkkkkkkkk",
"kkkkk     i-kq$ kk   qkkkkkkkkkkkkkkkkkkkk",
"kkkkko    5eq$  kko  qkkkkkkkkkkkkkkkkkkkk",
"kkkkk>     l   kkk:   fkkkkkkkkkkkkkkkkkkk",
"kkkkkk     r  qkkk:    kkkkkkkkkkkkkkkkkkk",
"kkkkkk       $kkkkk    hkkkkkkkkkkkkkkkkkk",
"kkkkkk      @qkkkkkq    0fkkkkkkkkkkkkkkkk",
"kkkkkk+     *Xkkkkqkk1>1>kkkkkkkkkkkkkkkkk",
"kkkkkk:      Xf02+qkkkkkkkkkkkkkkkkkkkkkkk",
"kkkkkkq      r ll=kkkkkkkkkkkkkkkkkkkkkkkk",
"kkkkkkk       X<<dkkkkkkkkkkkkkkkkkkkkkkkk",
"kkkkkkk+      ;qkkkkkkkkkkkkkkkkkkkkkkkkkk",
"kkkkkkk:      rqkkkkkkkkkkkkkkkkkkkkkkkkkk",
"kkkkkkkk   zc6rqkkkkkkkkkkkkkkkkkkkkkkkkkk",
"kkkkkkkk>  xc7rqkkkkkkkkkkkkkkkkkkkkkkkkkk",
"kkkkkkkkk     rqkkkkkkkkkkkkkkkkkkkkkkkkkk",
"kkkkkkkkkq    4qkkkkkkkkkkkkkkkkkkkkkkkkkk",
"kkkkkkkkkkq+  *kkkkkkkkkkkkkkkkkkkkkkkkkkk",
"kkkkkkkkkkkk+&%kkkkkkkkkkkkkkkkkkkkkkkkkkk",
"kkkkkkkkkkkkkkkkkkkkkkkkkkkkkkkkkkkkkkkkkk",
"kkkkkkkkkkkkkkkkkkkkkkkkkkkkkkkkkkkkkkkkkk",
"kkkkkkkkkkkkkkkkkkkkkkkkkkkkkkkkkkkkkkkkkk"
};
