/* XPM */
static char *eel_n1[] = {
/* columns rows colors chars-per-pixel */
"42 42 50 1 ",
"  c black",
". c #030204",
"X c #040306",
"o c #010506",
"O c #040406",
"+ c #010508",
"@ c #07060B",
"# c #07070B",
"$ c #07070C",
"% c #010B0F",
"& c #09090E",
"* c #170404",
"= c #1C0605",
"- c #010B10",
"; c #010C11",
": c #010E15",
"> c #0B0A11",
", c #0F0E17",
"< c #100F19",
"1 c #021017",
"2 c #021118",
"3 c #02131B",
"4 c #02141C",
"5 c #091019",
"6 c #12111B",
"7 c #14131F",
"8 c #021720",
"9 c #031925",
"0 c #031E2B",
"q c #031F2D",
"w c #111320",
"e c #111420",
"r c #181624",
"t c #1A1827",
"y c #1A1828",
"u c #1D1B2C",
"i c #1F1D30",
"p c #03202E",
"a c #032130",
"s c #032332",
"d c #032434",
"f c #032535",
"g c #032637",
"h c #032839",
"j c #03293B",
"k c #032B3E",
"l c #222034",
"z c #4E100F",
"x c #5F1413",
"c c #E4312E",
/* pixels */
"kkkkkkkkkkkkkkkkkkkkkkkkkkkkkkkkkkkkkkkkkk",
"kkkkkkkkkkkkkkkkkkkkkkkkkkkkkkkkkkkkkkkkkk",
"kkkkkkkkkkkkkkkkkkkkkkkkkkk+X2kkkkkkkkkkkk",
"kkkkkkkkkkkkkkkkkkkkkkkkkkkt  1gkkkkkkkkkk",
"kkkkkkkkkkkkkkkkkkkkkkkkkk%<    gkkkkkkkkk",
"kkkkkkkkkkkkkkkkkkkkkkkkkk%$     kkkkkkkkk",
"kkkkkkkkkkkkkkkkkkkkkkkkkk%$xc=  akkkkkkkk",
"kkkkkkkkkkkkkkkkkkkkkkkkkk%$zc*   kkkkkkkk",
"kkkkkkkkkkkkkkkkkkkkkkkkkk%$      akkkkkkk",
"kkkkkkkkkkkkkkkkkkkkkkkkkk;6      1kkkkkkk",
"kkkkkkkkkkkkkkkkkkkkkkkk924>       kkkkkkk",
"kkkkkkkkkkkkkkkkkkkkkkkktll $      hkkkkkk",
"kkkkkkkkkkkkkkkkkkkkkkk-4590,      akkkkkk",
"kkkkkkkkkkkkkkkkk2222kk;kkkk,O     :kkkkkk",
"kkkkkkkkkkkkkkkkp9    gkkkkk-.      kkkkkk",
"kkkkkkkkkkkkkkkkkka    kkkkko       kkkkkk",
"kkkkkkkkkkkkkkkkkkk    akkk;  7     kkkkkk",
"kkkkkkkkkkkkkkkkkkkp   pkkk   l     akkkkk",
"kkkkkkkkkkkkkkkkkkkk;  ;kk  40u#    :kkkkk",
"kkkkkkkkkkkkkkkkkkkk;   kk 4hkyr     kkkkk",
"kkkkkkkkkkkkkkkkkkkk    kk kkk%lO    akkkk",
"kkkkkkkkkkkkkkkkkkk-    kk+kkkkr$     kkkk",
"kkkkkkkkkkkkkkkkkkk    akkpgkkk5l     hkkk",
"kkkkkkkkkkkkkkkkkk;    pkkkkkkkau$    akkk",
"kkkkkkkkkkkkkkkkkk     pkkkkkkkkyl     kkk",
"kkkkkkkkkkkkkkkkk8     akkkkkkkk%lO    kkk",
"kkkkkkkkkkkkkkkkk;     pkkkkkkkkau#    gkk",
"kkkkkkkkkkkkkkkkk      akkkkkkkkkyl    akk",
"kkkkkkkkkkkkkkkkk       kkkkkkkkkyl    akk",
"kkkkkkkkkkkkkkkkk;      akkkkkkkkyl    hkk",
"kkkkkkkkkkkkkkkkkk       kkkkkkkkyl    kkk",
"kkkkkkkkkkkkkkkkkk       gkkkkkk8i<    kkk",
"kkkkkkkkkkkkkkkkkk;      %kkkkkkwl#   akkk",
"kkkkkkkkkkkkkkkkkkk       gkkkkell    kkkk",
"kkkkkkkkkkkkkkkkkkkp       gk4ell    9kkkk",
"kkkkkkkkkkkkkkkkkkkk%        ll&     kkkkk",
"kkkkkkkkkkkkkkkkkkkkk%              hkkkkk",
"kkkkkkkkkkkkkkkkkkkkkkp            kkkkkkk",
"kkkkkkkkkkkkkkkkkkkkkkkg%        9hkkkkkkk",
"kkkkkkkkkkkkkkkkkkkkkkkkkkpp% ppkkkkkkkkkk",
"kkkkkkkkkkkkkkkkkkkkkkkkkkkkkkkkkkkkkkkkkk",
"kkkkkkkkkkkkkkkkkkkkkkkkkkkkkkkkkkkkkkkkkk"
};
