/* XPM */
static char *exit3[] = {
/* columns rows colors chars-per-pixel */
"42 42 43 1 ",
"  c #032B3E",
". c #053044",
"X c #053045",
"o c #053246",
"O c #063347",
"+ c #063348",
"@ c #07354A",
"# c #07354B",
"$ c #07374C",
"% c #08374D",
"& c #08394F",
"* c #093950",
"= c #093C53",
"- c #0A3D54",
"; c #0B3F56",
": c #0B4058",
"> c #0C425B",
", c #0C435C",
"< c #0D445C",
"1 c #0E465F",
"2 c #0E4760",
"3 c #0F4964",
"4 c #0F4A65",
"5 c #104B66",
"6 c #104C66",
"7 c #104D68",
"8 c #114D68",
"9 c #12506C",
"0 c #13526F",
"q c #135470",
"w c #145572",
"e c #145673",
"r c #145674",
"t c #155775",
"y c #155876",
"u c #165B7A",
"i c #175C7B",
"p c #175D7B",
"a c #175E7D",
"s c #185F7F",
"d c #196282",
"f c #1A6485",
"g c #1D6B8D",
/* pixels */
"                                          ",
"                  q5@                     ",
"           4ggg5555-dq#                   ",
"         5ggggggggggggg@                  ",
"        dggggggggggggggt                  ",
"       :ggggggggggggggggg#                ",
"      :ggggggggggggggggggy                ",
"   88 sg2  -ggggggggggggggt               ",
" :ggggg@   :ggg2ggggggggggg@              ",
" 22iggg%  qgg2@  1sggggggggg#             ",
"    2gg,           =agggggggg%            ",
"      i,             =agggggggy           ",
"       @                1122 2@           ",
"                                          ",
"                                  9       ",
"                               ,9dg@      ",
"                             1dggg=       ",
"                            ,g8>1gg@      ",
"                              .  sgg%     ",
"                                 &ggg#    ",
"                                  sggu    ",
"                                  =ggg-   ",
"     ,i                            gggg   ",
"     0g&                           gggg=  ",
"     0gi                           ggggg  ",
"     gggs                          ggggg% ",
"    ,ggggu       1&                ggggg- ",
"    0gggggsq0ww  uga#              gggggg ",
"    0ggggggggg-o  uggaw.           gggggg ",
"     gggggggg . 2dg8-;:-o       & tggggggg",
"     gggggggguwdgg8o           wg wggggggg",
"     ygggggggggggg.            wg&gggggggo",
"     @ggggggggggg,             tggggggggg ",
"      gggggggggg8              %gggggggg4 ",
"      %ggggggggg                uggggggg- ",
"       ygggggggo                fggggggg  ",
"        ugggggo                tggggggg.  ",
"         tgg8o               4gggggggg4   ",
"         0go                 @ggggggg=    ",
"         08                    ugg5=.     ",
"         0;                               ",
"          .                               "
};
