/* XPM */
static char *exit1[] = {
/* columns rows colors chars-per-pixel */
"42 42 36 1 ",
"  c #032B3E",
". c #053044",
"X c #063347",
"o c #063348",
"O c #07354A",
"+ c #07374C",
"@ c #07374D",
"# c #08394F",
"$ c #093A50",
"% c #093B51",
"& c #0B3E56",
"* c #0B3F57",
"= c #0B4058",
"- c #0B4159",
"; c #0C425B",
": c #0C435B",
"> c #0C435C",
", c #0D445D",
"< c #0F4862",
"1 c #104B66",
"2 c #104C67",
"3 c #12506C",
"4 c #12516E",
"5 c #13526E",
"6 c #135470",
"7 c #135471",
"8 c #155775",
"9 c #155876",
"0 c #165A78",
"q c #165B79",
"w c #175D7B",
"e c #175D7C",
"r c #185F7E",
"t c #196180",
"y c #1A6485",
"u c #1D6B8D",
/* pixels */
"                                          ",
"         .                      6         ",
"        22<                     u         ",
"     *uuuuu9+                  6u         ",
"    ruuuuuuuu                .<uu         ",
"   4uuuuuuu6O               =uuuu6        ",
"  *uuuuuuu>                ;uuuuuu8       ",
"  ruuuuuuu                ;uuuuuuuu*      ",
"  uuuuuuuu,               tuuuuuuuuuO     ",
" 4uuuuuuuuu             .euuuuuuuuuu*     ",
" 4uuuuuu6uu             *uuuuuuuuuuuu     ",
"=uuuuuuuO4u             uuuuuuuuuuuuu*    ",
"4uuuuuuu %6            tuu,  euuuuuuu*    ",
"%quuuuu5          ,euuuu,   ,tuuuuuuu8    ",
" 4uuuuu;             ,uuq  euuuuuuuuuu    ",
" %uuuuu;               ,uX     .ruuuuu    ",
"  uuuuu>                         euuu*    ",
"  3uuuu>                          ruu.    ",
"  #uuuu;                           uu     ",
"  .quuu,                           8u     ",
"   #uuu=                            .     ",
"    9uuu                                  ",
"     uuu=                                 ",
"    .#uuu                                 ",
"      #uu;. 3%                            ",
"       #uuuuu*o                           ",
"       ;uuu*                              ",
"       82 .                               ",
"                                          ",
"               .                          ",
"           ,uqyuuue6               e      ",
"            *uuuuuuuu8             ue#    ",
"             #uuuuuuuuu8     <76   uuue   ",
"              ouuuuuuuuuue%<uuu*   8uuuuu.",
"              X3uuuuuuuuuuuuuu*.  <u<qu<. ",
"                9uuuuuuuuuuuuuu98yuu  .   ",
"                 uuuuuuuuuuuuuuuuuu.      ",
"                 +quuuuuuuuuuuuuuu*       ",
"                   uuuuuuuuuuuuuu<        ",
"                   +uu%9uuuuuuu<..        ",
"                     #uq   O%#.           ",
"                       +    .             "
};
