/* XPM */
static char *fish1[] = {
/* columns rows colors chars-per-pixel */
"42 42 38 1 ",
"  c #032B3E",
". c #0B2B3E",
"X c #0C2B3E",
"o c #132B3D",
"O c #152B3D",
"+ c #1A2B3D",
"@ c #552D39",
"# c #682D37",
"$ c #612D38",
"% c #712D37",
"& c #732D37",
"* c #7B2E36",
"= c #7D2E36",
"- c #872E35",
"; c #882E35",
": c #8F2E35",
"> c #BB2F31",
", c #BE2F31",
"< c #D6302F",
"1 c #CE3030",
"2 c #D23030",
"3 c #D43030",
"4 c #E4312E",
"5 c #E53F3D",
"6 c #E6413E",
"7 c #E84F4D",
"8 c #EE7F7D",
"9 c #F08F8E",
"0 c #F0908E",
"q c #F09290",
"w c #F29D9C",
"e c #F2A1A0",
"r c #F4ACAA",
"t c #FADEDE",
"y c #FAE0DF",
"u c #FBE2E2",
"i c #FDF0F0",
"p c white",
/* pixels */
"                                          ",
"                                          ",
"                                          ",
"                                          ",
"                                          ",
"                                          ",
"                                          ",
"                                          ",
"                                          ",
"                                          ",
"                                          ",
"                                          ",
"                                          ",
"                      OOO                 ",
"                    X4444%                ",
"                   X444444%.              ",
"                  o44444444<              ",
"                 ;44444444+.              ",
"                -44444444444X   :4        ",
"               ;4444444444444X :44        ",
"              -4rw44444444444%:44$        ",
"             *44ii444444444444444$        ",
"             444444444pppu44444444        ",
"             *4444444q844446e4%444        ",
"              344444444477py4@  34        ",
"               #44444pttt444@             ",
"                #3442051441@              ",
"                  #,=494*@                ",
"                     2444o                ",
"                      #>>                 ",
"                                          ",
"                                          ",
"                                          ",
"                                          ",
"                                          ",
"                                          ",
"                                          ",
"                                          ",
"                                          ",
"                                          ",
"                                          ",
"                                          "
};
