/* XPM */
static char *fish2[] = {
/* columns rows colors chars-per-pixel */
"42 42 35 1 ",
"  c #032B3E",
". c #0B2B3E",
"X c #0D2B3E",
"o c #112B3D",
"O c #152B3D",
"+ c #1A2B3D",
"@ c #552D39",
"# c #672D37",
"$ c #6B2D37",
"% c #612D38",
"& c #712D37",
"* c #7A2E36",
"= c #7D2E36",
"- c #872E35",
"; c #8F2E35",
": c #BB2F31",
"> c #BE2F31",
", c #D6302F",
"< c #CE3030",
"1 c #D33030",
"2 c #E4312E",
"3 c #E53F3D",
"4 c #E6413E",
"5 c #E84F4D",
"6 c #EE807E",
"7 c #F08F8E",
"8 c #F09190",
"9 c #F29D9C",
"0 c #F2A1A0",
"q c #F4ABAA",
"w c #FADEDE",
"e c #FAE0DF",
"r c #FBE2E2",
"t c #FDF0F0",
"y c white",
/* pixels */
"                                          ",
"                                          ",
"                                          ",
"                                          ",
"                                          ",
"                                          ",
"                                          ",
"                                          ",
"                                          ",
"                                          ",
"                                          ",
"                                          ",
"                                          ",
"                     OOO                  ",
"                   X2222&                 ",
"                  X222222&.               ",
"                 o22222222,               ",
"                -22222222+X               ",
"               -22222222222X  o2%         ",
"              -2222222222222X 22%         ",
"             -2q922222222222&;22          ",
"            *22tt222222222222222          ",
"            222222222yyyr2222222%         ",
"            *2222222862222402&22%         ",
"             122222222255ye2@ &2%         ",
"              #22222ywww222@              ",
"               #122,73<22<@               ",
"                 #>=272$@                 ",
"                    222*                  ",
"                     ::@                  ",
"                                          ",
"                                          ",
"                                          ",
"                                          ",
"                                          ",
"                                          ",
"                                          ",
"                                          ",
"                                          ",
"                                          ",
"                                          ",
"                                          "
};
