/* XPM */
static char *weed1[] = {
/* columns rows colors chars-per-pixel */
"42 42 23 1 ",
"  c #010101",
". c #010305",
"X c #010406",
"o c #01070A",
"O c #01080B",
"+ c #01080C",
"@ c #010B0F",
"# c #010B10",
"$ c #010C11",
"% c #020F15",
"& c #02131B",
"* c #02141C",
"= c #021924",
"- c #021D29",
"; c #031F2D",
": c #03212F",
"> c #032231",
", c #032333",
"< c #032433",
"1 c #032535",
"2 c #032738",
"3 c #032839",
"4 c #032B3E",
/* pixels */
"4444444>$4441++* #444444  *44444#444444;#4",
"4444444>+41    4 #444444  .4444>#444444%%4",
"4444444>+1    ,4 #444444=  #444;%44444; 44",
"44444#++    +,4> #4444443   444o$44444  44",
"441o     444444o 44444444=  444 $4444;  44",
"41     > &44444  44444444;  $4;  4444o  44",
"1   +>44>+44444  444444444  #4o  4444   44",
"44444444>o4444>  444444444  $4   4444  %44",
"44444444>+444oo +444444444= 14   4444  $44",
"44444444>+1      444444444: 4:   4444  $44",
"4444441oo       +444444444:+4:   4444  $44",
"441o    1 1>>1: $444444444o44;   $444  444",
"4>     14 4444> $444444444 44:   $444  444",
"1     144>#444> +44444444; 44;   $444  444",
"411114444>+44>o X44444444  443   $444 #444",
"4444444444+4o     444444:  444   $444 %444",
"4444444444 o     1444444  +444-  $444 $444",
"44444>     1111- 444444:  $444;  $444;4444",
"4441     O 4444: $44444X  #4444   444;4444",
"44>     +4 44444 $4444>   444443  444;$444",
"444    144-%4444  4444:  $444444- 444; 444",
"4444444444>#4444- %444   $4444444 444; 444",
"4444444444>+4444> +444   44444444=444; 444",
"44<XXXo444>#44444 #444   44444444:%44; &44",
"44        .        444   44444444:$44; $44",
"444      +;+4-     444  #44444443: 44;  44",
"4444444444>#44332; .44  $44444444; 44;  44",
"4444444444>#44444:  44  444444444: $4;  &4",
"4444444444 344444:  44 +444444444: $4;  #4",
"4444444444 4>XX$4>  %4 #444444444- $4;  $4",
"4       ..       :  #4 $444444444: $4;   4",
"4>      4>+3;       #4-$444444444; $4;   4",
"443443344 4444343>  34:$444444444  $44   %",
"444444444 4444444:  444$444444444  444-  $",
"44444444>$4444444> #444$444444444 #444;  $",
"44444444>+4444444: #444 444444444 44444  $",
"44444444 4>     #: $444 44444444;$44444  %",
"4>             +4  +444 $4444444 444444; 4",
"     +4>     444: +4444: 444444: 444444; 4",
"4  4444>+4444444> $4444: 444444; 4444444 4",
"4444444>+4444444  444444 $44444:#4444444 4",
"4444444<+4444444  444444  444444$4444444 4"
};
