/* XPM */
static char *weed2[] = {
/* columns rows colors chars-per-pixel */
"42 42 23 1 ",
"  c #010101",
". c #010305",
"X c #010405",
"o c #01070A",
"O c #01080B",
"+ c #01080C",
"@ c #010B0F",
"# c #010B10",
"$ c #010C11",
"% c #010E14",
"& c #021017",
"* c #02141C",
"= c #021924",
"- c #021C28",
"; c #031F2D",
": c #03212F",
"> c #032231",
", c #032333",
"< c #032433",
"1 c #032535",
"2 c #032738",
"3 c #032839",
"4 c #032B3E",
/* pixels */
"4444444>+41#  o4 $444444  *44444%444444;$4",
"4444444>o1    14 +444444  .4444:#444444$%4",
"4444444>     >44 #444444=  #444;%44444; 44",
"44444#++ >:>444> #4444443   444O$44444  44",
"441o     444444o 44444444=  444 $4444;  44",
"41     > *44444  44444444;  $4;  4444o  44",
"1   +>44>+44444  444444444  #4o  4444   44",
"44444444>o4444>  444444444  $4   4444  %44",
"44444444>+444oo +444444444= 14   4444  $44",
"44444444>+1      444444444: 4:   4444  $44",
"4444441oo       +444444444:+4:   4444  $44",
"441o    1 1>>1: $444444444o44;   $444  444",
"4>     14 4444> $444444444 44:   $444  444",
"1     144>#444> +44444444: 44;   $444  444",
"411114444o144oo $4444444> +44:   144: 1444",
"444444444-4>     &444444  #44;   444; 4444",
"444444444>.     +444444:  1444   444; 4444",
"44444X    +1111 $444444   4444   4444$4444",
"444X     -#4444  44444>   4444:  $444$4444",
"44X     2>+4444- 44444.  +44444= $444 4444",
"44;   O244 4444: O4444   4444444 $444 *444",
"4444444444 44444  444:   4444444-$444 #444",
"4444444444 44444  444:  $44444444$444 $444",
"44oXoX$444 44444: 444:  $44444444 444  444",
"4>                %44:  $44444444 444  444",
"44;      2 42     $44:  444444444 $44  *44",
"4444444444 444232  %4:  444444444 $44  $44",
"4444444444 444444  +4: $444444444  44   44",
"444444444>+444444  +4: 3444444444  44   44",
"444444444>#4XX.44   4: 4444444444  44   44",
">      ...      $   4: 4444444444  44   %4",
"4      +3 43        44 4444444444  44   $4",
"44334344>+4444333  $44 444444444:  44;   4",
"44444444<+4444444  +44:444444444; $444   4",
"44444444.44444444  444:444444444; 4444   4",
"44444444 44444444  444:$44444444:#4444-  4",
"4444444>+4      4  444:#44444444 44444;  4",
"4              4:  444: 4444444;#444444 $4",
".    +4>     444> +4444: 444444: 444444; 4",
"4  4444>+4444444> $4444: 444444; 4444444 4",
"4444444>+4444444  444444 $44444:#4444444 4",
"4444444<+4444444  444444  444444$4444444 4"
};
