/* XPM */
static char *weed5[] = {
/* columns rows colors chars-per-pixel */
"42 42 25 1 ",
"  c black",
". c #010406",
"X c #010608",
"o c #01080B",
"O c #01080C",
"+ c #010B0F",
"@ c #010B10",
"# c #010C11",
"$ c #010D13",
"% c #010F15",
"& c #02131B",
"* c #02141D",
"= c #021720",
"- c #021923",
"; c #021A25",
": c #031E2B",
"> c #031F2C",
", c #03202E",
"< c #032130",
"1 c #032433",
"2 c #032434",
"3 c #032535",
"4 c #032738",
"5 c #03293B",
"6 c #032B3E",
/* pixels */
"666666666666666666666666666666666666666666",
"666666666666666666666666666666666666666666",
"666666666666666666666666666666666666666666",
"666666666666666666666666666666666666666666",
"666666666666666666666666666666666666666666",
"6666666666666666666666666666#6666666666666",
"6666666666666666666666666666X6666666666666",
"6666666666666666666666666666 #666666666666",
"6666666666666666666666666666 X666666666666",
"6666666666666666666666666666  ;66666666666",
"6666666666666666666666666666  #66666666666",
"6666666666666666666666666666,  66666666666",
"6666666666666666666666666666,  ;6666666666",
"66666666666666666666666666664  #6666666666",
"66666666666666666666666666666  #6666;66666",
"66666666666666666666666666666  #6666X66666",
"6666666666662#666666666666666, #6666 ;6666",
"666666666665 #666666666666666, 66666& 6666",
"66666666666# +666666666666666, 66666> ;666",
"6666666666<  +666666666666666,O666666 X666",
"6666666666   O666666666666666O6666666  ;66",
"6666666666   #66666666666666#<66666664  ;6",
"6666666666   #6666666666666#X666666666> @6",
"6666666666   O666666666666# <6666666664 %6",
"6666666666   O66666666666,  66666666666*%6",
"6666666666   666666666666  #66666666666>#6",
"6666666666< #66666666666<  #666666666664%6",
"66666666666 #66666666666   #662666666666X6",
"66666666666 66666%%66662   666,-66666666 6",
"66666666662X6662#  #666<   666>.66666666 6",
"66#  .#666<@2      <666O   666, 66666666 6",
"666      .@X:,-   <6666   O666, #6666666 #",
"6665=      O6666666666,   #6666  666666: #",
"666666>>66#<6666666666    #6666  #66666, #",
"6666666662O66666+66666    66666  .66666: #",
"666666666<<62%###66666    66666   66666, %",
"666666666 2#     66666    66666   66666, 2",
"6####6662     O2 O6666-   66666   66666, 6",
"5     #*    ,,66 #6666,   66666-  66666, 6",
"65,     o,166666 #66666   66666, O66666, 6",
"6665<,,1O6666666 #66666- O66666, 266666> 6",
"6666666<+6666666 #66666, #66666,O6666666%6"
};
