/* XPM */
static char *weed4[] = {
/* columns rows colors chars-per-pixel */
"42 42 23 1 ",
"  c black",
". c #010405",
"X c #010608",
"o c #01080B",
"O c #01080C",
"+ c #010B0F",
"@ c #010C12",
"# c #010D13",
"$ c #02131B",
"% c #02141C",
"& c #02161F",
"* c #021721",
"= c #021822",
"- c #021B26",
"; c #031E2B",
": c #031F2D",
"> c #03202E",
", c #032231",
"< c #032433",
"1 c #032535",
"2 c #032738",
"3 c #03293B",
"4 c #032B3E",
/* pixels */
"444444444444444444444444444444444444444444",
"444444444444444444444444444444444444444444",
"444444444444444444444444444444444444444444",
"444444444444444444444444444444444444444444",
"444444444444444444444444444444444444444444",
"444444444444444444444444444>44444444444444",
"444444444444444444444444444>-4444444444444",
"444444444444444444444444444> 4444444444444",
"444444444444444444444444444> -444444444444",
"444444444444444444444444444> X444444444444",
"444444444444444444444444444>  444444444444",
"4444444444444444444444444444  @44444444444",
"4444444444444444444444444444  X44444444444",
"4444444444444444444444444444$  44444444444",
"4444444444444444444444444444>  44444-44444",
"4444444444444444444444444444>  44444X44444",
"444444444441@4444444444444444  44444 -4444",
"44444444441 O4444444444444444 @44444$ 4444",
"4444444444@ @4444444444444444 @44444: X444",
"444444444,  O4444444444444444 >444444  -44",
"444444444   O4444444444444444o4444444: X44",
"444444444   @444444444444444@>44444444  @4",
"444444444   O44444444444444@o444444444: @4",
"444444444   @4444444444444@ >4444444442 @4",
"444444444   @444444444444>  44444444444$@4",
"444444444,  O444444444444  @44444444444:#4",
"4444444444  444444444444>  @444444444444#4",
"4444444444= 444444444444   @44<444444444X4",
"4444444444,O44441  &4441   444>=44444444 4",
"441##=4444,@441@   @444,   444>.44444444 4",
"44=    @44,@1     o4444O   444> 44444444 4",
"444-     .OX;;;;;;44444   O444> @4444444 @",
"44443=     O4444444444>   @4444  444444: @",
"4444444444@,4444444444    @4444  @44444: @",
"4444444441X44443&44444    44444  .44444: #",
"444444444,,44444@44444    44444   44444: #",
"444444444 1@O   O44444    44444   44444: 1",
"44444444,       O44444=   44444   44444: 4",
"3    @44      1, 44444>   44444=  44444> 4",
"4-      o><44444 *44444   44444> O44444> 4",
"444-   -O4444444 @44444= O44444> <44444> 4",
"4444444<O4444444 @44444> @44444>O4444444@4"
};
