/* XPM */
static char *alive1[] = {
/* columns rows colors chars-per-pixel */
"42 42 57 1 ",
"  c black",
". c #03080A",
"X c #090909",
"o c #032B3E",
"O c #042C40",
"+ c #042E42",
"@ c #063045",
"# c #08354A",
"$ c #0A394F",
"% c #0B3A50",
"& c #10445B",
"* c #10445C",
"= c #1B5974",
"- c #1E5E7B",
"; c #1E5F7C",
": c #215166",
"> c #23576D",
", c #23576E",
"< c #1F607E",
"1 c #216583",
"2 c #236786",
"3 c #236887",
"4 c #246A89",
"5 c #266D8D",
"6 c #277090",
"7 c #287191",
"8 c #287293",
"9 c #2E7C9F",
"0 c #3489AE",
"q c #358BB0",
"w c #3E9BC3",
"e c #3E9BC4",
"r c #40A0C9",
"t c #41A1CB",
"y c #41A2CB",
"u c #44A7D1",
"i c #45A8D3",
"p c #4BABD4",
"a c #4CABD4",
"s c #4FACD5",
"d c #53AED6",
"f c #55AFD6",
"g c #56B0D7",
"h c #86C6E2",
"j c #94CDE5",
"k c #95CDE6",
"l c #9DCCE1",
"z c #9FD2E8",
"x c #A0D2E8",
"c c #A3D4E9",
"v c #AFD9EC",
"b c #EEF7FB",
"n c gray97",
"m c #F3F9FC",
"M c #F7FBFD",
"N c #F8FBFD",
"B c white",
/* pixels */
"oooooooooooooooooooooooooooooooooooooooooo",
"ooooooooooouiuiii7oooooooooooooooooooooooo",
"oooooooooooouuiiiii7oooooooooooooooooooooo",
"ooooooooooooouiiiiii7+iiiiiiu++ooooooooooo",
"ooooooooooooo-iiiiiiiiiiiiiiuiii+ooooooooo",
"oooooooooooooouiiiiiiiiiiiiiiiiiii+ooooooo",
"oooooooooooooo<iiiiiiiiiiiiiiiiiiii5oooooo",
"ooooooooooooooiiiiiiiiiiiiiiiiiii,.i4ooooo",
"ooooooooooooo1uiiiiiiiiiiiiiiiiiipsii+oooo",
"oooooooooooo<iiiiiiiiiiiiiiiiiiiiBnli4oooo",
"ooooooooooo+iiiiiiiiiiiiiiiiiiiiiB :iioooo",
"ooooooooooo1iiiiiiiiiiiiiifaiiiiiNX,iioooo",
"oooooooooo+iiiiiiiipaiiiixBBBduuiiiiiioooo",
"oooooooooo;iiiiiipxNiiiaBBBBBBBfiiiii4oooo",
"ooooooooooiiiiiifBMiifxNbiiiiiikbiiiiioooo",
"ooooooooo;iiiiixBNgxBbxie2ooooo;eiiiii@ooo",
"ooooooooo-iiiuxBBBBbiy3ooooooooooowiii4ooo",
"oooooooooiiiikBBBBxu2oooooooooooooo<ii4ooo",
"oooooooooiiiiBBBMiyoooooooooooooooooow<ooo",
"oooooooo=iiikBBBu6oooooooooooooooooooooooo",
"oooooooooiiizBBxyooooooooooooooooooooooooo",
"oooooooooiisBBxyoooooooooooooooooooooooooo",
"oooooooo;iikBmrooooooooooooooooooooooooooo",
"oooooooo;iicmi3ooooooooooooooooooooooooooo",
"oooooooo;iiBz1oooooooooooooooooooooooooooo",
"oooooooo;idvrooooooooooooooooooooooooooooo",
"oooooooo;iki1ooooooooooooooooooooooooooooo",
"oooooooo<iheoooooooooooooooooooooooooooooo",
"oooooooo;ii6oooooooooooooooooooooooooooooo",
"oooooooo;ii2oooooooooooooooooooooooooooooo",
"oooooooooiiooooooooooooooooooooooooooooooo",
"oooooooooiiooooooooooooooooooooooooooooooo",
"oooooooooii$oooooooooooooooooooooooooooooo",
"oooooooo*iii&ooooooooooooooooooooooooooooo",
"oooooo#5iiiiii9*oooooooooooooooooooooooooo",
"ooooo#iiiiiiiiiii$oooooooooooooooooooooooo",
"oooo5iiiiiiiiiiiiioooooooooooooooooooooooo",
"ooo5iiiiiw<iiwqqqi%ooooooooooooooooooooooo",
"oo-iiiie0<oooooooooooooooooooooooooooooooo",
"ooii0ooooooooooooooooooooooooooooooooooooo",
"ooeooooooooooooooooooooooooooooooooooooooo",
"oooooooooooooooooooooooooooooooooooooooooo"
};
