/* XPM */
static char *alive2[] = {
/* columns rows colors chars-per-pixel */
"42 42 61 1 ",
"  c black",
". c #03080A",
"X c #090909",
"o c #032B3E",
"O c #042C40",
"+ c #042E42",
"@ c #063045",
"# c #08364B",
"$ c #0A394E",
"% c #10445C",
"& c #1B5874",
"* c #1E5E7B",
"= c #1E5F7D",
"- c #215065",
"; c #23576D",
": c #1F607E",
"> c #206280",
", c #216482",
"< c #226584",
"1 c #236786",
"2 c #236887",
"3 c #246A89",
"4 c #266E8E",
"5 c #277090",
"6 c #287192",
"7 c #287293",
"8 c #2E7C9F",
"9 c #2E7DA0",
"0 c #358AAF",
"q c #358BB0",
"w c #3C97BF",
"e c #3E9BC3",
"r c #3E9BC4",
"t c #41A1CB",
"y c #41A2CB",
"u c #43A5CF",
"i c #43A6D0",
"p c #44A6D1",
"a c #45A8D3",
"s c #49AAD4",
"d c #4CABD4",
"f c #4FACD5",
"g c #52AED6",
"h c #53AED6",
"j c #55AFD6",
"k c #56B0D7",
"l c #86C6E2",
"z c #93CCE5",
"x c #94CDE5",
"c c #9DCDE1",
"v c #9FD2E8",
"b c #A0D2E8",
"n c #A0D3E8",
"m c #A1D3E8",
"M c #AFDAEC",
"N c #EEF7FB",
"B c gray97",
"V c #F3F9FC",
"C c #F7FBFD",
"Z c #F8FBFD",
"A c white",
/* pixels */
"oooooooooooooooooooooooooooooooooooooooooo",
"oooooooooopaaaaa6ooooooooooooooooooooooooo",
"ooooooooooopaaaaaa6ooooooooooooooooooooooo",
"ooooooooooooiaaaaaa6+aaaaaaa+ooooooooooooo",
"oooooooooooo*aaaaaaaaaaaaaaaaaa+oooooooooo",
"ooooooooooooouaaaaaaaaaaaaaaaaaaa+oooooooo",
"ooooooooooooo:aaaaaaaaaaaaaaaaaaaa4ooooooo",
"oooooooooooooaaaaaaaaaaaaaaaaaaa;.a3oooooo",
"oooooooooooo,aaaaaaaaaaaaaaaaaaasfaa+ooooo",
"ooooooooooo=aaaaaaaaaaaaaaaaaaaaABca3ooooo",
"oooooooooo+aaaaaaaaaaaaaaaaaaaaaA -aaooooo",
"oooooooooo,aaaaaaaaaaaasahdaaaaaZX;aaooooo",
"ooooooooo+aaaaaaasssaaapnAAAhaaaaaaaaooooo",
"ooooooooo=aaaaaasvZaspdAAAAAAAjaaaaa3ooooo",
"oooooooooaaaaaajAZaajnCNaaaaaaxNaaaaaooooo",
"oooooooo*aaaaanACknANnar1ooooo=eaaaaa@oooo",
"oooooooo*aaaavAAAANpt1oooooooooooepaa3oooo",
"ooooooooaaaaxAAAAns2oooooooooooooo:aa3oooo",
"ooooooooaaaaAAAVitooooooooooooooooooe:oooo",
"ooooooo&aaaxAAAi5ooooooooooooooooooooooooo",
"ooooooooaaanAAvt+ooooooooooooooooooooooooo",
"ooooooooaafAAvtooooooooooooooooooooooooooo",
"ooooooo*aaxAVtoooooooooooooooooooooooooooo",
"ooooooo*aanVa2oooooooooooooooooooooooooooo",
"ooooooo*aaAv2Ooooooooooooooooooooooooooooo",
"ooooooo*ahMroOoooooooooooooooooooooooooooo",
"ooooooo*aza,oooooooooooooooooooooooooooooo",
"ooooooo*alrooooooooooooooooooooooooooooooo",
"ooooooo*aa6ooooooooooooooooooooooooooooooo",
"ooooooo*aa1ooooooooooooooooooooooooooooooo",
"ooooooooaaoooooooooooooooooooooooooooooooo",
"ooooooooasoooooooooooooooooooooooooooooooo",
"ooooooooep%ooooooooooooooooooooooooooooooo",
"ooooooo#4pa9$ooooooooooooooooooooooooooooo",
"oooooo%aaaaaaa%$oooooooooooooooooooooooooo",
"ooooo4aaaaaaaaaa8ooooooooooooooooooooooooo",
"ooo#aaaaaaaaaaaaa6oooooooooooooooooooooooo",
"oo#aaaaaa>aaaqqqw8oooooooooooooooooooooooo",
"ooaaaaa00ooooooooooooooooooooooooooooooooo",
"o*ae>ooooooooooooooooooooooooooooooooooooo",
"o*>ooooooooooooooooooooooooooooooooooooooo",
"oooooooooooooooooooooooooooooooooooooooooo"
};
