/* XPM */
static char *_f50fee4c6a649e8cbf4644c73a55872kQzYFYwgbpMbyFMr[] = {
/* columns rows colors chars-per-pixel */
"64 64 6 1 ",
"  c black",
". c #0D1605",
"X c #223511",
"o c #4B692F",
"O c #2B8DB1",
"+ c #FFE8DF",
/* pixels */
"OOOOOOOOOOOOOOOOOOO            OOOOOOOOOOOOOOOOOOOOOOOOOOOOOOOOO",
"OOOOOOOOOOOOOOOOOOOOO                      OOOOOOOOOOOOOOOOOOOOO",
"OOOOOOOOOOOOOOOOOOOO                            OOOOOOOOOOOOOOOO",
"OOOOOOOOOOOOOOOOOO                                OOOOOOOOOOOOOO",
"OOOOOOOOOOOOOOOO                                    OOOOOOOOOOOO",
"OOOOOOOOOOOOOO                                        OOOOOOOOOO",
"OOOOOOOOOOO                                          OOOOOOOOOOO",
"OOOOOOOOO                                              OOOOOOOOO",
"OOOOOOOO                                                OOOOOOOO",
"OOOOOOO                  ++++++++++++++                  OOOOOOO",
"OOOOOO                +++              ++++               OOOOOO",
"OOO                                                    OOOOOOOOO",
"OO                                                      OOOOOOOO",
"O                                                        OOOOOOO",
"O                                       +++++            OOOOOOO",
"O                ++++                        +++         OOOOOOO",
"OOO         +++++                               +++          OOO",
"OOOO       +             ++++++++++++++            ++         OO",
"OOOO    +++        ++++++ooooooooooooooo+++++        ++       OO",
"OOOO   +        +++oooooooooooooooooooooooooo+++       +      OO",
"OOOOOO+      +++oooooooooooooooooooooooooooooooo+++             ",
"OOOOO+     ++ooooooooooooooooooooooooXooooooooooooo++           ",
"OOOO+OO   +oooooooooooooooooooooooooooooooooooooooooo+         O",
"OOOOO   ++ooooooooooooooooooooooooooXooooooooooooooooo++     OOO",
"OOOOO  +oooooooooooooooooooooXoooXXXXXXXXXooXXoooooooooo+    OOO",
"OOOOO + oooooooooooooooooooooXXoXXXXXXXXXXXXooXXXooooooo+  O+OOO",
"OOOOOO+ ooooooooooooooooooXoooooXXXXXXXXXXXoooooooXXXXoo +OO+OOO",
"OOOO  + oooooooooooooooooXXXXXXXoXXXXXXoXXXooooXXoooXXXX +OO+OOO",
"OOOOO + oooooooooooooooXooXXoXoXXXXXXXXXXXXooooooooooXXX +OOOOOO",
"OOOO  + ooooooooooooXooooXXooXoXXXXXXXXXXooXoXoooooXXXXX +OOOOOO",
"OOOOO   oooooooooooXooXoooXXooXooXXXXXXXXXXoXooXoXXoXXXX  OOOOOO",
"OOOOOO  oooooooooooXooXoXooXXXXoXXXXXXXXXXXXXXoXXooXXXXX  OOOOOO",
"OO+OOO  oooooooooXXXXXoXXXXXXXoXXXXXXXXXXXXXXoXXXooXXXXX  OOOOOO",
"OOO+OO  ooooooooXXXXoXXXXXXXXXXXXXXXXXXXXXXXXXXooXXXXXXX  OOOO+O",
"OOOO+O  oooooooXXXXXXXXXXXXXXXXXXXXXXXXXXXXXXXXXXXXXXXXX  OOOO+O",
"OOOOO++  oooooXXXXXXXXXXXXXXXXXXXXXXXXXXXXXXXXXXXXXXXXX  OOOOO+O",
"OOOOOOO  oooooXXXXXXXXXXXXXXXXXXXXXXXXXXXXXXXXXXXXXXXXX  OOOO+OO",
"OOOOOOO  ooXoXooXoXXXXXXXXXXXXXXXXXXXXXXXXXXXXXXXXXXXXX  OOO+OOO",
"OOOOOOO  ooooooXXXXXXXXXXXXXXXXXXXXXXXXXXXXXXXXXXXXXXXX  OOO+OOO",
"OOOOOOOO  ooooXooXXXXXXXXXXXXXXXXX.XXXXX....XX.XXXXXXX  OOOOOOOO",
"OOOOOOOO  oXXooooXXXXXXXXXXXXXX.........XX......XXXXXX  ++OOOOOO",
"OOOOOOOOO  oXXXXXXXXXXXXXXXXXXXX..XX..X.XX......X..XX  +OOOOOOOO",
"OOOOOOOOO  XXXXXXXXXXXXXXXXX.......X....X...X.......X  OOOOOOOOO",
"OOOOOOOOOO  XXXXXXXXXXXXXXX.X................X......  OOOOOOOOOO",
"OOOOOOOOOOO  XXXXXXXXXXXX......X................X..  OOOOOOOOOOO",
"OOOOOOOOOOO  XXXXXXXXXXX.......X...................  OOOOOOOOOOO",
"OOOOOOOOOOOO  XXXXXXXXXX....X.....................  OOOOOOOOOOOO",
"OOOOOOOOOOOOO  XXXXXXXX..........................  OOOOOOOOOOOOO",
"OOOOOOOOOOOOOO   XXXXX..X......................   OOOOOOOOOOOOOO",
"OOOOOOOOOOOOOOO   XXXX........................   OOOOOOOOOOOOOOO",
"OOOOOOOOOOOOOOOOO   XX......X...............   OOOOOOOOOOOOOOOOO",
"OOOOOOOOOOOOOOOOOO   XX....................   OOOOOOOOOOOOOOOOOO",
"OOOOOOOOOOOOOOOOOOOO     ...............    OOOOOOOOOOOOOOOOOOOO",
"OOOOOOOOOOOOOOOOOOOOO      ..........      OOOOOOOOOOOOOOOOOOOOO",
"OOOOOOOOOOOOOOOOOOOOOOOO                OOOOOOOOOOOOOOOOOOOOOOOO",
"OOOOOOOOOOOOOOOOOOOOOOOOOOO          OOOOOOOOOOOOOOOOOOOOOOOOOOO",
"OOOOOOOOOOOOOOOOOOOOOOOOOOOOOOOOOOOOOOOOOOOOOOOOOOOOOOOOOOOOOOOO",
"OOOOOOOOOOOOOOOOOOOOOOOOOOOOOOOOOOOOOOOOOOOOOOOOOOOOOOOOOOOOOOOO",
"OOOOOOOOOOOOOOOOOOOOOOOOOOOOOOOOOOOOOOOOOOOOOOOOOOOOOOOOOOOOOOOO",
"OOOOOOOOOOOOOOOOOOOOOOOOOOOOOOOOOOOOOOOOOOOOOOOOOOOOOOOOOOOOOOOO",
"OOOOOOOOOOOOOOOOOOOOOOOOOOOOOOOOOOOOOOOOOOOOOOOOOOOOOOOOOOOOOOOO",
"OOOOOOOOOOOOOOOOOOOOOOOOOOOOOOOOOOOOOOOOOOOOOOOOOOOOOOOOOOOOOOOO",
"OOOOOOOOOOOOOOOOOOOOOOOOOOOOOOOOOOOOOOOOOOOOOOOOOOOOOOOOOOOOOOOO",
"OOOOOOOOOOOOOOOOOOOOOOOOOOOOOOOOOOOOOOOOOOOOOOOOOOOOOOOOOOOOOOOO"
};
