/* XPM */
static char *c3fa397eaa054a38db5e0d8e3b0823fbVCSCvm7nJUFLYkvQ[] = {
/* columns rows colors chars-per-pixel */
"64 64 6 1 ",
"  c black",
". c #274C59",
"X c #F2385E",
"o c #2B8DB1",
"O c #AAA889",
"+ c #FFE8DF",
/* pixels */
"oooooooooooooooooooooooooooooooooooooooooooooooooooooooooooooooo",
"ooooooooooooooooooooooooooooooooooooooo++++ooooooooooooooooooooo",
"oooooooooooooooooooooooooooooooooooooooooooooooooooooooooooooooo",
"ooooooooooooooo++++++++++++++++++ooooooooooooooooooooooooooooooo",
"oooooooooooooooooooooooooooooooooooooooooooooooooooooooooooooooo",
"oooooo++++++++oooooooooooooooooooooooooooooooooooooooooooooooooo",
"ooooooooooooooooooooooooooooooooooooooooo+++++++++++++++oooooooo",
"oooooooooooooooooooooooooooooooooooooooooooooooooooooooooooooooo",
"oooooooooooooooooooooooooooo++++++++++oooooooooooooooooooooooooo",
"oooooooooooooooo+++++ooooooooooooooooooooooooooooooooooooooooooo",
"oooooooooooooooooooooooooooooooooooooooooooooooooooooooooooooooo",
"oooooooooooooooooooooooooooooooooooooooooooooooooooooooooooooooo",
"oooooooooooooooooooooooooooooooooooooooooooooooooooooooooooooooo",
"oooooooooooooooooooooooooooooooooooooooooooooooooooooooooooooooo",
"oooooooooooooooooooooooooooooooooooooooooooooooooooooooooooooooo",
"oooooooooooooooooooooooooooooooooooooooooooooooooooooooooooooooo",
"oooooooooooooooooooooooooooooooooooooooooooooooooooooooooooooooo",
"oooooooooooooooooooooooooooooooooooooooooooooooooooooooooooooooo",
"oooooooooooooooooooooooooooooooooooooooooooooooooooooooooooooooo",
"oooooooooooooooooooooooooooooooooooooooooooooooooooooooooooooooo",
"oooooooooooooooooooooooooooooooooooooooooooooooooooooooooooooooo",
"oooooooooooooooooooooooooooooooooooooooooooooooooooooooooooooooo",
"oooooooooooooooooooooooooooooooooooooooooooooooooooooooooooooooo",
"oooooooooooooooooooooooooooooooooooooooooooooooooooooooooooooooo",
"oooooooooooooooooooooooooooooooooooooooooooooooooooooooooooooooo",
"oooooooooooooooooooooooooooooooooooooooooooooooooooooooooooooooo",
"oooooooooooooooooooooooooooooooooooooooooooooooooooooooooooooooo",
"oooooooooooooooooooooooooooooooooooooooooooooooooooooooooooooooo",
"oooooooooooooooooooooooooooooooooooooooooooooooooooooooooooooooo",
"oooooooooooooooooooooooooooooooooooooooooooooooooooooooooooooooo",
"oooooooooooooooooooooooooooooooooooooooooooooooooooooooooooooooo",
"oooooooooooooooooooooooooooooooooooooooooooooooooooooooooooooooo",
"oooooooooooooooooooooooooooooooooooooooooooooooooooooooooooooooo",
"oooooooooooooooooooooooooooooooooooooooooooooooooooooooooooooooo",
"ooooooooooooooooooooooooooooooo     oooooooooooooooooooooooooooo",
"oooooooooooooooooooooooooooooo ++++ oooooooooooooooooooooooooooo",
"ooooooooooo                oo ++OOO oooooooooooooooooooooooooooo",
"oooo       ...OOOOOOOOOOOOO  ++XOOO oooooooooooooooooooooooooooo",
"ooo .O..OOOOOOOOXOOOOXOOOOOOO   XOO oooooooooooooooooooooooooooo",
"ooo +... .XOO OOOOXOOOOXOOOOOOOO XO oooooooooooooooooooooooooooo",
"ooo .++   ..OO OOOOOOOOOOOXOOXOOO X    ooooooooooooooooooooooooo",
"oooo .++ ..X XX OXXXXXXXOOOOOOOOOO  OOO  ooooo ooooooooooooooooo",
"ooooo .++..X XX OXXXXXXXXXXXXXXOOOOOOOOOO     O oooooooooooooooo",
"oooooo  ...X XXX OXXXXXXXXXXXXXXXXXXXOOOOOO OOOO ooooooo       o",
"oooooooo ... X X OXXXXXXXXXXXXXXXXXXXXXXXOOOO    oooo   +++... o",
"ooooooooo   .. X.OOXXXXXXXXXXXXXXXXXXXXXXXXXOOOOO    +++O.... oo",
"oooooooooooo  .. ...XXXXXXXXXXXXXXXXXXXXXXXXXXXXO++++O....   ooo",
"ooooooooooooo ..   ...XXXXXXXXXXXXXXXXXXXXXXXXXXXOOOO....... ooo",
"ooooooooooooo ... o   .OXOXOXOXXXXXXXXXXXXXXXXXXXXOOOX..... oooo",
"ooooooooooooo ... oooo       XXXXXXXXXX      XXXXXOXOO.... ooooo",
"oooooooooooooo ... oooooooo        XXXXXXXXXX   XXOOO.... oooooo",
"ooooooooooooooo   oooooooooo XOOOO   OOXXOOOO oo OOO..... oooooo",
"oooooooooooooooooooooooooooo +OOO ooo OXOOOOO ooo OO..... oooooo",
"ooooooooooooooooooooooooooooo +O ooooo OOOOO ooooo O..... oooooo",
"oooooooooooooooooooooooooooooo  ooooooo OOO ooooooo O.... oooooo",
"ooooooooooooooooooooooooooooooo oooooooo ++ oooooooo O... oooooo",
"ooooooooooooooooooooooooooooooooooooooooo  oooooooooo O.. oooooo",
"oooooooooooooooooooooooooooooooooooooooooo ooooooooooo  OO ooooo",
"oooooooooooooooooooooooooooooooooooooooooooooooooooooooo O ooooo",
"ooooooooooooooooooooooooooooooooooooooooooooooooooooooooo oooooo",
"oooooooooooooooooooooooooooooooooooooooooooooooooooooooooooooooo",
"oooooooooooooooooooooooooooooooooooooooooooooooooooooooooooooooo",
"oooooooooooooooooooooooooooooooooooooooooooooooooooooooooooooooo",
"oooooooooooooooooooooooooooooooooooooooooooooooooooooooooooooooo"
};
