/* XPM */
static char *b3dae00cfba94b019ed6d7e48aa45c56irBncLQjH8qsKv9o[] = {
/* columns rows colors chars-per-pixel */
"64 64 4 1 ",
"  c black",
". c #FBF236",
"X c #2B8DB1",
"o c #FFE8DF",
/* pixels */
"XXXXXXXXXXXXXXXXXXXXXXXXXXXXXXXXXXXXXXXXXXXXXXXXXXXXXXXXXXXXXXXX",
"XXXXXXXXXXXXXXXXXXXXXXXXXXXXXXXXXXXXXXXXXXXXXXXXXXXXXXXXXXXXXXXX",
"XXXXXXXXXXXXXXXXXXXXXXXXXXXXXXXXXXXXXXXXXXXXXXXXXXXXXXXXXXXXXXXX",
"XXXXXXXXXXXXXXXXXXXXXXXXXXXXXXXXXXXXXXXXXXXXXXXXXXXXXXXXXXXXXXXX",
"XXXXXXXXXXXXXXXXXXXXXXXXXXXXXXXXXXXXXXXXXXXXXXXXXXXXXXXXXXXXXXXX",
"XXXXXXXXXXXXXXXXXXXXXXXXXXXXXXXXXXXXXXXXXXXXXXXXXXXXXXXXXXXXXXXX",
"XXXXXXXXXXXXXXXXXXXXXXXXXXXXXXXXXXXXXXXXXXXXXXXXXXXXXXXXXXXXXXXX",
"XXXXXXXXXXXXXXXXXXXXXXXXXXXXXXXXXXXXXXXXXXXXXXXXXXXXXXXXXXXXXXXX",
"XXXXXXXXXXXXXXXXXXXXXXXXXXXXXXXXXXXXXXXXXXXXXXXXXXXXXXXXXXXXXXXX",
"XXXXXXXXXXXXXXXXXXXXXXXXXooooooooooooooXXXXXXXXXXXXXXXXXXXXXXXXX",
"XXXXXXXXXXXXXXXXXXXXXXoooXXXXXXXXXXXXXXooooXXXXXXXXXXXXXXXXXXXXX",
"XXXXXXXXXXXXXXXXXXXXXXXXXXXXXXXXXXXXXXXXXXXXXXXXXXXXXXXXXXXXXXXX",
"XXXXXXXXXXXXXXXXXXXXXXXXXXXXXXXXXXXXXXXXXXXXXXXXXXXXXXXXXXXXXXXX",
"XXXXXXXXXXXXXXXXXXXXXXXXXXXXXXXXXXXXXXXXXXXXXXXXXXXXXXXXXXXXXXXX",
"XXXXXXXXXXXXXXXXXXXXXXXXXXXXXXXXXXXXXXXXoooooXXXXXXXXXXXXXXXXXXX",
"XXXXXXXXXXXXXXXXXooooXXXXXXXXXXXXXXXXXXXXXXXXoooXXXXXXXXXXXXXXXX",
"XXXXXXXXXXXXoooooXXXXXXXXXXXXXXXXXXXXXXXXXXXXXXXoooXXXXXXXXXXXXX",
"XXXXXXXXXXXoXXXXXXXXXXXXXooooooooooooooXXXXXXXXXXXXooXXXXXXXXXXX",
"XXXXXXXXoooXXXXXXXXoooooo              ooooooXXXXXXXXooXXXXXXXXX",
"XXXXXXXoXXXXXXXXooo                          oooXXXXXXXoXXXXXXXX",
"XXXXXXoXXXXXXooo                                oooXXXXXXXXXXXXX",
"XXXXXoXXXXXoo               .                      ooXXXXXXXXXXX",
"XXXXoXXXXXo                ...                       oXXXXXXXXXX",
"XXXXXXXXoo                  .                         ooXXXXXXXX",
"XXXXXXXo      .                               .         oXXXXXXX",
"XXXXXXoo     ...                             ...        oXXXoXXX",
"XXXXXXo       .                               .          oXXoXXX",
"XXXXXXo                                                  oXXoXXX",
"XXXXXXo                                .                 oXXXXXX",
"XXXXXXo                                .                 oXXXXXX",
"XXXXXXXo                              ...               oXXXXXXX",
"XXXXXXXo                .           .......             oXXXXXXX",
"XXoXXXXXoo             ...            ...             ooXXXXXXXX",
"XXXoXXXXXXo             .              .             oXXXXXXXXoX",
"XXXXoXXXXXXoo                          .           ooXXXXXXXXXoX",
"XXXXXooXXXXXXooo                                oooXXXXXXXXXXXoX",
"XXXXXXXoXXXXXXXXooo                          oooXXXXXXXXXXXXXoXX",
"XXXXXXXXXXXXXXXXXXXoooooo              ooooooXXXXXXXXXXXXXXXoXXX",
"XXXXXXXXXXXXXXXXXXXXXXXXXooooooooooooooXXXXXXXXXXXXXXXXXXXXXoXXX",
"XXXXXXXXXXXXXXXXXXXXXXXXXXXXXXXXXXXXXXXXXXXXXXXXXXXXXXXXXXXXXXXX",
"XXXXXXXXXXXXXXXXXXXXXXXXXXXXXXXXXXXXXXXXXXXXXXXXXXXXXXXXooXXXXXX",
"XXXXXXXXXXXXXXXXXXXXXXXXXXXXXXXXXXXXXXXXXXXXXXXXXXXXXXooXXXXXXXX",
"XXXXXXXXXXXXXXXXXXXXXXXXXXXXXXXXXXXXXXXXXXXXXXXXXXXXXXXXXXXXXXXX",
"XXXXXXXXXXXXXXXXXXXXXXXXXXXXXXXXXXXXXXXXXXXXXXXXXXXXXXXXXXXXXXXX",
"XXXXXXX..........XXXXX.XXXXXXX.XXXXX.XXXXX...........XXXXXXXXXXX",
"XXXXXX............XXX...XXXXX...XXX...XXX.............XXXXXXXXXX",
"XXXXXX...........XXXXX...XXX...XXXX...XXXX...........XXXXXXXXXXX",
"XXXXXX...XXXXXXXXXXXXX...XXX...XXXX...XXXXXXXX...XXXXXXXXXXXXXXX",
"XXXXXX...XXXXXXXXXXXXXX...X...XXXXX...XXXXXXXX...XXXXXXXXXXXXXXX",
"XXXXXX...XXXXXXXXXXXXXX...X...XXXXX...XXXXXXXX...XXXXXXXXXXXXXXX",
"XXXXXX.........XXXXXXXXX.....XXXXXX...XXXXXXXX...XXXXXXXXXXXXXXX",
"XXXXXX..........XXXXXXXX....XXXXXXX...XXXXXXXX...XXXXXXXXXXXXXXX",
"XXXXXX.........XXXXXXXXXX...XXXXXXX...XXXXXXXX...XXXXXXXXXXXXXXX",
"XXXXXX...XXXXXXXXXXXXXXX....XXXXXXX...XXXXXXXX...XXXXXXXXXXXXXXX",
"XXXXXX...XXXXXXXXXXXXXX......XXXXXX...XXXXXXXX...XXXXXXXXXXXXXXX",
"XXXXXX...XXXXXXXXXXXXXX......XXXXXX...XXXXXXXX...XXXXXXXXXXXXXXX",
"XXXXXX...XXXXXXXXXXXXX...XX...XXXXX...XXXXXXXX...XXXXXXXXXXXXXXX",
"XXXXXX...........XXXXX...XX...XXXXX...XXXXXXXX...XXXXXXXXXXXXXXX",
"XXXXXX............XXX...XXXX...XXXX...XXXXXXXX...XXXXXXXXXXXXXXX",
"XXXXXXX..........XXXXX.XXXXXX.XXXXX...XXXXXXXX...XXXXXXXXXXXXXXX",
"XXXXXXXXXXXXXXXXXXXXXXXXXXXXXXXXXXXX.XXXXXXXXXX.XXXXXXXXXXXXXXXX",
"XXXXXXXXXXXXXXXXXXXXXXXXXXXXXXXXXXXXXXXXXXXXXXXXXXXXXXXXXXXXXXXX",
"XXXXXXXXXXXXXXXXXXXXXXXXXXXXXXXXXXXXXXXXXXXXXXXXXXXXXXXXXXXXXXXX",
"XXXXXXXXXXXXXXXXXXXXXXXXXXXXXXXXXXXXXXXXXXXXXXXXXXXXXXXXXXXXXXXX"
};
