/* XPM */
static char *_51a1206191d4c6ce2082a1ccd4f9a33EV2TbWdqV5MNPDaJ[] = {
/* columns rows colors chars-per-pixel */
"64 64 5 1 ",
"  c black",
". c #274C59",
"X c #2B8DB1",
"o c #648291",
"O c #FFE8DF",
/* pixels */
"XXXXXXXXXXXXXXXXXXXXXXXXXXXXOOOOOOOOOOOOOOOOOOOOOOOXXXXXXXXXXXXX",
"XXXXXXXXXXXXXXXXXXXXXXXXXXXXXXXXXXXXXXXXXXXXXXXXXXXXXXXXXXXXXXXX",
"XXXXXXXXXXXXXXXXXXXXXOOOOOOOOOOOOOOXXXXXXXXXXXXXXXXXXXXXXXXXXXXX",
"XXXXXXXXXXXXXXXXXXXXXXXXXXXXXXXXXXXXXXXXOOOOOOOOOOOOOOOOXXXXXXXX",
"XXXXXXXXXXXXXXOOOOOXXXXXXXXOOOOOOOOOOOXXXXXXXXXXXXXXXXXXXXXXXXXX",
"XXXXXXXXXXXXXXXXXXXXXXXXOOOOOOOOOOOOOOOOOXXOOOOOOOOOOOOOOOOXXXXX",
"XXXXXXXXXXOOXXXXXXXXXOOOOOOOOOOOOOOOOOOOOOXX       XXXXXXXXXXXXX",
"XXXXXXXXXXXXOOOOOOOXOOOOOOOOOOOOOOOOOOOOOX           XXXXXXXXXXX",
"XXXXXXXXXXXXXXXXXXXXXXXXXXOOOOOOOOOOOOXXX   OOOOOOO   XXXXXXXXXX",
"XXXXOOOOOOOOOOOOOOOXXXXXXOOOOOOOOOOXXXXX  OOoooooooOO  XXXXXXXXX",
"XXXXXXXXXXXXXXXXXXXXXOOOOOOOOOOOOOOXXXX  Ooooooooooooo  XXXXXXXX",
"XXXXXXXXXXXOOOOOOXXOOOOOOOOOOOOOOOOXOX  Ooooooooooooooo  XXXXXXX",
"XXXXXXXXXXXXXXXXXXXXXXXXXXXXOOOoo  XX  oooooooooooooooo  XXXXXXX",
"XXXXXXXXXXXXXXXXXXXXXXXXXXXX  oooo    oooooooooooooooooo  XXXXXX",
"XXXXXXXXXXXOXXOXXOOOOOOOOOOO  oooo   oooooooooooooooooooo  XXXXX",
"XXXXXXXXXXXXXXXXXXXXXXXXXXXX  ooooo o  oooooo     oooooooo  XXXX",
"XXXXXXXXXXXXXXXXXXXXOOOOOOOXX  ooo o OOooo   OOOOO  ooooooo  XXX",
"XXXXXXXXXXXXXXXXXXXXXXXXXXXXX  oo o Ooooo OOOOOOOOOO ooooooo  XX",
"XXXXXXXXXXXXXXXXXXXXXXXXXXXXX  o o Ooooo OOoo    ooOO oooooo  XX",
"XXXXXXXXXXXXXXXXXXXXXXXXXXXXX   Oo  ooo OOoo OOOO ooOO oooo   XX",
"XXXXXXXXXXXXXXXXXXXXXXXXXXXXX  Ooo   oooOoo oooooO ooOOooo    XX",
"XXXXXXXXXXXXXXXXXXXXXXXXXXXX  Oooo   ooooo oo....oO ooOOoo    XX",
"XXXXXXXXXXXXXXXXXXXXXXXXXXX  Oooooo oo    oo......oO     oo   XX",
"XXXXXXXXXXXXXXXXXXXXXXXXXXX  oooooooo OOooo........oOOOOO oo  XX",
"XXXXXXXXXXXXXXXXXXXXXXXXXX  Oooooooooooooo.............ooOoo  XX",
"XXXXXXXXXXXXXXXXXXXXXXXXX  Oooooo..oOooo.................ooo  XX",
"XXXXXXXXXXXXXXXXXXXXXXXXX  ooooo.. oooo...................o  XXX",
"XXXXXXXXXXXXXXXXXXXXXXXX  Ooooo... oOo.....................  XXX",
"XXXXXXXXXXXXXXXXXXXXXXXX  oooo.... oo.....................  XXXX",
"XXXXXXXXXXXXXXXXXXXXXXX  Ooooo.... oo.....................  XXXX",
"XXXXXXXXXXXXXXXXXXXXXXX  oooo..... o.....................  XXXXX",
"XXXXXXXXXXXXXXXXXXXXXXX  oooo.... o.....................  XXXXXX",
"XXXXXXXXXXXXXXXXXXXXXX  Ooooo.... o.....................  XXXXXX",
"XXXXXXXXXXXXXXXXXXXXXX  ooooo.... o.....................  XXXXXX",
"XXXXXXXXXXXXXXXXXXXXXX  oooo..... o....................o  XXXXXX",
"XXXXXXXXXXXXXXXXXXXXX  oooo...... oo................. ..  XXXXXX",
"XXXXXXXXXXXXXXXXXXXX  Ooooo..... oo. ..............  ....  XXXXX",
"XXXXXXXXXXXXXXXXXXXX  ooooo.... O.. ..............  ......  XXXX",
"XXXXXXXXXXXXXXXXXXXX  oooo.... O.. .............   o......  XXXX",
"XXXXXXXXXXXXXXXXXXX  oooo..... O. ............     o.......  XXX",
"XXXXXXXXXXXXXXXXXXX  ooo..... O.o ..........    XX  ........  XX",
"XXXXXXXXXXXXXXXXXX  oooo..... O. ........     XXXXX  .......  XX",
"XXXXXXXXXXXXXXXXXX  ooo...... O. .          XXXXXXXX  ......  XX",
"XXXXXXXXXXXXXXXXX  oooo...... ..         XXXXXXXXXXX  .......  X",
"XXXXXXXXXXXXXXXXX  ooo...... O.   XXXXXXXXXXXXXXXXXXX  ......  X",
"XXXXXXXXXXXXXXXXX  ooo...... o.  XXXXXXXXXXXXXXXXXXXX  ......  X",
"XXXXXXXXXXXXXXXX  oooo....  O.  XXXXXXXXXXXXXXXXXXXXXX  .....  X",
"XXXXXXXXXXXXXXXX  oooo...   o.  XXXXXXXXXXXXXXXXXXXXXX  .....  X",
"XXXXXXXXXXXXXX    ooo...   O.  XXXXXXXXXXXXXXXXXXXXXXXX  ....  X",
"XXXXXXXXXXXXX   OOooo..    o.  XXXXXXXXXXXXXXXXXXXXXXXX  ....  X",
"XXXXXXXXXXXX  OOO.oo..  X  .  XXXXXXXXXXXXXXXXXXXXXXXXXX  ..  XX",
"XXXXXXXXXX   OO...oo..  X  .  XXXXXXXXXXXXXXXXXXXXXXXXXXX    XXX",
"XXXXXXXX    O....oo....  X   XXXXXXXXXXXXXXXXXXXXXXXXXXXXX  XXXX",
"XXXXXX    O......o......  X XXXXXXXXXXXXXXXXXXXXXXXXXXXXXXXXXXXX",
"XXXXX   O................  XXXXXXXXXXXXXXXXXXXXXXXXXXXXXXXXXXXXX",
"XXXX  OO..................  XXXXXXXXXXXXXXXXXXXXXXXXXXXXXXXXXXXX",
"XXX  O....................  XXXXXXXXXXXXXXXXXXXXXXXXXXXXXXXXXXXX",
"XX  O.....................  XXXXXXXXXXXXXXXXXXXXXXXXXXXXXXXXXXXX",
"X  O...........  .........  XXXXXXXXXXXXXXXXXXXXXXXXXXXXXXXXXXXX",
"X  ...........          .  XXXXXXXXXXXXXXXXXXXXXXXXXXXXXXXXXXXXX",
"  ....         XX         XXXXXXXXXXXXXXXXXXXXXXXXXXXXXXXXXXXXXX",
"  .           XXXXXXXXXX XXXXXXXXXXXXXXXXXXXXXXXXXXXXXXXXXXXXXXX",
"      XXXXXXXXXXXXXXXXXXXXXXXXXXXXXXXXXXXXXXXXXXXXXXXXXXXXXXXXXX",
"X  XXXXXXXXXXXXXXXXXXXXXXXXXXXXXXXXXXXXXXXXXXXXXXXXXXXXXXXXXXXXX"
};
