/* XPM */
static char *dead2[] = {
/* columns rows colors chars-per-pixel */
"42 42 141 2 ",
"   c #03080A",
".  c #050D10",
"X  c #032B3E",
"o  c #042C3F",
"O  c #112934",
"+  c #052D41",
"@  c #052E41",
"#  c #062F42",
"$  c #0B3244",
"%  c #0C3447",
"&  c #0F384B",
"*  c #103648",
"=  c #12384A",
"-  c #113A4D",
";  c #123B4E",
":  c #133B4E",
">  c #143C4F",
",  c #183E51",
"<  c #164257",
"1  c #10455D",
"2  c #17465C",
"3  c #1B495F",
"4  c #22495B",
"5  c #284A5A",
"6  c #2B4D5D",
"7  c #154B64",
"8  c #194A60",
"9  c #1C4B61",
"0  c #1B4F67",
"q  c #1B5067",
"w  c #224F63",
"e  c #244F63",
"r  c #295264",
"t  c #2D5365",
"y  c #2C5466",
"u  c #2D5567",
"i  c #245369",
"p  c #275368",
"a  c #315667",
"s  c #355564",
"d  c #375766",
"f  c #305668",
"g  c #31586A",
"h  c #365B6C",
"j  c #365D6F",
"k  c #3B5A69",
"l  c #3E5C6B",
"z  c #395E6F",
"x  c #3A5F70",
"c  c #27637E",
"v  c #3C6070",
"b  c #405E6C",
"n  c #43616F",
"m  c #456371",
"M  c #476472",
"N  c #327B9B",
"B  c #5B7582",
"V  c #3582A4",
"C  c #3386AA",
"Z  c #3D87A8",
"A  c #3A8BAE",
"S  c #3C8BAD",
"D  c #368CB1",
"F  c #3D8EB2",
"G  c #3E94BA",
"H  c #438BAB",
"J  c #478CAB",
"K  c #448DAD",
"L  c #478EAD",
"P  c #408FB2",
"I  c #4291B3",
"U  c #4591B4",
"Y  c #7C95A0",
"T  c #409AC0",
"R  c #409BC3",
"E  c #409CC3",
"W  c #469DC3",
"Q  c #429CC4",
"!  c #439DC5",
"~  c #419FC7",
"^  c #42A1C9",
"/  c #44A6D1",
"(  c #44A7D2",
")  c #45A8D3",
"_  c #48A9D3",
"`  c #4FADD5",
"'  c #53AED6",
"]  c #55AFD6",
"[  c #56B0D7",
"{  c #59B1D7",
"}  c #6EBBDC",
"|  c #6FBCDD",
" . c #70BCDD",
".. c #78BFDF",
"X. c #8699A2",
"o. c #829DAA",
"O. c #859DA9",
"+. c #95A6AE",
"@. c #97A9B2",
"#. c #99ABB3",
"$. c #A0B2BB",
"%. c #A9B7BE",
"&. c #A4B9C4",
"*. c #A9B9C1",
"=. c #ACBAC1",
"-. c #ACBCC3",
";. c #A8BCC5",
":. c #A9BDC6",
">. c #B0BDC4",
",. c #B2BEC4",
"<. c #B4C0C6",
"1. c #B5C1C6",
"2. c #B7C2C7",
"3. c #B3C3CB",
"4. c #B7C3C8",
"5. c #B6C5CC",
"6. c #B8C3C9",
"7. c #BCC6CB",
"8. c #B9CAD2",
"9. c #BCCBD2",
"0. c #BDCCD3",
"q. c #B4DCED",
"w. c #C3CDD1",
"e. c #C1CED3",
"r. c #C7E5F1",
"t. c #CBE7F2",
"y. c #CCE7F3",
"u. c #D3EAF4",
"i. c #D5EBF5",
"p. c #E0E5E7",
"a. c #E3E7E9",
"s. c #E5E9EB",
"d. c #EBF5FA",
"f. c #EEF7FB",
"g. c #F2F5F6",
"h. c #F2F9FC",
"j. c #F3F9FC",
"k. c #F8F9FA",
"l. c gray98",
"z. c gray99",
"x. c white",
/* pixels */
"X X X X X X X X X 4.z.x o o o x.l.X X X X X X X X X X X X X X X X X X X X X X X X X ",
"X X X X X X X X o v / ) ) / ) ) 0 X l.X X X X X X X X X X X X X X X X X X X X X X X ",
"X X X X X X X X X <.X / ) ) ) ) ) ) 0 <.7.k.k.l.k.k.k.k.l @ X X X X X X X X X X X X ",
"X X X X X X X X X X <.X / ) ) ) ) ) / q @ ) ) ) ) ) ) ) @ @ 5.l X X X X X X X X X X ",
"X X X X X X X X X X X 6.H ) ) ) ) ) ) ) ) ) ) ) ) ) ) ) ) ) ) # 5.l + X X X X X X X ",
"X X X X X X X X X X X X h / ) ) ) ) ) ) ) ) ) ) ) ) ) ) ) ) ) ) / + g.X X X X X X X ",
"X X X X X X X X X X X X m C ) ) ) ) ) ) ) ) ) ) ) ) ) ) ) ) ) ) ) ) 8 4.o X X X X X ",
"X X X X X X X X X X X $ g ) ) ) ) ) ) ) ) ) ) ) ) ) ) ) ) ) ) ) O   / w l X X X X X ",
"X X X X X X X X X X $ h S ) ) ) ) ) ) ) ) ) ) ) ) ) ) ) ) ) ) ) ) ) ) ) @ s X X X X ",
"X X X X X X X X X X >.K ) ) ) ) ) ) ) ) ) ) ) ) ) ) ) ) ) ) ) ) ) ) ) ) 8 n X X X X ",
"X X X X X X X X X 6.$ ) ) ) ) ) ) ) ) ) ) ) ) ) ) ) ) ) ) ) ) ) V ) ) ) / 0.o X X X ",
"X X X X X X X X X v A ) ) ) ) ) ) ) ) ) ) ) ) ) ) ' _ ) ) ) ) ) N ) Q ) ) 8.o o X X ",
"X X X X X X X X 4.$ ) ) ) ) ) ) ) ) ` ) ) ) ) / i.x.x.x.' ) ) ) )   ) ) ) 8.X X X X ",
"X X X X X X X X =.S ) ) ) ) ) ) ` u.j.) ) ) ' x.x.x.x.x.x.x.] ) ) ) ) ) 1 e.X X X X ",
"X X X X X X X = g ) ) ) ) ) ) ] x.j.) ) ] u.j.f.) ) ) ) ) ) r.f.) ) ) ) ) 9.o X X X ",
"X X X X X X X 4.K ) ) ) ) ) i.x.j.[ i.x.f.| ) Q 8 - ; - - - Z Q ) ) ) ) ) @ s X X X ",
"X X X X X X X %.H ) ) ) ) u.x.x.x.x.f./ E 8 > =.s.X X X X X s.v @ E / ) ) 9 s @ X X ",
"X X X X X X X z / ) ) ) t.x.x.x.x.} ) 8 , a.@ X X X X X X X X X ,.l Z ) / w s X X X ",
"X X X X X X X j ) ) ) ) x.x.x.f.) Q & *.X X X X X X X X X X X X o X n o W 4 s X X X ",
"X X X X X X o j ) ) ) y.x.x.x.) 7 - k X X X X X X X X X X X X X o o o %.p.p.X X X X ",
"X X X X X X X j ) ) ) u.x.x. .Q - k X X X X X X X X X X X X X X X X X X X X X X X X ",
"X X X X X X , y ) ) [ x.x.| Q - k X X X X X X X X X X X X X X X X X X X X X X X X X ",
"X X X X X X 4.K ) ) t.x.f.T ; k + X X X X X X X X X X X X X X X X X X X X X X X X X ",
"X X X X o @ <.K ) / u.d./ w M X X X X X X X X X X X X X X X X X X X X X X X X X X X ",
"X X X X X X <.K ) ) x.| 8 $.X X X X X X X X X X X X X X X X X X X X X X X X X X X X ",
"X X X X X X 2.K ) { ..R :.+ X X X X X X X X X X X X X X X X X X X X X X X X X X X X ",
"X X X X o o <.K ) t./ e m X X X X X X X X X X X X X X X X X X X X X X X X X X X X X ",
"X X X X o o 2.K ) q.T :.X X X X X X X X X X X X X X X X X X X X X X X X X X X X X X ",
"X X X X o X <.K ) ) i M X X X X X X X X X X X X X X X X X X X X X X X X X X X X X X ",
"X X X X o X 2.K ) ) e M X X X X X X X X X X X X X X X X X X X X X X X X X X X X X X ",
"X X X X X X +.$ ) ) &.X X X X X X X X X X X X X X X X X X X X X X X X X X X X X X X ",
"X X X X X o o j ) ) o.* X X X X X X X X X X X X X X X X X X X X X X X X X X X X X X ",
"X X X X o X X z Q ) 2 O.s X X X X X X X X X X X X X X X X X X X X X X X X X X X X X ",
"X X X X o 5 #.< D ) ) c % 0.B s X o X X X X X X X X X X X X X X X X X X X X X X X X ",
"X X X X 5 y 3 ) ) ) ) ) ) ) 8 % <.$ X X X X X X X X X X X X X X X X X X X X X X X X ",
"X X X #.t F ) ) ) ) ) ) ) ) ) ( N o.* X X X X X X X X X X X X X X X X X X X X X X X ",
"X X #.< / ) ) ) ) ) ) ) ) ) ) ) ) r m X X X X X X X X X X X X X X X X X X X X X X X ",
"X @.2 ) ) ) ) ) ) 1 ) ) ) F U I ^ c 4.X X X X X X X X X X X X X X X X X X X X X X X ",
"6 r ^ ) ) ) ) F U 4 t t y #.w.w.a y #.X X X X X X X X X X X X X X X X X X X X X X X ",
",.J ) G 9 y f #.w.s X o o o o @ X X X X X X X X X X X X X X X X X X X X X X X X X X ",
">.J 8 s 9.X X X o o X X X X X X X X X X X X X X X X X X X X o o X X X X X X X X X X ",
"X.o Y o o X X X X X X X X X X X X X X X X X X X X X X X X X X o X X X X X X X X X X "
};
