/* XPM */
static char *dead1[] = {
/* columns rows colors chars-per-pixel */
"42 42 62 1 ",
"  c #03080A",
". c #032B3E",
"X c #112934",
"o c #042D41",
"O c #063045",
"+ c #13394B",
"@ c #0C3D53",
"# c #0D3E55",
"$ c #0F4259",
"% c #0F435B",
"& c #10445C",
"* c #11455E",
"= c #12475F",
"- c #134962",
"; c #144B64",
": c #144C65",
"> c #144C66",
", c #1E5F7C",
"< c #385B6B",
"1 c #2C799C",
"2 c #327B9B",
"3 c #3182A6",
"4 c #3183A7",
"5 c #3284A8",
"6 c #3285AA",
"7 c #3386AA",
"8 c #3488AD",
"9 c #358AAF",
"0 c #368CB1",
"q c #3992B9",
"w c #3C98C0",
"e c #3D99C2",
"r c #3E9BC4",
"t c #3E9CC4",
"y c #3F9EC7",
"u c #40A0C9",
"i c #41A0CA",
"p c #44A7D1",
"a c #44A7D2",
"s c #45A8D3",
"d c #48A9D3",
"f c #4FADD5",
"g c #52AED6",
"h c #55AFD6",
"j c #56B0D7",
"k c #59B1D7",
"l c #6EBBDC",
"z c #6FBCDD",
"x c #70BCDD",
"c c #78BFDF",
"v c #B4DCED",
"b c #C7E5F1",
"n c #CBE6F2",
"m c #CCE7F3",
"M c #D2EAF4",
"N c #D3EAF4",
"B c #D5EBF5",
"V c #EBF5FA",
"C c #EEF7FB",
"Z c #F1F8FB",
"A c #F2F9FC",
"S c white",
/* pixels */
"..........................................",
"..........ssssss:.........................",
"...........sssssss:.......................",
"............pssssss:osssssssoo............",
"............4sssssssssssssssssso..........",
".............psssssssssssssssssss.........",
".............6ssssssssssssssssssss-.......",
".............sssssssssssssssssssX s*......",
"............6sssssssssssssssssssssss......",
"...........6ssssssssssssssssssssssss*.....",
"..........Osssssssssssssssssssss5ssss.....",
"..........8ssssssssssssssgdsssss2srss.....",
".........OssssssssfdssspBSSSgssss dsp.....",
".........6ssssssfNAsssgSSSSSSShsssds%.....",
".........sssssshSAsshNACssssspbCsssss.....",
"........6sssssMSAhBSClsr*.....4rssssso....",
"........6ssspMSSSSCpt-...........rsss&....",
"........ssssmSSSSlp-..............4ps*....",
"........ssssSSSCst..................r$....",
".......1sspmSSSp;.........................",
"........sssMSSxr..........................",
"........ssjSSlr...........................",
".......6ssnSCr............................",
".......5spMVp-............................",
".......5ssSl*.............................",
".......5skcr..............................",
".......5snp*..............................",
".......5pvw...............................",
".......5ss;...............................",
".......5ss-o..............................",
"........ss................................",
"........sp................................",
"........ip&...............................",
".......#0ss,oo............................",
"......*sssssss&o..........................",
".....0ssssssssss,.........................",
"...#ssssspssssssp-........................",
"..#ssssss&sss000i,........................",
"..pssss80.....o...........................",
".4sq*.....................................",
".5*.......................................",
".<+......................................."
};
