/* XPM */
static char *f3f7c3d5a9144f87bffb5fa4b713e75djG0UYYrBsp1xRoKu[] = {
/* columns rows colors chars-per-pixel */
"42 42 15 1 ",
"  c black",
". c #010406",
"X c #010709",
"o c #010A0F",
"O c #010E14",
"+ c #021017",
"@ c #021118",
"# c #02151E",
"$ c #021721",
"% c #03212F",
"& c #032130",
"* c #032535",
"= c #032738",
"- c #03293B",
"; c #032B3E",
/* pixels */
";        ;;        ;;=                  ;;",
"          ;         ;                    ;",
"          ;         ;                    ;",
"          ;         ;                    ;",
"          ;        .;                    ;",
"          ;         ;                    ;",
"          ;         ;                    ;",
"          ;         ;                    ;",
"         o;         ;o                   ;",
";oooooooo;;         ;;oooo=ooooooooooo*oo;",
";%%%%%%%&;;         ;;%%%%%%%%%%%%%%%%%%;;",
"          ;         ;                   o;",
"          ;         ;                    ;",
"          ;         ;                    ;",
"          ;         ;                   .;",
"          ;         ;                    ;",
"          ;         ;+                   ;",
"          ;         ;$                   ;",
"          ;         ;                    ;",
"#        #;#        ;                    ;",
";;;;;;;;;;;;;;;;;;;;;                    ;",
";     #             ;                   .;",
"                    ;                    ;",
"                    ;                    ;",
"                    ;                    ;",
"                    ;                    ;",
"                    ;                    ;",
"                    ;                   X;",
"                    ;                    ;",
";                   ;                    ;",
";%%%%%%%%%%&;%%%%%%;;;%%%%%%%;%%%%%%%%%%&;",
";oooooooo;;;ooooo-ooooOooooooo;;*ooooooo@;",
"          ;                   X;         ;",
"          ;                   X*         ;",
";         ;                   X*         ;",
"          ;                   X*         ;",
"          ;                   X*         ;",
"          ;                   X*         ;",
"          ;                   X*         ;",
"          ;                   X*         ;",
";        ;;                   ;;*       o;",
";;;;;;;;;;;;;;;;;;;;;;;;;;;;;;;;;;;;;;;;;;"
};
