/* XPM */
static char *e6e09199d2ba49afba9d4fbfb7c70dfaNXnFY2e8kDBebQYS[] = {
/* columns rows colors chars-per-pixel */
"42 42 80 1 ",
"  c black",
". c #1E1E1E",
"X c #0C1D24",
"o c #032B3E",
"O c #0B3B51",
"+ c #0D3E54",
"@ c #0E4158",
"# c #10445B",
"$ c #12475F",
"% c #124861",
"& c #144B64",
"* c #144C66",
"= c #1F4D61",
"- c #164F69",
"; c #16506A",
": c #18536E",
"> c #195570",
", c #1B5A76",
"< c #1E5E7B",
"1 c #1E5F7C",
"2 c #275F77",
"3 c #1F617F",
"4 c #206280",
"5 c #216482",
"6 c #246B8A",
"7 c #256D8C",
"8 c #287292",
"9 c #2F7390",
"0 c #2A7697",
"q c #2C789A",
"w c #2F7FA2",
"e c #3183A7",
"r c #3285AA",
"t c #368CB2",
"y c #378FB5",
"u c #3A94BC",
"i c #3E9BC3",
"p c #3F9DC6",
"a c #409EC7",
"s c #409FC8",
"d c #40A0C9",
"f c #42A2CC",
"g c #43A4CE",
"h c #43A6D0",
"j c #45A8D3",
"k c #59B1D7",
"l c #5DB3D8",
"z c #7CB4CD",
"x c #61B5D9",
"c c #66B7DA",
"v c #6AB9DB",
"b c #6FBBDC",
"n c #6FBCDD",
"m c #72BDDD",
"M c #74BEDE",
"N c #78BFDF",
"B c #7CC2E0",
"V c #81C4E1",
"C c #87C6E2",
"Z c #8AC8E3",
"A c #98CEE6",
"S c #9AD0E7",
"D c #ABD8EB",
"F c #B4DCED",
"G c #B9DEEE",
"H c #BDE0EF",
"J c gray87",
"K c #C1E2F0",
"L c #C9E6F2",
"P c #CCE7F3",
"I c #CEE8F3",
"U c #D1E9F4",
"Y c #D5EBF5",
"T c #D7ECF5",
"R c #D8ECF5",
"E c #DDEFF7",
"W c #DFF0F7",
"Q c #E1F1F7",
"! c #E8F4F9",
"~ c white",
/* pixels */
"oooooooooooooooooooooooooooooooooooooooooo",
"ooooooooooohjjjjj7oooooooooooooooooooooooo",
"oooooooooooogjjjjjj7oooooooooooooooooooooo",
"ooooooooooooofjjjjjj7ojjjjjjjooooooooooooo",
"ooooooooooooo<jjjjjjjjjjjjjjjjjjoooooooooo",
"oooooooooooooosjjjjjjjjjjjjjjjjjjjoooooooo",
"oooooooooooooo5jjjjjjjjjjjjjjjjjjjj6oooooo",
"oooooooooooooojjjjjjjjjjjjjjjjjjj=Xj3ooooo",
"ooooooooooooo8jjjjjjjjjjjjjjjjjjjkvjjooooo",
"oooooooooooo4jjjjjjjjjjjjjjjjjjjj~Jzj1oooo",
"oooooooooooojjjjjjjjjjjjjjjjjjjjj~ 2jjoooo",
"ooooooooooo0jjjjjjjjjjjjjjNljjjjj!.9jjoooo",
"ooooooooooOjjjjjjjjxxjjjjK~~~Bjjjjjjjjoooo",
"oooooooooo4jjjjjjxHQjjjx~~~~~~~Vjjjjj1oooo",
"oooooooooojjjjjjC~WjjCKEHjjjjjjCHjjjjjoooo",
"ooooooooo3jjjjjK~EZK~GBjq;ooooo>qjjjjj+ooo",
"ooooooooo3jjjjK~~~~Fjy-ooooooooooo0jjj<ooo",
"ooooooooojjjjS~~~~Bj-oooooooooooooo:jj<ooo",
"ooooooooojjjj~~~Tjtoooooooooooooooooo7$ooo",
"oooooooo3jjjL~~Yj*oooooooooooooooooooooooo",
"oooooooo3jjb~~Uj&ooooooooooooooooooooooooo",
"oooooooo3jjI~Uj%oooooooooooooooooooooooooo",
"oooooooojjj~~m%ooooooooooooooooooooooooooo",
"oooooooojjM~nroooooooooooooooooooooooooooo",
"oooooooojjAProoooooooooooooooooooooooooooo",
"oooooooojjRj#ooooooooooooooooooooooooooooo",
"oooooooojjDeoooooooooooooooooooooooooooooo",
"oooooooojjc@oooooooooooooooooooooooooooooo",
"oooooooojjjooooooooooooooooooooooooooooooo",
"oooooooojjwooooooooooooooooooooooooooooooo",
"oooooooo3j7ooooooooooooooooooooooooooooooo",
"oooooooo3j7ooooooooooooooooooooooooooooooo",
"oooooooo3jpooooooooooooooooooooooooooooooo",
"ooooooo>ijjp4ooooooooooooooooooooooooooooo",
"ooooooujjjjjjju4oooooooooooooooooooooooooo",
"oooooajjjjjjjjjjdooooooooooooooooooooooooo",
"ooo,jjjjjjjjjjjjj6oooooooooooooooooooooooo",
"oo,jjjjjjojjjooo6foooooooooooooooooooooooo",
"oojjjjjooooooooooooooooooooooooooooooooooo",
"o<j0oooooooooooooooooooooooooooooooooooooo",
"o<oooooooooooooooooooooooooooooooooooooooo",
"oooooooooooooooooooooooooooooooooooooooooo"
};
