/* XPM */
static char *eel_e2[] = {
/* columns rows colors chars-per-pixel */
"42 42 159 2 ",
"   c black",
".  c #030305",
"X  c #010508",
"o  c #06060A",
"O  c #07070C",
"+  c #050B0D",
"@  c #0A090F",
"#  c #060D10",
"$  c #0B0A11",
"%  c #080F11",
"&  c #0F0E17",
"*  c #081216",
"=  c #091419",
"-  c #0B151A",
";  c #0A161B",
":  c #0D191E",
">  c #12111C",
",  c #0F1A22",
"<  c #0D1C22",
"1  c #0D1F27",
"2  c #121721",
"3  c #151421",
"4  c #161522",
"5  c #171624",
"6  c #181726",
"7  c #121F26",
"8  c #1B1929",
"9  c #1E1C2E",
"0  c #0D212A",
"q  c #112229",
"w  c #162329",
"e  c #10242D",
"r  c #1A272D",
"t  c #032332",
"y  c #032B3E",
"u  c #112833",
"i  c #1D2B33",
"p  c #1E2B32",
"a  c #1E2C34",
"s  c #112B38",
"d  c #152D39",
"f  c #142E3B",
"g  c #122E3D",
"h  c #162F3C",
"j  c #19323E",
"k  c #1C323E",
"l  c #222034",
"z  c #212F37",
"x  c #213038",
"c  c #23333B",
"v  c #490F0E",
"b  c #0C3042",
"n  c #0E3344",
"m  c #0F3344",
"M  c #123342",
"N  c #143140",
"B  c #103445",
"V  c #123546",
"C  c #153544",
"Z  c #153747",
"A  c #1F3641",
"S  c #1E3843",
"D  c #193847",
"F  c #1C3845",
"G  c #1F3844",
"H  c #1B3B4B",
"J  c #1D3B49",
"K  c #193E4F",
"L  c #1A3E50",
"P  c #203844",
"I  c #203A46",
"U  c #21404E",
"Y  c #214150",
"T  c #224251",
"R  c #264553",
"E  c #214455",
"W  c #234656",
"Q  c #284553",
"!  c #2D4C5B",
"~  c #2C4D5D",
"^  c #2D4E5E",
"/  c #2E4F5F",
"(  c #314E5C",
")  c #33505D",
"_  c #36515E",
"`  c #39535F",
"'  c #2F5060",
"]  c #335363",
"[  c #365665",
"{  c #3A5461",
"}  c #3E5A67",
"|  c #3A5968",
" . c #435C67",
".. c #455D68",
"X. c #445F6B",
"o. c #47606B",
"O. c #45606C",
"+. c #48626F",
"@. c #456270",
"#. c #466371",
"$. c #496673",
"%. c #4E6570",
"&. c #4B6775",
"*. c #4C6876",
"=. c #4F6B78",
"-. c #506874",
";. c #516974",
":. c #526A76",
">. c #556D78",
",. c #546F7C",
"<. c #596F79",
"1. c #57717E",
"2. c #5B707A",
"3. c #5B727D",
"4. c #97201E",
"5. c #9B211F",
"6. c #E4312E",
"7. c #5B7582",
"8. c #5C7682",
"9. c #5F7985",
"0. c #627B87",
"q. c #677D87",
"w. c #687E88",
"e. c #6A818C",
"r. c #6D838D",
"t. c #6C838E",
"y. c #6F8691",
"u. c #708690",
"i. c #728892",
"p. c #7F919A",
"a. c #84949B",
"s. c #86959B",
"d. c #82949D",
"f. c #84969F",
"g. c #88979D",
"h. c #8B999F",
"j. c #8597A0",
"k. c #8799A1",
"l. c #8D9BA1",
"z. c #92A0A7",
"x. c #93A1A8",
"c. c #95A2A8",
"v. c #96A4AA",
"b. c #99A5AA",
"n. c #98A5AC",
"m. c #9DA9AE",
"M. c #99A9B1",
"N. c #9BABB2",
"B. c #A1ACB1",
"V. c #A0ACB2",
"C. c #A1B0B7",
"Z. c #A7B2B7",
"A. c #A5B3BA",
"S. c #A7B5BB",
"D. c #A9B4B9",
"F. c #ABB6BB",
"G. c #AAB7BD",
"H. c #AEBBC1",
"J. c #E1E6E8",
/* pixels */
"y y y y y y y y y y y y y y y y y y y y y y y y y y y y y y y y y y y y y y y y y y ",
"y y y y y y y y y y y y y y y y y y y y y y y y y y y y y y y y y y y y y y y y y y ",
"y y y y y y y y y y y y y y y y y y y y y y y y y y y y y y y y y y y y y y y y y y ",
"y y y y y y y y y y y y y y y y y y y y y y y y y y y y y y y y y y y y y y y y y y ",
"y y y y y y y y y y y y y y y y y y y y y y y y y y y y y y y y y y y y y y y y y y ",
"y y y y y y y y y y y y y y y y y y y y y y y y y y y y y y y y y y y y y y y y y y ",
"y y y y y y y y y y y y y y y y y y y y y y y y y y y y y y y y y y y y y y y y y y ",
"y y y y y y y y y y y y y y y y y y y y y y y y y y y y y y y y y y y y y y y y y y ",
"y y y y y y y y y y y y y y y y y y y y y y y y y y y y y y y y y y y y y y y y y y ",
"y y y y y y y y y y y y y y y y y y y y y y y y y y y y y y y y y y y y y y y y y y ",
"y y y y y y y y y y y y y y y y y y y y y y y y y y y y y y y y y y y y y y y y y y ",
"y y y y y y y y y y y y y y y y y y y y y y y y y y y y y y y y y y y y y y y y y y ",
"y y y y y y y y y y y y y y y y y y y y y y y y y y y y y y y y y y y y y y y y y y ",
"y y y y y y y y y y y y y y y y y y y y y y y y y u.3.] y y y y y y y y y y y y y y ",
"y y y y y y y y y y y M.n.n.M.y y y y y y y y y y { : v.y y y y y y y y y y y y y y ",
"y y y y y y y y M.:...S k z C ..>.M.y y y y y M.w.d   l.y y y y y y y y y y y y y y ",
"y y y y y y 9.%.P #             = C :.M.y y q.I q     l.y y y y y y y y y y y y y y ",
"y y y y y y.C %                     = C :.q.d         l.y y y y y y y y y y y y y y ",
"y y y y w.h                             = 1         1 n.y y y y y y y y y y y y y y ",
"y y y r.h                                           C 1.y y y y y y y y y y y y y y ",
"y y 0.C                                           B u.C.C.[ y y y y y y y y y y y y ",
"y y +.*                       d G G s       1 I %.u.! a x R f.y y y y y y y y y y y ",
"y M.P                 1 A B f.y.8.8.d.h.s.s.z.8.E y j.T * 3 D ,.y y y y y y y y y y ",
"y r.w             j +.x.8.8.y y y y y y y A.A.| y y y G.p l , c.A.A.A.A.A.A.y y y y ",
"y +.          q O.u.W y y y y y y y S.X.` A z U +.S.b | T 3 $ u a a a a p m } l.y y ",
"y  .        1 %.E y b y y y y y y w.A +         * C d...b X   3 $ $ $ $ $ 3 o H =.y ",
"M.I         j 0.y y y y y y y y y :.B l.R =         < 2 & + .       4.      + G =.y ",
"M.c       > 2 s.y y y y y y y y y [ 3.y J.y t         $           5.6.v       B =.y ",
"] Q       3 8 N f.y y y y y y y y y.w._ k 2 3 l l                   v       b e.y y ",
"y +.        l 8 B p...y y y u.H.} n 7 3 9 l $ .                           0 N.y y y ",
"y >.=       3 l 8 w H _ _ _ n r 2 6 l > $                               e 0.L y y y ",
"y M.M         5 l l 5 5 5 5 5 l l > .                               0 B N.H y y y y ",
"y y :.:         o @ l l l l > @                                 g m B.=.y y y y y y ",
"y y ' ( :                                               N G 3.m.e.*.y y y y y y y y ",
"y y y / ( :                                   h m b.m.B.e.&.L y y y y y y y y y y y ",
"y y y y / _ g                           0 B N.r.$.y y y y y y y y y y y y y y y y y ",
"y y y y y / k.) D =               0 I y Z.$.y y y y y y y y y y y y y y y y y y y y ",
"y y y y y y y ! @.D.B.( G H J <.B.D.@.@.y y y y y y y y y y y y y y y y y y y y y y ",
"y y y y y y y y y y y / @.@.@.L y y y y y y y y y y y y y y y y y y y y y y y y y y ",
"y y y y y y y y y y y y y y y y y y y y y y y y y y y y y y y y y y y y y y y y y y ",
"y y y y y y y y y y y y y y y y y y y y y y y y y y y y y y y y y y y y y y y y y y ",
"y y y y y y y y y y y y y y y y y y y y y y y y y y y y y y y y y y y y y y y y y y "
};
