/* XPM */
static char *eel_s2[] = {
/* columns rows colors chars-per-pixel */
"42 42 89 1 ",
"  c #000000",
". c #050609",
"X c #050B0D",
"o c #09080E",
"O c #040E12",
"+ c #0C0B13",
"@ c #091215",
"# c #0A161B",
"$ c #0D191E",
"% c #13121E",
"& c #0E1A22",
"* c #021C28",
"= c #151320",
"- c #181726",
"; c #101C24",
": c #1C1A2B",
"> c #0D212A",
", c #13232B",
"< c #032B3E",
"1 c #142832",
"2 c #1C2C34",
"3 c #132E3B",
"4 c #15303E",
"5 c #1E313B",
"6 c #222034",
"7 c #22323B",
"8 c #0E3243",
"9 c #133343",
"0 c #1C3642",
"q c #1C3846",
"w c #153748",
"e c #1B3C4C",
"r c #1B3F50",
"t c #223C49",
"y c #1C4051",
"u c #23404E",
"i c #244555",
"p c #284655",
"a c #2A4857",
"s c #27495A",
"d c #2C4D5C",
"f c #324F5D",
"g c #34515F",
"h c #335362",
"j c #395664",
"k c #3C5866",
"l c #3C5B69",
"z c #405965",
"x c #455E69",
"c c #44616F",
"v c #4B636E",
"b c #466371",
"n c #4F6773",
"m c #4F6873",
"M c #516A76",
"N c #546F7C",
"B c #586E78",
"V c #56717D",
"C c #5C747F",
"Z c #60757E",
"A c #95201E",
"S c #A12220",
"D c #B62724",
"F c #BD2826",
"G c #5B7582",
"H c #5F7985",
"J c #627781",
"K c #627B87",
"L c #697E89",
"P c #6C838D",
"I c #6F8691",
"U c #728791",
"Y c #738892",
"T c #7F8F97",
"R c #7A8F98",
"E c #7D919A",
"W c #84959C",
"Q c #89979E",
"! c #89989F",
"~ c #8D9CA2",
"^ c #909EA4",
"/ c #92A0A6",
"( c #95A6AE",
") c #9DACB4",
"_ c #A4AFB4",
"` c #A2B0B7",
"' c #A8B2B7",
"] c #A5B3BA",
"[ c #ACB7BC",
/* pixels */
"<<<<<<<<8<sbb['Icc<<<<<<<<<<<<<<<<<<<<<<<<",
"<<<<<<<<d~dq9# 3w9_Pr<<<<<<<<<<<<<<<<<<<<<",
"<<<<<<<dg3         9Jb<<<<<<<<<<<<<<<<<<<<",
"<<<<<8df$           >8P<<<<<<<<<<<<<<<<<<<",
"<<<<<df$              8P<<<<<<<<<<<<<<<<<<",
"<<<<<n$    .-6+        8V<<<<<<<<<<<<<<<<<",
"<<<<)9    -6:,w8X      >Cy<<<<<<<<<<<<<<<<",
"<<<<M#   %6:4WcU9X      0P<<<<<<<<<<<<<<<<",
"<<<hp    6:9T<<<]5       By<<<<<<<<<<<<<<<",
"<<<)7   .6&Q<<<<<xX      tV<<<<<<<<<<<<<<<",
"<<<)2   =65H<<<<<]2      3P<<<<<<<<<<<<<<<",
"<<<m#   =6qH<<<<<I9       /<<<<<<<<<<<<<<<",
"<<<x    =6qJ8<<<<<k       ~<<<<<<<<<<<<<<<",
"<<<x    =6qK<<<<<<L;      ~<<<<<<<<<<<<<<<",
"<<<nX    6,~<<<<<<]0     3~<<<<<<<<<<<<<<<",
"<<<)2    :+vy8<<<<<j     qV<<<<<<<<<<<<<<<",
"<<<)7    =6qG8lH<<<k     aj8<<<<<<<<<<<<<<",
"<<<K9     6,~8MwU<<k    3W<<<<<<<<<<<<<<<<",
"<<<<m.    ==8GL;vi'9    ah<<<<<<<<<<<<<<<<",
"<<<<E,     68I`2tG'2   3W8<<<<<<<<<<<<<<<<",
"<<<<Kw     :+xr@4U]2   ah<<<<<<<<<<<<<<<<<",
"<<<<<P,    +2*@. !]2   8U<<<<<<<<<<<<<<<<<",
"<<<<<)q     6#  #^P9    8U<<<<<<<<<<<<<<<<",
"<<<<<<x     =+  0G<cX    ~<<<<<<<<<<<<<<<<",
"<<<<<<P,    +o  aj<]0    9UL<<<<<<<<<<<<<<",
"<<<<<<)2       4W<<PL4    3eN<<<<<<<<<<<<<",
"<<<<<<`2      .zs<]uzPw7557hh<<<<<<<<<<<<<",
"<<<<<<)q      %q`Ee@!<K((((h<<<<<<<<<<<<<<",
"<<<<<<<z      +&9;+#^<<<<<<<<<<<<<<<<<<<<<",
"<<<<<<<mO      +=6%qG<<<<<<<<<<<<<<<<<<<<<",
"<<<<<<<)2      oO1aE<<<<<<<<<<<<<<<<<<<<<<",
"<<<<<<<)0      +.Wh8<<<<<<<<<<<<<<<<<<<<<<",
"<<<<<<<<x       oQ<<<<<<<<<<<<<<<<<<<<<<<<",
"<<<<<<<<U,   DA oQ<<<<<<<<<<<<<<<<<<<<<<<<",
"<<<<<<<<Ve   FS +Q<<<<<<<<<<<<<<<<<<<<<<<<",
"<<<<<<<<<Y,     oW<<<<<<<<<<<<<<<<<<<<<<<<",
"<<<<<<<<<Ve@   o.Q<<<<<<<<<<<<<<<<<<<<<<<<",
"<<<<<<<<<<Vu1  =3E<<<<<<<<<<<<<<<<<<<<<<<<",
"<<<<<<<<<<<VU4 .wG<<<<<<<<<<<<<<<<<<<<<<<<",
"<<<<<<<<<<<<<YZJR<<<<<<<<<<<<<<<<<<<<<<<<<",
"<<<<<<<<<<<<<<<<<<<<<<<<<<<<<<<<<<<<<<<<<<",
"<<<<<<<<<<<<<<<<<<<<<<<<<<<<<<<<<<<<<<<<<<"
};
