/* XPM */
static char *eel_n3[] = {
/* columns rows colors chars-per-pixel */
"42 42 49 1 ",
"  c black",
". c #030305",
"X c #040406",
"o c #040407",
"O c #01060A",
"+ c #01070A",
"@ c #07070C",
"# c #08070C",
"$ c #010B0F",
"% c #09090E",
"& c #010B10",
"* c #010E14",
"= c #0A0A10",
"- c #090F17",
"; c #0D0C14",
": c #0F0E17",
"> c #021017",
", c #02121A",
"< c #02141C",
"1 c #091019",
"2 c #0D121C",
"3 c #13121D",
"4 c #340B0A",
"5 c #021620",
"6 c #031620",
"7 c #021822",
"8 c #021924",
"9 c #031A25",
"0 c #031D2A",
"q c #111420",
"w c #181625",
"e c #191827",
"r c #1A1828",
"t c #1D1B2C",
"y c #1F1D30",
"u c #03202F",
"i c #03212F",
"p c #032130",
"a c #032332",
"s c #032535",
"d c #032637",
"f c #032839",
"g c #03293B",
"h c #032B3E",
"j c #222034",
"k c #661614",
"l c #7A1A18",
"z c #AE2523",
"x c #E4312E",
/* pixels */
"hhhhhhhhhhhhhhhhhhhhhhhhhhhhhhhhhhhhhhhhhh",
"hhhhhhhhhhhhhhhhhhhhhhhhhh85fhhhhhhhhhhhhh",
"hhhhhhhhhhhhhhhhhhhhhhhhhh;. dhhhhhhhhhhhh",
"hhhhhhhhhhhhhhhhhhhhhhhhh8r   >hhhhhhhhhhh",
"hhhhhhhhhhhhhhhhhhhhhhhhh$#    >hhhhhhhhhh",
"hhhhhhhhhhhhhhhhhhhhhhhhh$# l   shhhhhhhhh",
"hhhhhhhhhhhhhhhhhhhhhhhhh$#zx4  >hhhhhhhhh",
"hhhhhhhhhhhhhhhhhhhhhhhhh$# k    fhhhhhhhh",
"hhhhhhhhhhhhhhhhhhhhhhhhh$@      ahhhhhhhh",
"hhhhhhhhhhhhhhhhhhhhhhhhh0r       hhhhhhhh",
"hhhhhhhhhhhhhhhhhhhhhhh823 X      hhhhhhhh",
"hhhhhhhhhhhhhhhhhhhhhhhej;+X      ahhhhhhh",
"hhhhhhhhhhhhhhhhhhhhhh&<8hh=      ahhhhhhh",
"hhhhhhhhhhhhhhh8    ,h&hhhh1@      hhhhhhh",
"hhhhhhhhhhhhhhhhh+   *hhhhh$       hhhhhhh",
"hhhhhhhhhhhhhhhhhh    dhhh7        hhhhhhh",
"hhhhhhhhhhhhhhhhhh+   *hhh.  j     fhhhhhh",
"hhhhhhhhhhhhhhhhhhh+   hhh   j+    ahhhhhh",
"hhhhhhhhhhhhhhhhhhhh   ih$  fr#     hhhhhh",
"hhhhhhhhhhhhhhhhhhh7   phi <h-j     shhhhh",
"hhhhhhhhhhhhhhhhhhh.   phh hhit#    *hhhhh",
"hhhhhhhhhhhhhhhhhh7    fhh+hhhww     hhhhh",
"hhhhhhhhhhhhhhhhhh.    hhhpshh&jo    ahhhh",
"hhhhhhhhhhhhhhhhh7     hhhhhhhhrw    *hhhh",
"hhhhhhhhhhhhhhhhh*     hhhhhhhh-j     hhhh",
"hhhhhhhhhhhhhhhhh      hhhhhhhh$j#    hhhh",
"hhhhhhhhhhhhhhhh<      hhhhhhhhhre    phhh",
"hhhhhhhhhhhhhhhh*      shhhhhhhhrj    ahhh",
"hhhhhhhhhhhhhhhh&      uhhhhhhhhrj    ahhh",
"hhhhhhhhhhhhhhhhu      &hhhhhhhhej    hhhh",
"hhhhhhhhhhhhhhhhh       hhhhhhhhej    hhhh",
"hhhhhhhhhhhhhhhhh$      phhhhhh&j%   8hhhh",
"hhhhhhhhhhhhhhhhhp       hhhhh6yj    ahhhh",
"hhhhhhhhhhhhhhhhhh&      &hhh6yj:    hhhhh",
"hhhhhhhhhhhhhhhhhhh       $*qyj%    phhhhh",
"hhhhhhhhhhhhhhhhhhhp        %%     9hhhhhh",
"hhhhhhhhhhhhhhhhhhhhp             7hhhhhhh",
"hhhhhhhhhhhhhhhhhhhhhh$          9hhhhhhhh",
"hhhhhhhhhhhhhhhhhhhhhhhpu      8hhhhhhhhhh",
"hhhhhhhhhhhhhhhhhhhhhhhhhhhpphhhhhhhhhhhhh",
"hhhhhhhhhhhhhhhhhhhhhhhhhhhhhhhhhhhhhhhhhh",
"hhhhhhhhhhhhhhhhhhhhhhhhhhhhhhhhhhhhhhhhhh"
};
