/* XPM */
static char *eel_s3[] = {
/* columns rows colors chars-per-pixel */
"42 42 48 1 ",
"  c black",
". c #010507",
"X c #010608",
"o c #060609",
"O c #01080B",
"+ c #01080C",
"@ c #010A0F",
"# c #09080E",
"$ c #09090E",
"% c #010B10",
"& c #010C12",
"* c #0C0B12",
"= c #0C0B13",
"- c #0C0C13",
"; c #0D0C14",
": c #0E0D16",
"> c #021017",
", c #021119",
"< c #07121C",
"1 c #02151E",
"2 c #06151F",
"3 c #081018",
"4 c #13121D",
"5 c #14131F",
"6 c #051620",
"7 c #021B27",
"8 c #021C28",
"9 c #031D29",
"0 c #031E2B",
"q c #151320",
"w c #151420",
"e c #191726",
"r c #1B192A",
"t c #1D1B2C",
"y c #1D1B2D",
"u c #03202E",
"i c #032231",
"p c #032333",
"a c #032433",
"s c #032434",
"d c #032739",
"f c #032B3E",
"g c #222034",
"h c #531110",
"j c #671614",
"k c #791A18",
"l c #8F1E1C",
"z c #E4312E",
/* pixels */
"ffffffffffffffffffffffffffffffffffffffffff",
"fffffffffffffudfffffffffffffffffffffffffff",
"fffffffffs&      udfffffffffffffffffffffff",
"ffffffff&          1ffffffffffffffffffffff",
"fffffff&             dffffffffffffffffffff",
"ffffff&     $$        sfffffffffffffffffff",
"fffff,    $gr3&X       fffffffffffffffffff",
"fffff    egrifff.      1ffffffffffffffffff",
"ffff,   ogrifffff       dfffffffffffffffff",
"ffff&   qg9ffffff,      1fffffffffffffffff",
"ffff    g-ffffffff       fffffffffffffffff",
"ffff    g-ffffffffX      dffffffffffffffff",
"fff,    g-ffffffff>      9ffffffffffffffff",
"fff,    g-ffffffff7      9ffffffffffffffff",
"fff,    y-fffffffff      iffffffffffffffff",
"ffff    qg7ffffffff      fffffffffffffffff",
"ffff     g2ffffffff     9fffffffffffffffff",
"ffffO    y*ffffffff     ifffffffffffffffff",
"ffff,    :g9ff7sfff    @ffffffffffffffffff",
"fffff     y:fff,ffi    iffffffffffffffffff",
"fffffX    w5sff ff>   &fffffffffffffffffff",
"fffff7     g2f% sf>   ifffffffffffffffffff",
"ffffff     w=i  9f>   ffffffffffffffffffff",
"ffffff,    -g   fff   ,fffffffffffffffffff",
"ffffff9     g  &fffX   ,ffffffffffffffffff",
"fffffff        ifff9    ffffffffffffffffff",
"fffffff       9fffffO   ,fffffffffffffffff",
"fffffff      w2ffff9f,    afffffffffffffff",
"fffffff,      off7O9ffffffffffffffffffffff",
"fffffff>      $,:g*fffffffffffffffffffffff",
"ffffffff      : 4<ifffffffffffffffffffffff",
"ffffffff       -ifffffffffffffffffffffffff",
"ffffffff,      w7fffffffffffffffffffffffff",
"ffffffff9    j w9fffffffffffffffffffffffff",
"fffffffff@  lzhw7fffffffffffffffffffffffff",
"fffffffff9   k w9fffffffffffffffffffffffff",
"ffffffffff@    w9fffffffffffffffffffffffff",
"fffffffffff%   :ifffffffffffffffffffffffff",
"ffffffffffff9 =offffffffffffffffffffffffff",
"fffffffffffff96iffffffffffffffffffffffffff",
"ffffffffffffffffffffffffffffffffffffffffff",
"ffffffffffffffffffffffffffffffffffffffffff"
};
