/* XPM */
static char *exit2[] = {
/* columns rows colors chars-per-pixel */
"42 42 41 1 ",
"  c #032B3E",
". c #053044",
"X c #053146",
"o c #063348",
"O c #06344A",
"+ c #07354A",
"@ c #07364B",
"# c #07374C",
"$ c #08374D",
"% c #08384E",
"& c #08394F",
"* c #093B52",
"= c #093C53",
"- c #0A3C53",
"; c #0A3E55",
": c #0B3E56",
"> c #0B3F56",
", c #0B4159",
"< c #0C425A",
"1 c #0C435C",
"2 c #0D445D",
"3 c #0E4761",
"4 c #0E4861",
"5 c #104B65",
"6 c #114E69",
"7 c #114F6A",
"8 c #12506C",
"9 c #13526F",
"0 c #135370",
"q c #145572",
"w c #145674",
"e c #155977",
"r c #165A78",
"t c #175C7B",
"y c #175D7C",
"u c #185F7E",
"i c #18607F",
"p c #186080",
"a c #1A6384",
"s c #1A6484",
"d c #1D6B8D",
/* pixels */
"                            ,5+           ",
"                          >5pdd55         ",
"                       ,5dddddddddq#      ",
"                     ,uddddddddddddd5     ",
"                    udddddddddddddddd0    ",
"                  ,dddddddddddddddddddo   ",
"                 ,ddddddddddddddddddddd   ",
"              p$,dddd4444443udddddddddd   ",
"              ydddd3          >yddddddd>  ",
"               dd3           <7dddddddd=  ",
"               dd            uddd3 3ddd>  ",
"           %   8d                   ud7   ",
"          8d.   d<                  *d.   ",
"         <d0    0o                    .   ",
"        <ddr    *                         ",
"       8dddd                              ",
"      pddddd                              ",
"    <ddddddd                              ",
"    pdddddd0                q             ",
"  1dddddddd<                p             ",
"  ddddddddd                 d             ",
" 8dddddddd<                qd.            ",
".d8ddddddd                 dd             ",
"<2pdddddd2                qdde            ",
"  ddddddd                 d7qdd$.         ",
"  dddddd8                 $  dddr         ",
"  dddddd.                  . qdddr$       ",
" 2dddddd*                  p  ddddd*      ",
" 8ddddddd                  d* dddddd$     ",
" 8ddddddd-                 deaddddddd     ",
" #ddddd>d2                 dddddddddd:    ",
"  eddd1 81                 dddddddddddw   ",
"  #ddd2                   sddddddddddddd4 ",
"   rddy                  pdddddddddd4 .   ",
"    -dd*               .sdddddddddd4      ",
"     +ddedd7          wddddddddddd>.      ",
"       edd7          +dddddddddd*.        ",
"      .pdd.             +>dd4**           ",
"       dd7                  .             ",
"       ed                                 ",
"       od                                 ",
"        .  .                              "
};
