/* XPM */
static char *_a9704230a984a3eda8335bf673871739f6E8gbFPDlOW8P9[] = {
/* columns rows colors chars-per-pixel */
"32 32 5 1 ",
"  c None",
". c black",
"X c #AC3232",
"o c #D95763",
"O c white",
/* pixels */
"                                ",
"                                ",
"                                ",
"                                ",
"                         XXXXX  ",
"         XXXXXXXXXX     XXXXXXX ",
"       XXXXXXXXXXXXX   XXXXXXXXX",
"      XXXXXXXXXXXXXXX  XXXXXXXXX",
"     XXXXOOOOXXXXXXXX XXXXXXXXXX",
"     XXXOOOOOOXXXXXXXXXXXXXXXXXX",
"    XXX....OOOOXXXXXXXXXXXXXXXXX",
"    XX......OOOXXXXXXXXXXXXXXXXX",
"    X........OOXXXXXXXXXXXXXXXXX",
"    X........OOXXXXXXXXXXXXXXXXX",
"   XX........OXXXXXXXXXXXXXXXXXX",
"   XX........XXXooooXXXXXXXXXXXX",
"   XXo......oXXooooooXXXXXXXXXXX",
"   XXoo....oooooooooooXXXXXXXXXX",
"   XXoooooooooooooooooXXXXXXXXXX",
"   XXoooooooooooooooooXXXXooooXX",
"   XXoooooooooooooooooXXXooooooX",
"    XXooooooooooooooooXXoooooooo",
"     XXooooooooooooooXXXoooooooo",
"      XXooooooooooooXXXXoooooooo",
"       XXXoooooooooXXXXXoooooooo",
"        XXXXXXXXXXXXX  XXooooooX",
"         XXXXXXXXXXX    XXooooXX",
"                        XXXXXXXX",
"                         XXXXXX ",
"                          XXXX  ",
"                                ",
"                                "
};
