/* XPM */
static char *ed0d0668b9704999906a4fbc1926acf38SYl0Aa6JFWpZJXY[] = {
/* columns rows colors chars-per-pixel */
"32 32 6 1 ",
"  c None",
". c black",
"X c #696A6A",
"o c #306082",
"O c #847E87",
"+ c white",
/* pixels */
"                 ..........     ",
"    XXXX   .................    ",
"   XXXXXXXXXXXXXXXXXXXXX.....   ",
"  XXXooooXXXXXXXXXXXXXXXX.....  ",
" .XXooooooXXXXXXXXXXXXXXXX....  ",
" .XooooooooXXXXXXXX++++XXXO.... ",
" .XooooooooXXXXXXX++++++XXOO....",
" .XooooooooXXXXXX++++....XOO....",
"  .ooooooooXXXXXX+++......OOO...",
"   ooooooooXXXXXX++........OO...",
"   ooooooooXOOOOO++........OO...",
"   ooooooooXOOOOOO+........OO...",
"   ooooooooXOOOOOOO........OO...",
"   ooooooooXOOOOOOOO......OOO...",
"   ooooooooXOOOOOOOOO....OOOO.. ",
"   ooooooooXOOOOOOOOOOOOOOOO... ",
"   ooooooooXOOOOOOOOOOOOOOO...  ",
"   ooooooooOOO................  ",
"   ooooooooOOO...............   ",
"   ooooooooOO...............    ",
"   ooooooooOO.............      ",
"   ooooooooO...                 ",
"   ooooooooOO..                 ",
"   ooooooooOO..                 ",
"  .oooooooooO...                ",
" ..oooooooooOO..                ",
"...oooooooooOO...               ",
"...oooooooooOO...               ",
"...OooooooooOO...               ",
"...OOooooooOOO...               ",
" ...OOooooOOO...                ",
"  ...OOOOOOO...                 "
};
