/* XPM */
static char *efd4b8296ce1462ff5dc382da17e9a7axjRiL0uLTqEUVPRY[] = {
/* columns rows colors chars-per-pixel */
"32 32 3 1 ",
"  c #663931",
". c #524B24",
"X c #4B692F",
/* pixels */
"                                ",
"                                ",
"                                ",
"                                ",
"   XXXXXXXXXXXXXXXXXXXXXXXXXX   ",
"   XXXXXXXXXXXXXXXXXXXXXXXXXX   ",
"   XXXXXXXXXXXXXXXXXXXXXXXXXX   ",
"   XXXXXXXXXXXXXXXXXXXXXXXXXX   ",
"   XXXXX....XXXXXXXXXXXXXXXXX   ",
"   XXXX......XXXXXXXXXXXXXXXX   ",
"   XXX........XXXXXXXXXXXXXXX   ",
"   XXX........XXXXXXXXXXXXXXX   ",
"   XXX........XXXXXXXXXXXXXXX   ",
"   XXX........XXXXX....XXXXXX   ",
"   XXX........XXXX......XXXXX   ",
"   XXX........XXX........XXXX   ",
"   XXX........XXX........XXXX   ",
"   XXX........XXX........XXXX   ",
"   XXX........XXX........XXXX   ",
"   XXX........XXX........XXXX   ",
"   XXX........XXX........XXXX   ",
"   XXX........XXX........XXXX   ",
"   XXX........XXX........XXXX   ",
"   XXXX......XXXX........XXXX   ",
"   XXXXX....XXXXX........XXXX   ",
"   XXXXXXXXXXXXXXX......XXXXX   ",
"   XXXXXXXXXXXXXXXX....XXXXXX   ",
"   XXXXXXXXXXXXXXXXXXXXXXXXXX   ",
"   XXXXXXXXXXXXXXXXXXXXXXXXXX   ",
"   XXXXXXXXXXXXXXXXXXXXXXXXXX   ",
"                                ",
"                                "
};
