/* XPM */
static char *_f8c4b1c108b4b4ae1a87fc232fc692ePm6twvxTZZFgXemq[] = {
/* columns rows colors chars-per-pixel */
"32 32 5 1 ",
"  c #FBF236",
". c #5B6EE1",
"X c #639BFF",
"o c #5FCDE4",
"O c white",
/* pixels */
"ooooooOOOOOO         ooooooooooo",
"ooooOOOOOOO                OOooo",
"oooOO    O                  OOoo",
"ooOO                         OOo",
"ooO                           Oo",
"ooO                           Oo",
"ooO                           Oo",
"ooO        O                  oo",
"ooO        ..XXOOO           ooo",
"ooO        ..XXXXXXXoOOO    oooo",
"ooO        ..XXXXXXXXooooooooooo",
"ooO        ..XXXXXXXXooooooooooo",
"ooO         .OOOOOOOOooooooooooo",
"ooO          OO    OOOoooooooooo",
"ooO                 OOOooooooooo",
"oo                   OOooooooooo",
"oo                   OOooooooooo",
"oo                   OOooooooooo",
"oo                   OXXXXoooooo",
"oo          OO      OXXXXXXooooo",
"oo        OOOoo    oXXXXXXXXoooo",
"oo        OO.ooooooXXXXXXXXXXooo",
"oO        OOooooooXXXXXXXXXXXXoo",
"oO              OOOOOOXXXXXXXXXo",
"oO                OOOOOOOOOOOXXX",
"oO                   OOOOOOOOOXX",
"oO                       OOOOOOX",
"oo                        OOOOOX",
"ooO                        OOOOX",
"oooO    O                  OOOOX",
"ooooOOOOOO                 OOOXo",
"ooooooooooooo              OOXoo"
};
