/* XPM */
static char * ugly_c_xpm[] = {
"32 32 6 1",
" 	c #5FCDE4",
".	c #FFFFFF",
"+	c #639BFF",
"@	c #AC3232",
"#	c #000000",
"$	c #D95763",
"                                ",
"                                ",
"                     ....       ",
"          ++++      ......      ",
"         ++++++    ......@@@@@  ",
"        +@@@@@@@@@@.....@@@@@@@ ",
"      +@@@@@@@@@@@@@...@@@@@@@@@",
"     +@@@@@@@@@@@@@@@..@@@@@@@@@",
"    +@@@@....@@@@@@@@.@@@@@@@@@@",
"   ++@@@......@@@@@@@@@@@@@@@@@@",
"  ++@@@####....@@@@@@@@@@@@@@@@@",
"  ++@@######...@@@@@@@@@@@@@@@@@",
"  ++@########..@@@@@@@@@@@@@@@@@",
"  ++@########..@@@@@@@@@@@@@@@@@",
"   @@########.@@@@@@@@@@@@@@@@@@",
"   @@########@@@$$$$@@@@@@@@@@@@",
"   @@$######$@@$$$$$$@@@@@@@@@@@",
"   @@$$####$$$$$$$$$$$@@@@@@@@@@",
"   @@$$$$$$$$$$$$$$$$$@@@@@@@@@@",
"   @@$$$$$$$$$$$$$$$$$@@@@$$$$@@",
"   @@$$$$$$$$$$$$$$$$$@@@$$$$$$@",
"    @@$$$$$$$$$$$$$$$$@@$$$$$$$$",
"   ..@@$$$$$$$$$$$$$$@@@$$$$$$$$",
"  ....@@$$$$$$$$$$$$@@@@$$$$$$$$",
"  .....@@@$$$$$$$$$@@@@@$$$$$$$$",
"  ......@@@@@@@@@@@@@++@@$$$$$$@",
"  .......@@@@@@@@@@@++++@@$$$$@@",
"   ......       ++++++++@@@@@@@@",
"    ....        +++++++++@@@@@@+",
"                 ++++++ ++@@@@++",
"                  ++++   ++++++ ",
"                          ++++  "};
