/* XPM */
static char * ugly_p_xpm[] = {
"32 32 7 1",
" 	c #5FCDE4",
".	c #000000",
"+	c #696A6A",
"@	c #306082",
"#	c #FFFFFF",
"$	c #847E87",
"%	c #639BFF",
"                 ..........     ",
"    ++++   .................    ",
"   +++++++++++++++++++++.....   ",
"  +++@@@@++++++++++++++++.....  ",
" .++@@@@@@++++++++++++++++....  ",
" .+@@@@@@@@++++++++####+++$.... ",
" .+@@@@@@@@+++++++######++$$....",
" .+@@@@@@@@++++++####....+$$....",
"  .@@@@@@@@++++++###......$$$...",
"   @@@@@@@@++++++##........$$...",
"  %@@@@@@@@+$$$$$##........$$...",
"  %@@@@@@@@+$$$$$$#........$$...",
"  %@@@@@@@@+$$$$$$$........$$...",
"  %@@@@@@@@+$$$$$$$$......$$$...",
"   @@@@@@@@+$$$$$$$$$....$$$$.. ",
"   @@@@@@@@+$$$$$$$$$$$$$$$$... ",
"   @@@@@@@@+$$$$$$$$$$$$$$$...  ",
"   @@@@@@@@$$$................  ",
"   @@@@@@@@$$$...............   ",
"   @@@@@@@@$$...............    ",
"   @@@@@@@@$$.............%%    ",
"   @@@@@@@@$...    %%%%%%%%%%   ",
"   @@@@@@@@$$..   %%%%%%%%%%%%  ",
"  #@@@@@@@@$$..  %%%%%%%%%%%%%% ",
"  .@@@@@@@@@$...%%%%%%%%%%%%%%%%",
" ..@@@@@@@@@$$..%%%%%%%%%%%%%%%%",
"...@@@@@@@@@$$...%%%%%%%%%%%%%%%",
"...@@@@@@@@@$$...%%%%%%%%%%%%%%%",
"...$@@@@@@@@$$...%%%%%%%%%%%%%%%",
"...$$@@@@@@$$$...%%%%%% %%%%%%%%",
" ...$$@@@@$$$...  %%%%   %%%%%% ",
"  ...$$$$$$$...           %%%%  "};
