/* XPM */
static char *ab4c25ab86cb4146db53749881ece775eSOnRE2g8E5gid9P[] = {
/* columns rows colors chars-per-pixel */
"32 32 3 1 ",
"  c #639BFF",
". c #5FCDE4",
"X c white",
/* pixels */
"................................",
"................................",
".....................XXXX.......",
"..........    ......XXXXXX......",
".........      ....XXXXXXXX.....",
"........        ...XXXXXXXX.....",
"......           ..XXXXXXXX.....",
".....             .XXXXXXXX.....",
"....               .XXXXXX......",
"...                 .XXXX.......",
"..                   ...........",
"..                   ...........",
"..                   ...........",
"..                   ...........",
"...       ...       ............",
"....     .....     .............",
"................................",
"................................",
"......................    ......",
".....................      .....",
"....................        ....",
"....XXXX...........          ...",
"...XXXXXX.........            ..",
"..XXXXXXXX.......              .",
"..XXXXXXXX......                ",
"..XXXXXXXX......                ",
"..XXXXXXXX......                ",
"...XXXXXX.......                ",
"....XXXX........                ",
".................      .        ",
"..................    ...      .",
"..........................    .."
};
