/* XPM */
static char *wall[] = {
/* columns rows colors chars-per-pixel */
"42 42 16 1 ",
"  c black",
". c #010303",
"X c #010405",
"o c #010709",
"O c #010A0F",
"+ c #010E14",
"@ c #021017",
"# c #021118",
"$ c #02151E",
"% c #021721",
"& c #03212F",
"* c #032130",
"= c #032535",
"- c #032739",
"; c #03293B",
": c #032B3E",
/* pixels */
":       .::        ::;                  ::",
"         .:         :                    :",
"         X:         :                    :",
"          ;         :                    :",
"         X:        X:                    :",
"          ;         :                    :",
"         X:         :                    :",
"          ;         :                    :",
"         O:         :O                   :",
":OOOOOOOO::         ::OOOO-OOOOOOOOOOO=O+:",
":&&&&&&&*:;         :;&&&&&&&&&&&&&*&&&&::",
"          :         :                   o:",
"          ;         :                    :",
"         X:         :                    :",
"          :         :                   X:",
"         X:         :                    :",
"         .:         :#                   :",
"         .;         :%                   :",
"         .:         :                    :",
"$        $:$        :                    :",
":::::::::::::::::::::                    :",
":    .$            X:                   X:",
"                    :                    :",
"                    :                    :",
"                    :                    :",
"                    :                    :",
"                    :                    :",
"                    :                   o:",
"                    :                    :",
":                   :                    :",
":&&&&&&&&&&*:&&&&&&:::&&&&&&&:&&**&&&&&&*:",
":OOOOOOOO:::OOOOO;OOOO+OOOOOOO::=OOOOOO+#:",
"         .;                   o:         :",
"         .:                   o=         :",
":        .:                   o=         :",
"         .:                   o=         :",
"         .:                   o=         :",
"         .;                   o=         :",
"         .;                   o=         :",
"         .:                   o=         :",
":        ::                   ::=       O:",
"::::::::::::::::::::::::::::::::::::::::::"
};
