/* XPM */
static char *weed4[] = {
/* columns rows colors chars-per-pixel */
"42 42 22 1 ",
"  c black",
". c #010305",
"X c #010507",
"o c #010609",
"O c #01080B",
"+ c #01080C",
"@ c #021016",
"# c #021219",
"$ c #02131B",
"% c #02141D",
"& c #021721",
"* c #021823",
"= c #021B27",
"- c #021C28",
"; c #031D2A",
": c #032333",
"> c #032433",
", c #032434",
"< c #032535",
"1 c #032738",
"2 c #032839",
"3 c #032B3E",
/* pixels */
"333333333333333333333333333333333333333333",
"333333333333333333333333333333333333333333",
"333333333333333333333333333333333333333333",
"333333333333333333333333333333333333333333",
"333333333333333333333333333 O3333333333333",
"333333333333333333333333333 X3333333333333",
"333333333333333333333333333  O333333333333",
"333333333333333333333333333  X333333333333",
"333333333333333333333333333   -33333333333",
"333333333333333333333333333   O33333333333",
"333333333333333333333333333    33333333333",
"333333333333333333333333333<   =3333333333",
"333333333333333333333333333<   O3333333333",
"3333333333333333333333333332   O3332*33333",
"3333333333333333333333333333   O333> =3333",
"33333333333% 333333333333333   O333> X3333",
"3333333333%  333333333333333<  O333<  +333",
"3333333332   333333333333333:  33331   =33",
"333333333    333333333333333<  33333   X33",
"333333331    333333333333333: X33333>   =3",
"333333331    333333333333332  =333333    3",
"33333333<    33333333333332  X3333333<   3",
"333333331    3333333333332   =33333333   3",
"333333331    333333333333   .333333333#  3",
"333333331    33333333333<   +3333333332  3",
"333333333    33333333333    33333333333  3",
"3333333331  o3333333333<    33%=3333333# -",
"3333333332  o333#  X333#    33 .3333333> +",
"33%%%%3333  33%     333    O33  *333333: +",
"32     .&3  #       332    O33  +333333> +",
"32                 =33<    +33   333333<  ",
"333         &=****=333     =33   +33333   ",
"3333*       333333333>     333<   33333   ",
"333333333# o333 X3333<     333:   *3333   ",
"333333333  -333% 3333<    O333<   O3333   ",
"33333333<  #     o333<    O333:   +3333   ",
"33333333         -333<    O333<   +3333  o",
"#    .*<         o3332    O333<   +3333  +",
"              X  X3333    O3332   +3333  +",
"3        ==3333<  3333<   O3333   -3333  +",
"333      333333<  33333   -3333  +33333  +",
"3333333  333###@  33333   X3333  -33333  3"
};
