/* XPM */
static char *weed3[] = {
/* columns rows colors chars-per-pixel */
"42 42 22 1 ",
"  c #010101",
". c #010305",
"X c #010405",
"o c #01070A",
"O c #01080B",
"+ c #01080C",
"@ c #010B10",
"# c #010C11",
"$ c #020F15",
"% c #021118",
"& c #02141C",
"* c #021924",
"= c #021C28",
"- c #031F2D",
"; c #03212F",
": c #032231",
"> c #032333",
", c #032433",
"< c #032535",
"1 c #032738",
"2 c #032839",
"3 c #032B3E",
/* pixels */
"3333333:#333<++& @333333  &33333#333333-$3",
"3333333:+3<    3 @333333  .3333:#333333##3",
"3333333:+<    <3 @333333*  @333-#33333- 33",
"33333@++    +:3: @3333332   333o#33333  33",
"33<o     333333o 33333333*  333 #3333-  33",
"3<     : %33333  33333333-  #3- .3333o  33",
"3o   :<33 33333; @33333333;  3:  #333-  $3",
"333333333 33333  +33333333-  3-  #333-  33",
"333333333 333:+  3333333332 +3;  #333-  33",
"333333333 3o     +333333333 #3   #333-  33",
"3333333O+ o      3333333333 33   #333-  33",
"333+o   +=+::<<  333333333:#33    333- #33",
"33o    +3:+3333  333333333;#33    333- $33",
"3o    +333 3333  333333333 #33    333- #33",
"3<<<<<3333 333o  $3333333- @33*   333- <33",
"3333333333=3<     $333333  #33-   333- 333",
"3333333333:.     +333333;  <333   333- 333",
"333333X    +<<<< +333333   3333   3333#333",
"3333o     =@3333  33333:   3333-  #333#333",
"333X     <:+3333= 33333X  @33333= #333 333",
"333-   O133 3333: @3333   3333333 #333 %33",
"33333333333 33333  333;   3333333=#333 #33",
"33333333333 33333  333;  @33333333#333 #33",
"333XXoX#333 33333= 333;  #33333333 333  33",
"33:                $33;  @33333333 333  33",
"333-      1 31     @33;  333333333 #33  %3",
"33333333333 333112  #3;  333333333 #33  #3",
"33333333333 333333  @3; @333333333  33   3",
"3333333333:+333333  @3; 2333333333  33   3",
"3333333333:+3XX.33   3; 3333333333  33   3",
"3       ..       ;  @3 #333333333; #3-   3",
"3:      3:+2-       @3-#333333333- #3-   3",
"332332233 3333232:  23;#333333333  #33   $",
"333333333 3333333;  333#333333333  333=  #",
"33333333:#3333333: @333#333333333 @333-  #",
"33333333:+3333333; @333 333333333 33333  #",
"33333333 3:     @; #333 33333333-#33333  $",
"3:             +3  +333 #3333333 333333- 3",
"     +3:     333; +3333; 333333; 333333- 3",
"3  3333:+3333333: #3333; 333333- 3333333 3",
"3333333:+3333333  333333 #33333;@3333333 3",
"3333333,+3333333  333333  333333#3333333 3"
};
