/* XPM */
static char *weed2[] = {
/* columns rows colors chars-per-pixel */
"42 42 36 1 ",
"  c black",
". c #010303",
"X c #010304",
"o c #010305",
"O c #010507",
"+ c #010608",
"@ c #010609",
"# c #010709",
"$ c #01070A",
"% c #01080B",
"& c #01080C",
"* c #01090C",
"= c #010C11",
"- c #010E13",
"; c #010E14",
": c #020F15",
"> c #021016",
", c #021219",
"< c #02121A",
"1 c #02151D",
"2 c #021722",
"3 c #021823",
"4 c #021923",
"5 c #021A25",
"6 c #021B27",
"7 c #031E2B",
"8 c #031E2C",
"9 c #031F2C",
"0 c #03212F",
"q c #032333",
"w c #032433",
"e c #032637",
"r c #032738",
"t c #032839",
"y c #03293B",
"u c #032B3E",
/* pixels */
"uuuuuuu  6     -  uuuuuw   0uuu  uuuuuq  u",
"uuuuuuu        r  uuuuue    uuu  uuuuu   u",
"uuuuu88       u   uuuuut    $ut  uuuuq  *u",
"uu8      o;;,uu   uuuuuu-   $ue  uuuu   &u",
"u6       Ouuuur  $uuuuuur    u   0uuu   &u",
"6         uuuue  $uuuuuuu    u   &uuq   &u",
"     ;,u  uuuu   $uuuuuuue   q   *uuw   &u",
"uuuuuuuu  uut7   $uuuuuuue   e   *uuw   uu",
"uuuuuuuu  6      $uuuuuuue  o    *uuq   uu",
"uuuuuu88         $uuuuuuuu  $    *uuw   uu",
"uu76             uuuuuuuut  u     uuw   uu",
"u6        o;;;   uuuuuuuuw *u     uuw  *uu",
"6      oe  uuu   uuuuuuuu  $u     uuw  &uu",
"       uu  uu7   uuuuuuu6  *u     uu3  &uu",
";;>;>,uue  6     $uuuuue   1u    Ouu  O1uu",
"uuuuuuuut         uuuuu    uu    *uu  &uuu",
"uuuuu            ,uuuue    uu-   *uu  $uuu",
"uuu        :;;-  $uuuu4   *uut    uuw uuuu",
"ut         uuue  $uuut    $uuu    uuw *uuu",
"ut      o  0uut   uuue    uuuur   uuw $uuu",
"ut     >u; $uuu   7uu    $uuuuu-  uuw  uuu",
"uuuuuuuuue $uuu-  Ouu    $uuuuur  uuw  uuu",
"uu76767uue $uuue  $uu    uuuuuuu- 9uw  quu",
"u                 $uu    uuuuuuue *uw  $uu",
"u                  uu    uuuuuuuq  uw  $uu",
"ut          >      7u   $uuuuuuue  uw   uu",
"uuuuuuuuue $u,;,;   u   $uuuuuuuq  &w   0u",
"uuuuuuuuu3 $uuuue   u   uuuuuuuue  &w   *u",
"uuuuuuuuu  ,6777e   7  Ouuuuuuuuq  &w   &u",
"6      $0           *  $uuuuuuuue  *w    u",
"                    $  $uuuuuuuue  &w    u",
";          ;        $: $uuuuuuuu   *w    0",
"u,,,,>,u  uuu,>,:   1e $uuuuuuuu   *u    *",
"uuuuuuuu  uuuuuue   uu $uuuuuuuu   uu;   &",
"uuuuuuue  uuuuuue  Ouu  uuuuuuuu  Ouuw   &",
"uuuuuuu  O3     3  $uu  uuuuuuuw  1uue   *",
"t   O66            *uu  7uuuuuu2 *uuuu   -",
"6              O   $uu   7uuuuu  &uuuuq  &",
"      ,       ,u   1uuu  *uuuuu  &uuuuu  *",
";  o,uu  uuuuuur   uuuu  Ouuuuu  *uuuuu; &",
"uuuuuuu  uuuuuue  ouuuu=  7uuuu  uuuuuue *",
"uuuuuuu  u63      $uuuue  Ouuuue uuuuuu  &"
};
