/* XPM */
static char *weed6[] = {
/* columns rows colors chars-per-pixel */
"42 42 23 1 ",
"  c black",
". c #010406",
"X c #010608",
"o c #01080B",
"O c #01090D",
"+ c #010B0F",
"@ c #010B10",
"# c #010C11",
"$ c #010E15",
"% c #02141D",
"& c #021620",
"* c #021822",
"= c #021A25",
"- c #021B27",
"; c #031E2B",
": c #031F2D",
"> c #03202E",
", c #032130",
"< c #032433",
"1 c #032434",
"2 c #032738",
"3 c #03293B",
"4 c #032B3E",
/* pixels */
"444444444444444444444444444444444444444444",
"444444444444444444444444444444444444444444",
"444444444444444444444444444444444444444444",
"444444444444444444444444444444444444444444",
"444444444444444444444444444444444444444444",
"444444444444444444444444444#44444444444444",
"444444444444444444444444444X44444444444444",
"444444444444444444444444444 #4444444444444",
"444444444444444444444444444 X4444444444444",
"444444444444444444444444444  =444444444444",
"444444444444444444444444444  #444444444444",
"444444444444444444444444444>  444444444444",
"444444444444444444444444444,  =44444444444",
"4444444444444444444444444442  #44444444444",
"4444444444444444444444444444  #44441444444",
"4444444444444444444444444444  #4444:=44444",
"444444444441@444444444444444: #4444:X44444",
"44444444442 O444444444444444> 444442 #4444",
"4444444444# @444444444444444> 444444  =444",
"444444444,  @444444444444444>O444444> .444",
"444444444   @444444444444444>:4444444  *44",
"444444444   O444444444444441O44444444>  44",
"444444444   @44444444444441 >444444444  44",
"444444444   @4444444444441 o4444444444% 44",
"444444444   @444444444444  #44444444443 44",
"444444444,  O44444444444>  444444444444 44",
"4444444444  444444444444   444444444444%44",
"4444444444* 44444444444>   444*44444444:&4",
"4444444444,O44441  &444#  #444.44444444:$4",
"441$$&4444,#441#   #444   #444 &4444444:#4",
"44*    $44,O1     o4441   #444 #4444444>$4",
"444*     .#o;:;;;;4444,   ,444  4444444> 4",
"44444&     O4444444444    4444> #444444  4",
"4444444444#,444444444,    4444>  444444  4",
"4444444441O444444#444,   #4444>  &44444  4",
"444444444,,441##%O444>   #4444>  #44444  4",
"444444444 1##   -#4443   .44443  .44444% 4",
"4$###444,     o<,#4444*   44444   44444: 4",
"3     #%     o44 #4444,   44444*  44444> 4",
"43>     o,<44444 O44444   44444> O44444> 4",
"4444,>>1O4444444 #44444* O44444> 144444> 4",
"4444444,O4444444 #44444> #44444>O4444444#4"
};
