/* XPM */
static char *weed6[] = {
/* columns rows colors chars-per-pixel */
"42 42 24 1 ",
"  c black",
". c #010304",
"X c #010507",
"o c #010609",
"O c #01080B",
"+ c #01080C",
"@ c #01090D",
"# c #021016",
"$ c #021119",
"% c #02131B",
"& c #02131C",
"* c #02141D",
"= c #021620",
"- c #021823",
"; c #021924",
": c #021B27",
"> c #021C29",
", c #031D2A",
"< c #032333",
"1 c #032433",
"2 c #032535",
"3 c #032738",
"4 c #032839",
"5 c #032B3E",
/* pixels */
"555555555555555555555555555555555555555555",
"555555555555555555555555555555555555555555",
"555555555555555555555555555555555555555555",
"555555555555555555555555555555555555555555",
"555555555555555555555555552 55555555555555",
"555555555555555555555555552 >5555555555555",
"555555555555555555555555552  5555555555555",
"555555555555555555555555552  >555555555555",
"555555555555555555555555552  X555555555555",
"555555555555555555555555552   555555555555",
"555555555555555555555555552   O55555555555",
"555555555555555555555555555   X55555555555",
"555555555555555555555555555    55555555555",
"555555555555555555555555555$   5555->55555",
"5555555555555555555555555552   5555 o55555",
"55555555555* 555555555555552   5555  :5555",
"5555555555*  555555555555555   5555   5555",
"5555555554   555555555555555  O5555$  X555",
"555555555    555555555555555  O55551   :55",
"555555553    555555555555555  ;55555   X55",
"555555553    55555555555555$ X5555551   +5",
"555555552    5555555555555*  ;5555555   +5",
"555555553    555555555555$  X555555551  +5",
"555555553    555555555552   ;555555554  +5",
"555555553    55555555555    5555555555% +5",
"555555555    55555555552   O55555555552 +5",
"5555555553  o5555555555    O54*55555554 O5",
"5555555554  o555$  X554    +52 ;5555555  5",
"55****5555  55*     552    551 X5555555  5",
"54     .-5  $       55$    552  5555555  5",
"54                 ;55     55<  +555555  +",
"555         -;---->552    X552   555552  +",
"5555-       555555555     O555   +5555<  +",
"555555555$ X55554 555     O555   X5555<  +",
"555555555  :5**$$ 555     5555    55552  +",
"555555552  *      555     -555    -555<  +",
"5$$*%*55          555*    O555*   +5554  +",
"      X$       =  5555    O5552   +5555  +",
"-             >2  5555    O5554   +5555  +",
"5;-      ;>55552  55552   O5555   >5555  +",
"555-:->  5555554  55554   >5555  +55555  +",
"5555555  555$$$#  55555   X5555  ,55555  5"
};
