/* XPM */
static char *weed3[] = {
/* columns rows colors chars-per-pixel */
"42 42 35 1 ",
"  c black",
". c #010304",
"X c #010406",
"o c #010609",
"O c #01080B",
"+ c #01080C",
"@ c #010A0F",
"# c #010C11",
"$ c #010D12",
"% c #020F16",
"& c #021016",
"* c #021118",
"= c #02121A",
"- c #02131B",
"; c #02161F",
": c #021721",
"> c #021822",
", c #021924",
"< c #021B27",
"1 c #021C28",
"2 c #031D2A",
"3 c #031F2C",
"4 c #03202D",
"5 c #03212F",
"6 c #032231",
"7 c #032333",
"8 c #032433",
"9 c #032434",
"0 c #032636",
"q c #032637",
"w c #032737",
"e c #032738",
"r c #03283A",
"t c #03293B",
"y c #032B3E",
/* pixels */
"yyyyyyy  y&       yyyyyw   ;yyy  yyyyyw  y",
"yyyyyyy  %        yyyyyw    yyy  yyyyy   y",
"yyyyt**       o   yyyyyy    oyq  yyyy6  @y",
"yy*          ,r   yyyyyy:   Oyw  yyyy   @y",
"y%       .yyyyw  oyyyyyyr    y   ;yyw   Oy",
"t         oyyyw   yyyyyyy    O    yy8    y",
"e    X1yw oyyyw   yyyyyyyy   O    yyy    y",
"yyyyyyyyw oyy%%   yyyyyyyy   O    yyy   @y",
"yyyyyyyyq         yyyyyyyy:  :    yyy   @y",
"yyyyyyr&%         yyyyyyyyw  w    yyy   oy",
"yyt&             oyyyyyyyy$ o6    @yy   #y",
"yt         111,  Oyyyyyyyy  yw    oyy   yy",
"t       6  oyyw  oyyyyyyyw  y6    @yy   yy",
"e      4yw oyr$  .yyyyyyy   yw    oyy   yy",
"y11222yyyw o$     Xyyyyyw   yy    #yy  oyy",
"yyyyyyyyyy         yyyyy    yy    oyy  oyy",
"yyyyyy            4yyyyw   oyy>   #yy  @yy",
"yyyr        232>  oyyyy$   Oyyw    yy6 yyy",
"yyy         yyyw  Oyyyr    Oyyy    yy4 @yy",
"yyq      X  *yyy   yyyw    yyyyr   yyw .yy",
"yyy     4y, oyyy   *yy    Oyyyyy,  yyq  yy",
"yyyyyyyyyyq oyyy,  oyy    Oyyyyyr  yy6  yy",
"yyq$$%$&yyq oyyyw  Oyy    yyyyyyy> *y6  *y",
"yy                 .yy    yyyyyyyr @y6  #y",
"yy                  yy    yyyyyyy6  y6  .y",
"yyy         X1      $y   oyyyyyyyw  yw   y",
"yyyyyyyyyyw oy464,   y   Oyyyyyyy6  @6   *",
"yyyyyyyyyy@ oyyyyq   y   yyyyyyyyw  o6   #",
"yyyyyyyyyy  1$$$*w   *  oyyyyyyyyw  @6   @",
"y       $@              oyyyyyyyy   O    #",
"w                    w  yyyyyyyyy   y    @",
"y          6         y  yyyyyyyyw   y     ",
"yy443469w Xyyy466   oy  yyyyyyyy6   y6    ",
"yyyyyyyy@ oyyyyyy   oyw yyyyyyyy6  @yy    ",
"yyyyyyyy  6yyyyyy   8yw oyyyyyyyw  6yy    ",
"yyyyyyyw  #         yyw oyyyyyyy  oyyy,   ",
"y@   @@@            yyw .yyyyyyw  yyyy6   ",
"@                   yyw  %yyyyy@ @yyyyy  #",
"      w      .9y   6yyy  @yyyyy  oyyyyy  #",
"3  X6yy  yyyyyyw   yyyy   yyyyy  @yyyyy2 @",
"yyyyyyy  yyyyyyw  oyyyy2  %yyyy  yyyyyy6 @",
"yyyyyyy  yyy#@@o  oyyyyw   yyyyw yyyyyy  O"
};
