/* XPM */
static char *weed5[] = {
/* columns rows colors chars-per-pixel */
"42 42 23 1 ",
"  c black",
". c #010304",
"X c #010709",
"o c #01080B",
"O c #01090C",
"+ c #01090D",
"@ c #010C11",
"# c #010D13",
"$ c #021017",
"% c #021118",
"& c #02131B",
"* c #021B27",
"= c #021D2A",
"- c #031F2C",
"; c #031F2D",
": c #03202E",
"> c #032231",
", c #032433",
"< c #032434",
"1 c #032535",
"2 c #032738",
"3 c #032A3D",
"4 c #032B3E",
/* pixels */
"444444444444444444444444444444444444444444",
"444444444444444444444444444444444444444444",
"444444444444444444444444444444444444444444",
"444444444444444444444444444444444444444444",
"444444444444444444444444444< 4444444444444",
"444444444444444444444444444< <444444444444",
"444444444444444444444444444<  444444444444",
"444444444444444444444444444<  <44444444444",
"444444444444444444444444444<  o44444444444",
"4444444444444444444444444442   44444444444",
"444444444444444444444444444<   O4444444444",
"4444444444444444444444444444   X4444444444",
"4444444444444444444444444444    4444444444",
"4444444444444444444444444444O   4444>44444",
"4444444444444444444444444444<   444, ,4444",
"444444444444= 44444444444444<   444, X4444",
"44444444444-  444444444444444   444<  O444",
"44444444444   444444444444444  O4442  o444",
"4444444444    444444444444444  o4444   >44",
"444444444<    44444444444444<  %4444,  X44",
"4444444442    44444444444444  %44444<   X4",
"4444444442    4444444444444   4444444O   4",
"444444444<    444444444444   %44444444   4",
"4444444442    44444444444   .444444444O  4",
"4444444442    4444444444<   o4444444442  4",
"4444444442   X4444444444    44444444444  4",
"4444444444   4444444444<    44:>4444444O <",
"4444444444O  4444::>444*    44 X4444444< O",
"4444444444= X44:    444    o44  >444444< O",
"44    :>44          444    O44  O444444< O",
"4<                  44<    O44   444444<  ",
"44#         ##    .444     %44   O44444   ",
"444#        444444444<     444<   44444   ",
"44444###$=  4442 4444<     444<   ,4444   ",
"444444444  $:::* 4444<    O444<   O4444   ",
"44444444<  =     O444<    O444<   O4444   ",
"4---->44          444<    o444<   O4444  .",
"      .*       #  4442    o444<   o4444  O",
"#           .#%<  4444    O444<   O4444  O",
"4##      ##4444<  4444<   O4444   &4444  #",
"444####  444444<  44442   %4444  .44444  O",
"4444444  4:=      44444   o4444  %44444  4"
};
