/* XPM */
static char *weed1[] = {
/* columns rows colors chars-per-pixel */
"42 42 34 1 ",
"  c black",
". c #010304",
"X c #010405",
"o c #010709",
"O c #01080B",
"+ c #01080C",
"@ c #01090C",
"# c #010C11",
"$ c #010D12",
"% c #020F16",
"& c #021016",
"* c #021118",
"= c #02131B",
"- c #02141C",
"; c #02161F",
": c #021721",
"> c #021823",
", c #021924",
"< c #021A25",
"1 c #021C28",
"2 c #031E2B",
"3 c #031F2D",
"4 c #03202E",
"5 c #03212F",
"6 c #032231",
"7 c #032333",
"8 c #032433",
"9 c #032434",
"0 c #032535",
"q c #032637",
"w c #032738",
"e c #03283A",
"r c #03293B",
"t c #032B3E",
/* pixels */
"ttttttt  t&       tttttq   ;ttt  tttttq  t",
"ttttttt  *        tttttq    ttt  ttttt   t",
"ttttr**       .   tttttr    otw  ttttq  @t",
"tt*          2r   tttttt:   otq  tttt   @t",
"t%        ttttq  ottttttr    t   ;ttw   @t",
"%         ttttq  ottttttt    w   @tt8   @t",
"     22t  tttt   otttttttq   7   @tt8   @t",
"tttttttt  ttr&   otttttttq   q   @tt8   tt",
"tttttttt  %      otttttttr  X    @tt7   tt",
"tttttt&*         otttttttt  @    @ttq   tt",
"tt&%             ttttttttq  t     tt7   tt",
"t%        .222   tttttttt8 Ot     tt8  @tt",
"$      Xq  ttt   tttttttt  ot     ttq  @tt",
"      .tt  tt%   *ttttttq  @t     tt7  @tt",
"222223ttt  r      ;ttttt   @t:    tt8  4tt",
"ttttttttt<        ottttq   otq    tt8  ttt",
"ttttt$           Xttttt    4tr    ttq  ttt",
"ttt$       o222   ttttw    ttt    @tt Ottt",
"tt$        ottt   tttt$    tttq   +tt  ttt",
"tt       <  ttt<  Ottt    Otttt>  +tt  ;tt",
"tt<    X4t  tttq  .ttq    tttttr  @tt  @tt",
"tttttttttt  tttt   ttq    tttttt< @tt  @tt",
"tt%$&$$*tt  tttt   ttq   ottttttt .tt  .tt",
"tw                 *t8   ottttttt  tt   tt",
"tw                 otq   ottttttt  @t   *t",
"tt3         4      .&q   tttttttt  @t   @t",
"tttttttttt  tr477   oq   tttttttt   t   Xt",
"tttttttttr  ttttt   o8  @tttttttt   t    t",
"tttttttttr X$$$$t    q  7tttttttt   t    t",
"r       $@           q  ttttttttt   t    @",
"q                    q  ttttttttt   t    @",
"t          4         t  ttttttttq   t    .",
"tt447447q ottt477   ot  ttttttttq   t4    ",
"tttttttt@ otttttt   otq tttttttt7  @tt    ",
"tttttttt  8tttttt   7tq otttttttq  qtt    ",
"tttttttw  @         tt8 @ttttttt  Xttt2   ",
"t@   $@@            ttq .ttttttq  tttt7   ",
"@                   ttq  %ttttt@ @ttttt  @",
"      7      X7t   7ttt  @ttttt  @ttttt  @",
"3  X7tt  ttttttq   tttt   ttttt  @ttttt1 @",
"ttttttt  ttttttq  otttt2  %tttt  ttttttq @",
"ttttttt  ttt@@@@  ottttq   ttttq tttttt  $"
};
