/* XPM */
static char *win1[] = {
/* columns rows colors chars-per-pixel */
"126 126 83 1 ",
"  c black",
". c #000407",
"X c #000507",
"o c #000609",
"O c #00080B",
"+ c #00080C",
"@ c #01090D",
"# c #010B0F",
"$ c #010B10",
"% c #010C12",
"& c #010E14",
"* c #010F16",
"= c #011016",
"- c #071115",
"; c #071116",
": c #011018",
"> c #021118",
", c #02131B",
"< c #02141C",
"1 c #02151E",
"2 c #081318",
"3 c #09171C",
"4 c #09171D",
"5 c #021721",
"6 c #021822",
"7 c #021823",
"8 c #021924",
"9 c #031C27",
"0 c #031C29",
"q c #031D29",
"w c #031D2A",
"e c #031F2C",
"r c #03212F",
"t c #042231",
"y c #042433",
"u c #042434",
"i c #042737",
"p c #0F2630",
"a c #042738",
"s c #042A3B",
"d c #042A3C",
"f c #052C3F",
"g c #102833",
"h c #112934",
"j c #14323F",
"k c #052E42",
"l c #052F42",
"z c #052F43",
"x c #053044",
"c c #053247",
"v c #0E3547",
"b c #063349",
"n c #06344A",
"m c #06354B",
"M c #06364C",
"N c #06364D",
"B c #06384F",
"V c #153340",
"C c #153442",
"Z c #173847",
"A c #173A4A",
"S c #063850",
"D c #073C55",
"F c #1B4152",
"G c #1B4354",
"H c #184558",
"J c #1D485B",
"K c #23556B",
"L c #23566C",
"P c #265E77",
"I c #276079",
"U c #28617A",
"Y c #28627C",
"T c #29647E",
"R c #2A6882",
"E c #2F728F",
"W c #327B9B",
"Q c #337C9C",
"! c #347F9F",
"~ c #3A8EB3",
"^ c #3A8FB4",
"/ c #3D95BB",
"( c #45A8D3",
/* pixels */
"       %              j                                               5                                                       ",
"       Dk            P(V                                              Si                                                      ",
"      rDn            ((Q                                             iDk                                                      ",
"      DDDk           ((Q                                             DDDi                                                     ",
"     XDDDn          P(((C                                           @DDDk                                                     ",
"     DDDDD         g((((~                                           DDDDD                                                     ",
"    rDDDDDD        ((((((W                                         iDDDDDD                                                    ",
"  XrDiDDDDDD      g((((((~                                       @iDdDDDDDD                                                   ",
"  ot8%DDDD r8     I(((((((                                       $t11DDDD t1                                                  ",
"     oDDDk        ((((((((W                                         $DDDi                                                     ",
"      DDDk       ;((((((((W                                          DDDi                                                     ",
"      DDD        g((((((((^         i                                DDD                                                      ",
"      DDD      ;Y(((((((((((Z      :Dd                               DDD                                                      ",
"      DDk     ;((((((((((((((^     :Db                               DDt                                                      ",
"      iDk    p((((((((((((((((^   ODDD:                              sDi                                                      ",
"      $Dk   ;((((!((((((((W((((W  =DDDD                              1Di                                                      ",
"       Dk   T(LF  ((((((((W 3L((  DDDDD                               Da                                                      ",
"       D5   K     ((((((((W    KA=DDDDDs                              D;                                                      ",
"     oqDq5        ((((((((       DDDDDDs                            %wDw:                                                     ",
"    oDDnDD5       R(((((((      wDDDDDDDw                          @DDcDD:                                                    ",
"    q     q  6    g((((((W    oiDDDDDDDDDn             1           w     r                                                    ",
"            on    2((((((W   OiDDiDDDDDnDD            @b                                   5                                  ",
"            iD     ((((((    =Dq :DDDDDs w            sD                                   Dt                                 ",
"           %DDn    ((((((        &DDDDD1             :DDc                                 dDc                                 ",
"           %DDD    T(((((        ODDDDD              :DDD                                 DDDt                                ",
"          ODDDDk   h(((((         DDDDD             @DDDDa                               %DDDk                                ",
"          iDDDDn6  g((((Q         =DDDc             dDDDDc1                              DDDDD                                ",
"         iDDDDDDn6 g((((Q         :DDDd            dDDDDDDc1                            dDDDDDD                               ",
"        DD1DDDDbyn h((((Q         :DDDd           DD1DDDDcic                          %dDsDDDDDD                              ",
"           DDDD1    ((((Z         =DDD               DDDD:                            @w=8DDDD 9&                             ",
"           &DDD     ((((          =DDD               :DDD                                @DDDt                                ",
"           %DDn     ((((           DDD               :DDc                                 DDDt                                ",
"           &DDk     g((~           DDD               <DDs                     d           DDD                           k     ",
"           %DD1     h((Q           tDn               <DD>                    5Di          DDD                          wDw    ",
"           %DD      h((!           :Dd               :DD                     5Db          DDt                          wDx    ",
"            DD       ((            :D:                DD                    %DDD1         sDt                         &DDD>   ",
"            tD      3((J           :D6                iD                    5DDDD         8Dt                         wDDDD   ",
"            %D    UE((((/J       sDDDDD8              :D                    DDDDD          Dt                         DDDDD   ",
"            %k  3(((((((((/J    DDDD:DDDn             :s                   5DDDDDi         D&                        wDDDDDe  ",
"          ODDDDv(((((~h(((((J  o6      O6:          $DDDD5                 DDDDDDt       &tDy<                       DDDDDDw  ",
"         @b85o8HU         -GP                      %b55o5i5               tDDDDDDDt     &DDkDD<                     yDDDDDDDt ",
"                                                                        %kDNDDDDDDDc    5     5  1                :kDDDDDDDDDc",
"       %                                         :                     &kDDsDDDDDkDD            &b               ;kDDaDDDDDsDD",
"       Dx                                        Ds                    <D< 5DDDDDy 5            zD               wD5 qDDDDDw 5",
"      sDN                                       dDN                        5DDDDD%             9DDc                  qDDDDD$  ",
"      DDDk                                      DDDd                       @DDDDD              8DDD                  @DDDDD   ",
"     oDDDN                                     $DDDn                        DDDDD             &DDDDt                  DDDDD   ",
"     DDDDD                                     DDDDD                        5DDDd             cDDDDb1                 qDDDs   ",
"    dDDDDDD                                   dDDDDDD                       5DDDi            xDDDDDDc1                wDDDw   ",
"  @dDqDDDDDD                                %kDtDDDDDD                      5DDDt           DD%DDDDdic                9DDDw   ",
"  .1=%DDDD 1:                               o<&:DDDD <&                     <DDD               DDDD$                  wDDD    ",
"     XDDDk                                     oDDDi                        5DDD               8DDD                   9DDD    ",
"      DDDk                                      DDDs                         DDD               8DDs                    DDD    ",
"      DDD                           k           DDD                          DDD               8DDt                    DDD    ",
"      DDD                          :Ds          DDD                          tDd               5DD$                    iDs    ",
"      DDk                          :DN          DDs                          5Dy               9DD                     wDe    ",
"      9Dk                         %DDDw         wDs                          1D@                DD                     wD#    ",
"      %Dk                         :DDDD         ;Ds                          5D9                iD                     wD<    ",
"       Dk                         DDDDD          Ds                        cDDDDD5              5D                   cDDDDD<  ",
"       D&                        =DDDDDd         D%                       DDDD%DDDn             6t                  DDDD#DDDc ",
"     @sDsr                       DDDDDDd       %dDs9                     o:      @=%          :DDDD5               #>      #>#",
"    @DDcDDr                     sDDDDDDDd     %DDkDDw                                        :d::@:y5                         ",
"    :     :                   %kDDDDDDDDDN    :     >                                                                         ",
"                             %kDDwDDDDDkDD                            5                                                       ",
"                             =D: :DDDDDd :                            Di                                                      ",
"                                 =DDDDD$                             cDn                                                      ",
"                                 XDDDDD                              DDDi                                                     ",
"                                  DDDDD                             &DDDN                                                     ",
"                                  :DDDk                             DDDDD                                                     ",
"                                  =DDDd                            cDDDDDD                                                    ",
"                                  :DDDd                          &nDrDDDDDD                                                   ",
"                                  =DDD                           o%@,DDDD &@                                                  ",
"                                  =DDD                              oDDDi                                                     ",
"                                   DDD                               DDDi                                                     ",
"                                   DDD                               DDD                           n                          ",
"                                   9Dk                               DDD                          5Dt                         ",
"                                   :Dd                               DDi                          9Dn                         ",
"                                   :D@                               wDi                         >DDDw                        ",
"                                   :Dr                               5Dt                         9DDDD                        ",
"                                 cDDDDDr                              Di                         DDDDD                        ",
"                                DDDD@DDDB                             D@                        8DDDDDr                       ",
"                               X%      X%O                          :kDkw                       DDDDDDr                       ",
"                                                                   >DDdDDw                     kDDDDDDDk                      ",
"             s                                                     %     $  r                :NDDDDDDDDDN                     ",
"            @S                                                             >N               <NDDwDDDDDiDD                     ",
"            nD                                                             ND               8D% wDDDDDr @                     ",
"           %DDS                                                           5DDN                  5DDDDDo                       ",
"           &DDD                                                           5DDD                  XDDDDD                        ",
"          @DDDDk                                                         :DDDDi                  DDDDD                        ",
"          NDDDDSi                                                        nDDDDNr                 5DDDi                        ",
"         nDDDDDBSi                                                      NDDDDDDNw                9DDDr                        ",
"        DDoDDDDc1S                                                     DDoDDDDdwD                8DDDr                        ",
"           DDDDo                                                          DDDDX                  9DDD                         ",
"           &DDD                                                           5DDD                   9DDD                         ",
"           %DDk                                                           1DDs                    DDD                         ",
"           &DDk                                                           5DDy                    DDD                         ",
"           &DDo                                                           5DDo                    wDi                         ",
"           %DD                                                            <DD                     9Dr                         ",
"            DD                                                             DD                     5Do                         ",
"            :D                                                             9D                     wDw                         ",
"            &D                                                             <D                   BDDDDD8                       ",
"            &k                                                             5i                  DDDDXDDDD                      ",
"          %DDDDs                                                         <DDDDr               Xo       oX                     ",
"         %koo o:s                                                       <aoo X9r                                              ",
"                                                       s                                                                      ",
"                                                      :N                                                                      ",
"                                                      DD                                                                      ",
"                                                     :DDS                                                                     ",
"                                                     :DDD                                                                     ",
"                                                    :DDDDs                                                                    ",
"                                                    DDDDDDi                                                                   ",
"                                                   DDDDDDDNi                                                                  ",
"                                                  DD DDDDs5D                                                                  ",
"                                                     DDDD                                                                     ",
"                                                     :DDD                                                                     ",
"                                                     1DDs                                                                     ",
"                                                     <DDs                                                                     ",
"                                                     <DD                                                                      ",
"                                                     ,DD                                                                      ",
"                                                      DD                                                                      ",
"                                                      <D                                                                      ",
"                                                      <D                                                                      ",
"                                                      >s                                                                      ",
"                                                    >DDDDs                                                                    ",
"                                                   ,s    <s                                                                   ",
"                                                                                                                              "
};
