/* XPM */
static char *win2[] = {
/* columns rows colors chars-per-pixel */
"126 126 84 1 ",
"  c black",
". c #000304",
"X c #000406",
"o c #00070A",
"O c #03080A",
"+ c #01080C",
"@ c #040B0E",
"# c #010B10",
"$ c #010C12",
"% c #010E15",
"& c #011016",
"* c #011018",
"= c #02131B",
"- c #02141C",
"; c #02141D",
": c #0A181E",
"> c #021620",
", c #021923",
"< c #031924",
"1 c #031B26",
"2 c #031C27",
"3 c #0A1B23",
"4 c #0B1C23",
"5 c #0B1C24",
"6 c #0C1E26",
"7 c #031C28",
"8 c #031D2A",
"9 c #031E2A",
"0 c #031F2C",
"q c #03202E",
"w c #03212F",
"e c #0D2029",
"r c #0D212A",
"t c #0F252F",
"y c #032130",
"u c #042231",
"i c #042433",
"p c #042535",
"a c #042738",
"s c #042838",
"d c #072939",
"f c #042A3C",
"g c #052C3E",
"h c #102832",
"j c #102833",
"k c #112934",
"l c #112B36",
"z c #052E42",
"x c #052F43",
"c c #053044",
"v c #053145",
"b c #053247",
"n c #053348",
"m c #063349",
"M c #063449",
"N c #06354B",
"B c #06354C",
"V c #06374F",
"C c #06384F",
"Z c #063850",
"A c #063B53",
"S c #063B54",
"D c #073C55",
"F c #1C4557",
"G c #1E495C",
"H c #1F4C5F",
"J c #1F4D60",
"K c #12506C",
"L c #23576E",
"P c #24586E",
"I c #245970",
"U c #28617A",
"Y c #327B9A",
"T c #337C9C",
"R c #337D9D",
"E c #3582A3",
"W c #3583A4",
"Q c #3684A6",
"! c #3787A9",
"~ c #3787AA",
"^ c #398BAE",
"/ c #398CB1",
"( c #3F9BC3",
") c #45A8D3",
/* pixels */
"       q             EP                                               1                                                       ",
"      +C            l))                                              &M                                                       ",
"      zD            h))                                              bD                                                       ",
"     $DDC           W))P                                            -DDV                                                      ",
"     $DDD          W))))                                            -DDD                                                      ",
"    +DDDDz        5)))))(                                          %DDDDp                                                     ",
"    zDDDDZq       Q))))))                                          zDDDDV1                                                    ",
"   zDDDDDDZq      )))))))Y                                        nDDDDDDM1                                                   ",
"  DD$DDDDb1C     h)))))))(                                       DD#DDDDfqV                                                   ",
"     DDDD$       h))))))))                                          DDDD@                                                     ",
"     $DDD        )))))))))                                          -DDD                                                      ",
"     $DDb       Y)))))))))(I        b                               -DDz                                                      ",
"     $DDz     4)))))))))))))Y      *Df                              >DDp                                                      ",
"     $DD$    Y)))))))))))))))(     *DV                              -DD+                                                      ",
"     $DD    4))))G))))))))H)))(   $DDD0                             >DD                                                       ",
"      DD    )))llh))))))))@l)))I  &DDDD                              DD                                                       ",
"      ,D   t^e   h))))))))   @J(  DDDDD                              qD                                                       ",
"      $D         h)))))))!       &DDDDDf                             -D                                                       ",
"      $z         h)))))))Y       DDDDDDf                             -p                                                       ",
"    +DDDDu        )))))))6      zDDDDDDDg                          &DDDD0                                                     ",
"   +n%%.%1y  u    )))))))     +bSDDDDDDDDV                        &f%%o%70  7                                                 ",
"            +Z    h)))))!    $bDD1DDDDDzDD            %C                                   1                                  ",
"            bD    l)))))T    &D% &DDDDDg %            MD                                  *V                                  ",
"           $DDZ   h)))))T        &DDDDD+             *DDV                                 bD                                  ",
"           %DDD    )))))T        XDDDDD              -DDD                                ,SDV                                 ",
"          +DDDDz   )))))5         DDDDD             %DDDDa                               1DDD                                 ",
"          bDDDDZu  )))))          &DDDz             nDDDDV9                             *DDDDq                                ",
"         bDDDDDDZu )))))          *DDDf            bDDDDDDV9                            nDDDDV2                               ",
"        DD+DDDDb,Z F))))          *DDDf           DD+DDDDg9V                           nDDDDDDM1                              ",
"           DDDD+   l)))T          &DDD               DDDD+                            DDODDDDsqV                              ",
"           %DDD    h)))T          &DDD               -DDD                                DDDD+                                ",
"           $DDb    O)))T           DDD               *DDg                                1DDD                                 ",
"           $DDz     )))            DDD               =DDs                     M          1SDs                           Z     ",
"           $DD+     )))            1Dz               =DD+                    >Dp         >SDu                          7S7    ",
"           %DD      F)~            *Df               =DD                     >DV         ,DD+                          0DM    ",
"            DD      h)T            *D+                DD                    *DDD7        ,DD                          -DDD,   ",
"            ,D     Q)))Q           *Dq                2D                    >DDDD         DD                          0DDDD   ",
"            $D  e/)))))))Q       nDDDDDy              =D                    DDDDD         qD                          DDDDD   ",
"            $z 4)))))~)))))U    DDDD+DDDC             =s                   >DDDDDp        2D                         7DDDDD7  ",
"          #DDDK)~eeee eeee))U  .$      X%+          &DDDDq                 DDDDDDi        >u                         DDDDDDq  ",
"         $b$$ $<s           :                      %g$$.$20               xDDDDDDDz     -DDDD7                      zDDDDDDDx ",
"                                                                        *MDDDDDDDDDC   -a#+o+q2  7                >VDDDDDDDDSZ",
"       p                                         q                     =VDD7DDDDDsDD            -M               >VDDuDDDDDpDD",
"      +Z                                        &C                     -D# >DDDDDi #            VD               7D+ 7DDDDD7 #",
"      nD                                        MD                         >DDDDDo             1DDZ                  7DDDDDo  ",
"     %DDZ                                      *DDC                        XDDDDD              1DDD                  XDDDDD   ",
"     $DDD                                      *DDD                         DDDDD             -DDDDu                  DDDDD   ",
"    +DDDDb                                    %DDDDs                        >DDDs             VDDDZV7                 7DDDu   ",
"    MDDDDZs                                   MDDDDZq                       >DDDp            MDDDDDDZ1                1SDD0   ",
"   MDDDDDDZp                                 VDDDDDDZ0                      >DDDi           DSoDDDDpqZ                9DDD7   ",
"  DD+DDDDb*Z                                DD+DDDDg1Z                      >DDD               DDDDX                  9DDD    ",
"     DDDDO                                     DDDDo                        >DDD               ,DDD                   1SDD    ",
"     $DDD                                      *DDD                          DDD               ,DDp                    DDD    ",
"     $DDn                           M          -DDg                          DDD               1DDu                    DDD    ",
"     $DDz                          *Df         *DDs                          7Ds               1DDO                    uDu    ",
"     $DDO                          *DZ         -DDo                          >Dp               1DD                     7Dq    ",
"     $DD                          %DDDu        *DD                           >So                DD                     9S.    ",
"      DD                          &DDDD         DD                           -D9                0D                     9D1    ",
"      -D                          DDDDD         ,D                         ZDDSDD9              1S                   VDDDDD2  ",
"      $D                         *DDDDDf        *D                        DDDDoDDDZ             2q                  DDDDXDDDZ ",
"      $z                         DDDDDDf        -s                       .+      X+X          -DSDD9               o+      X+X",
"    #SDDDs                      nDDDDDDDn     %DDDDu                                         -a+o.+99                         ",
"   #n++ +-s  p                %MDDDDDDDDDZ   &g++.+1u  u                                                                      ",
"                             %MDD>DDDDDzDD                            q                                                       ",
"                             &D+ *DDDDDs +                           *Z                                                       ",
"                                 %DDDDDo                             VD                                                       ",
"                                 .DDDDD                             >DDZ                                                      ",
"                                  DDDDD                             -DDD                                                      ",
"                                  *DDDg                            *DDDDp                                                     ",
"                                  &DDDf                            ZDDDDCq                                                    ",
"                                  *DDDf                           VZDDDDDZq                                                   ",
"                                  &DDD                           DDoDDDDp1D                                                   ",
"                                  *DDD                              DDDDo                                                     ",
"                                   DDD                              >DDD                                                      ",
"                                   DDS                              -DDs                           V                          ",
"                                   -Dz                              -DDp                          1Dq                         ",
"                                   *Df                              -DDX                          1DZ                         ",
"                                   *DX                              -DD                          -DDD9                        ",
"                                   *Dp                               DD                          1DDDD                        ",
"                                 VDDDDDp                             7D                          DDDDD                        ",
"                                SDDDXDDDD                            >D                         1SSDDDy                       ",
"                                @       oX                           >p                         DDDDDDq                       ",
"                                                                   *DDDDq                      VDDDDDDDV                      ",
"                                                                  -aXo o1y  u                -DZDDDDDDDDZ                     ",
"            $Z                                                             -Z               >CDD9ZDDDDuDD                     ",
"            ZD                                                             ZD               2DX 1DDDDDu O                     ",
"           %DDZ                                                           >DDS                  1DDDDDX                       ",
"           %DDD                                                           >DDD                   DDDDD                        ",
"          $DDDDz                                                         -DDDDp                  DDDDD                        ",
"          CDDDDZf                                                        ZDDDDZu                 1DDDu                        ",
"         ZDDDDDDSs                                                      ZDDDDDDZq                1DDDq                        ",
"        DD.DDDDz*S                                                     DD.DDDDp1Z                1DDDq                        ",
"           DDDD.                                                          DDDDX                  1DDD                         ",
"           %DDD                                                           >DDD                   2DDD                         ",
"           $DDz                                                           >DDp                    DDD                         ",
"           %DDz                                                           >DDp                    DDD                         ",
"           %DD.                                                           >DD                     9Su                         ",
"           $DD                                                            >DD                     1Du                         ",
"            DD                                                             DD                     >D                          ",
"            &D                                                             1D                     1Dq                         ",
"            %D                                                             >D                   ZDDDDDq                       ",
"            $z                                                             >p                  DDDD DDDZ                      ",
"          #DDDDg                                                         >SDDDu                X       o                      ",
"         $z.. .&f                                                       -a..  1u                                              ",
"                                                                                                                              ",
"                                                      *D                                                                      ",
"                                                      ZD                                                                      ",
"                                                     -DDZ                                                                     ",
"                                                     *DDD                                                                     ",
"                                                    -DDDDs                                                                    ",
"                                                    SDDDDDa                                                                   ",
"                                                   ZDDDDDDDp                                                                  ",
"                                                  DD DDDDs>D                                                                  ",
"                                                     DDDD                                                                     ",
"                                                     -DDD                                                                     ",
"                                                     -DDs                                                                     ",
"                                                     *DDa                                                                     ",
"                                                     -DD                                                                      ",
"                                                     -DD                                                                      ",
"                                                      DD                                                                      ",
"                                                      -D                                                                      ",
"                                                      =D                                                                      ",
"                                                      -s                                                                      ",
"                                                    =DDDDa                                                                    ",
"                                                   -s    -a                                                                   ",
"                                                                                                                              "
};
