/* XPM */
static char *win3[] = {
/* columns rows colors chars-per-pixel */
"126 126 85 1 ",
"  c black",
". c #000305",
"X c #000507",
"o c #000508",
"O c #00080B",
"+ c #00080C",
"@ c #01080C",
"# c #030A0D",
"$ c #010B0F",
"% c #010B10",
"& c #010C12",
"* c #010E14",
"= c #011017",
"- c #071115",
"; c #071116",
": c #02131B",
"> c #02131C",
", c #02141C",
"< c #02151F",
"1 c #081318",
"2 c #09171C",
"3 c #021620",
"4 c #021721",
"5 c #021822",
"6 c #021823",
"7 c #021924",
"8 c #031924",
"9 c #031B27",
"0 c #031C28",
"q c #031E2A",
"w c #031E2B",
"e c #031F2D",
"r c #03202E",
"t c #03212F",
"y c #032130",
"u c #042332",
"i c #042434",
"p c #042737",
"a c #092633",
"s c #042738",
"d c #042839",
"f c #042A3C",
"g c #052C3E",
"h c #052C3F",
"j c #102731",
"k c #102832",
"l c #102833",
"z c #112B36",
"x c #14323F",
"c c #052E42",
"v c #052F43",
"b c #053044",
"n c #053247",
"m c #053248",
"M c #06344A",
"N c #06354B",
"B c #06354C",
"V c #06364D",
"C c #06384F",
"Z c #07394F",
"A c #163644",
"S c #173947",
"D c #173948",
"F c #063A53",
"G c #073C55",
"H c #153F52",
"J c #1B4152",
"K c #1B4354",
"L c #1F4D61",
"P c #23556B",
"I c #23566C",
"U c #28627B",
"Y c #28627C",
"T c #29647D",
"R c #2A6681",
"E c #2C6C87",
"W c #2F728F",
"Q c #327999",
"! c #337C9C",
"~ c #3186AB",
"^ c #3A8EB3",
"/ c #3B90B5",
"( c #3D95BB",
") c #3D96BC",
"_ c #45A8D3",
/* pixels */
"       :            ;                                                 *                                                       ",
"      oM           ;_^                                               @c                                                       ",
"      tG           k__                                               dG                                                       ",
"     %GGM          k__                                              ,GGn                                                      ",
"     &GGG         ;___^                                             >GGG                                                      ",
"    XGGGGc        _____A                                           @GGGGp                                                     ",
"    tGGGGM,      k______                                           iGGGGc=                                                    ",
"   tGGGGGGM,     _______A                                         sGGGGGGc=                                                   ",
"  GG7GGGGBpM    ;_______!                                        GG4GGGGngc                                                   ",
"     GGGG7      j________                                           GGGG>                                                     ",
"     &GGG       Y________                                           ,GGG                                                      ",
"     &GGB       _________S         of                               4GGm                                                      ",
"     &GGc     L___________^        GG                               ,GGp                                                      ",
"     &GG6    Y______________S      GG,                              4GG,                                                      ",
"     &GG    _________________D    pGGm                              >GG                                                       ",
"      GG   T____k________z____    GGGGf                              GG                                                       ",
"      pG  ;_(I  k________  IE_Q  =GGGGf                              fG                                                       ",
"      %G  ;J    j________    2P  GGGGGG                              4G                                                       ",
"      &c        j_______!       =GGGGGG                              ,s                                                       ",
"    oGGGG4      1_______!      @pGGGGGGn6                          @GGGG>                                                     ",
"   oBqqoqu4  6   _______      eGGGGGGGGGGq   @,    @,  ,           qqq%qq                                                     ",
"            oM   R______     qGGmGGGGGGpGG            @n                                   :                                  ",
"            pG   k_____!     GB, GGGGGG @p            dG                                  &c                                  ",
"           &GGM  k_____!         GGGGGm              ,GGm                                 fG                                  ",
"           *GGG  ;_____!         pGGGGf              :GGG                                8GGc                                 ",
"          oGGGGc  _____!         *GGGGf             @GGGGd                               6GGG                                 ",
"          pGGGGB6 _____           GGGG>             dGGGGn,                             &GGGGu                                ",
"         pGGGGGGMt_____           GGGG             dGGGGGGm,                            fGGGGn:                               ",
"        GG,GGGGMuZ_____           GGGG            GG:GGGGcpm                           fGGGGGGc:                              ",
"           GGGG,  j___/           GGGf               GGGG:                            GG=GGGGcsn                              ",
"           *GGG   k___!           FGGf               :GGG                                GGGG*                                ",
"           &GGM   k___!           :GGf               :GGm                                7GGG                                 ",
"           &GGv    ___A           :GGd               :GGd                    &p          6GGc                          =q     ",
"           *GG,    ___            oGG:               :GG:                    GF          6GGu                          GG     ",
"           &GG     ___             GG                :GG                     GG4         6GG*                          GG:    ",
"            GG     k_!             Gn                 GG                    fGGm         6GG                          cGGc    ",
"            yG     W_(             GM                 uG                    GGGGu         GG                          GGGGq   ",
"            &G  2Y_____U        @GGGGGM               :G                   ,GGGGp         sG                         qGGGGq   ",
"            &c W_________U     =GGGn:GGG6             :d                   GGGGGF         6G                         GGGGGG   ",
"          @GGG~_____x_____)    6:      66           %GGGG4                4GGGGGG         6u                        qGGGGGG   ",
"         @M66@KJa        KKQ                       %n67o6u6              &gGGGGGGn,     *GGGG,                     :cGGGGGGn: ",
"                                                                        uGGGGGGGGGGp   *g44#4p,  ,                uGGGGGGGGGGu",
"       e                                         6                     uGGcGGGGGGpGG            *m               uGGdGGGGGGdGG",
"      om                                        %M                     Gc= GGGGGG @p            vG               Gf& GGGGGG %d",
"      fG                                        gG                         GGGGGf              7GGn                  GGGGGd   ",
"     *GGB                                      :GGM                        pGGGGp              6GGG                  dGGGGq   ",
"     &GGG                                      :GGG                        4GGGGu             :GGGGu                 qGGGGe   ",
"    @GGGGc                                    %GGGGd                        GGGG&             cGGGGm,                 GGGG&   ",
"    dGGGGZe                                   gGGGGM7                       GGGG             cGGGGGGn,                GGGG    ",
"   fGGGGGGMe                                 gGGGGGGB7                      GGGG            GG&GGGGfpm                GGGG    ",
"  GG:FGGGnqB                                GG*GGGGcyM                      GGFp               GGGG&                  GGGe    ",
"     GGGG:                                     GGGG*                        GGGu               7GGG                   GGGe    ",
"     &GGG                                      :GGG                         4GGu               7GGd                   qGGq    ",
"     &GGM                          @f          :GGc                         4GFp               7GGu                   7GGq    ",
"     &GGc                          GG          :GGd                         oGG&               7GG%                   @GG@    ",
"     &GG*                          GGq         :GG*                          GG                7GG                     GG     ",
"     &GG                          cGGB         :GG                           Gg                 GG                     Gd     ",
"      GG                          GGGGf         GG                           GM                 pG                     Gn     ",
"      qG                         :GGGGf         tG                        *GGGGGM               4G                  :GGGGGm   ",
"      &G                         GGGGGG         :G                       ,GGGg4GGG6             7y                 qGGGdqGGG, ",
"      &c                        :GGGGGG         :p                       ,&      ::           :GGGG4               :@      :: ",
"    oFGGGt                     &cGGGGGGBq     &FGGGq                                         :d::o:p4                         ",
"    :::.::                    fGFGGGGGGGGd    :::o:*                                                                          ",
"                             fGGcGGGGGGqGG                            7                                                       ",
"                             Gn% GGGGGG Xq                           *B                                                       ",
"                                 GGGGGc                              nG                                                       ",
"                                 qGGGGf                             ,GGB                                                      ",
"                                 =GGGGf                             4GGG                                                      ",
"                                  GGGG&                            *GGGGd                                                     ",
"                                  GGGG                             nGGGGB9                                                    ",
"                                  GGGG                            nGGGGGGBq                                                   ",
"                                  GGGf                           GG@GGGGfeM                                                   ",
"                                  GGGf                              GGGG@                                                     ",
"                                  =GGf                              4GGG                                                      ",
"                                  =GGf                              ,GGf                          ,t                          ",
"                                  .GG@                              ,GGp                          GG                          ",
"                                   GG                               ,GG@                          GG8                         ",
"                                   Gc                               4GG                          MGGB                         ",
"                                   GZ                                GG                          GGGGu                        ",
"                                &GGGGGZ                              qG                         6GGGGt                        ",
"                               =GGGc=GGGt                            4G                         GGGGGG                        ",
"                               &@      &&                            ,p                        7GGGGGG                        ",
"                                                                   -GGGGq                     ,MGGGGGGM8                      ",
"   @p    @p  p                                                    >f%%o&qq  r                nGGGGGGGGGGm                     ",
"            $F                                                             ,B               nGGpGGGGGGrGG                     ",
"            nG                                                             MG               Fpo GGGGGG Xr                     ",
"           *GGF                                                           4GGB                  GGGGGd                        ",
"           *GGG                                                           ,GGG                  rGGGGr                        ",
"          @GGGGg                                                         >GGGGd                 7GGGGr                        ",
"          MGGGGFp                                                        BGGGGBr                 GGGGo                        ",
"         MGGGGGGFp                                                      BGGGGGGBq                GGGG                         ",
"        GG@GGGGn,B                                                     GGoGGGGsqF                GGGG                         ",
"           GGGGo                                                          GGGGX                  GGGr                         ",
"           &GGG                                                           4GGG                   GGGu                         ",
"           *GGc                                                           ,GGd                   8GGt                         ",
"           *GGc                                                           4GFp                   7GGt                         ",
"           &GGo                                                           4GGo                   .GGX                         ",
"           *GG                                                            4GG                     GG                          ",
"            GG                                                             GG                     Gu                          ",
"            ,G                                                             7G                     GF                          ",
"            &G                                                             4G                  4GGGGGB                        ",
"            *c                                                             4p                 7GGGp8GGGq                      ",
"          &GGGGd                                                         ,GGGGr               oX      oo                      ",
"         &coo o:d                                                       ,soo X6u                                              ",
"                                             :u    :u  u                                                                      ",
"                                                      :F                                                                      ",
"                                                      FG                                                                      ",
"                                                     :FGF                                                                     ",
"                                                     :GGG                                                                     ",
"                                                    :GGGGp                                                                    ",
"                                                    FFGGGFp                                                                   ",
"                                                   FGGGGGGFu                                                                  ",
"                                                  GG GGGGd4G                                                                  ",
"                                                     GGGG                                                                     ",
"                                                     ,GGG                                                                     ",
"                                                     ,GGd                                                                     ",
"                                                     :GGd                                                                     ",
"                                                     ,GG                                                                      ",
"                                                     :GG                                                                      ",
"                                                      GG                                                                      ",
"                                                      ,G                                                                      ",
"                                                      >G                                                                      ",
"                                                      :d                                                                      ",
"                                                    :GGGGs                                                                    ",
"                                                   :d    ,s                                                                   ",
"                                                                                                                              "
};
